%TF.GenerationSoftware,KiCad,Pcbnew,6.0.11-2627ca5db0~126~ubuntu22.04.1*%
%TF.CreationDate,2023-02-19T20:25:04+09:00*%
%TF.ProjectId,QuickPass,51756963-6b50-4617-9373-2e6b69636164,rev?*%
%TF.SameCoordinates,Original*%
%TF.FileFunction,Soldermask,Bot*%
%TF.FilePolarity,Negative*%
%FSLAX46Y46*%
G04 Gerber Fmt 4.6, Leading zero omitted, Abs format (unit mm)*
G04 Created by KiCad (PCBNEW 6.0.11-2627ca5db0~126~ubuntu22.04.1) date 2023-02-19 20:25:04*
%MOMM*%
%LPD*%
G01*
G04 APERTURE LIST*
G04 Aperture macros list*
%AMRoundRect*
0 Rectangle with rounded corners*
0 $1 Rounding radius*
0 $2 $3 $4 $5 $6 $7 $8 $9 X,Y pos of 4 corners*
0 Add a 4 corners polygon primitive as box body*
4,1,4,$2,$3,$4,$5,$6,$7,$8,$9,$2,$3,0*
0 Add four circle primitives for the rounded corners*
1,1,$1+$1,$2,$3*
1,1,$1+$1,$4,$5*
1,1,$1+$1,$6,$7*
1,1,$1+$1,$8,$9*
0 Add four rect primitives between the rounded corners*
20,1,$1+$1,$2,$3,$4,$5,0*
20,1,$1+$1,$4,$5,$6,$7,0*
20,1,$1+$1,$6,$7,$8,$9,0*
20,1,$1+$1,$8,$9,$2,$3,0*%
G04 Aperture macros list end*
%ADD10C,1.700000*%
%ADD11O,1.700000X1.700000*%
%ADD12RoundRect,0.425000X0.425000X-0.425000X0.425000X0.425000X-0.425000X0.425000X-0.425000X-0.425000X0*%
%ADD13C,3.800000*%
%ADD14C,1.524000*%
%ADD15RoundRect,0.500000X0.500000X0.500000X-0.500000X0.500000X-0.500000X-0.500000X0.500000X-0.500000X0*%
%ADD16C,2.000000*%
%ADD17C,2.800000*%
%ADD18C,1.000000*%
%ADD19O,1.700000X3.000000*%
%ADD20RoundRect,0.381000X-0.381000X-0.381000X0.381000X-0.381000X0.381000X0.381000X-0.381000X0.381000X0*%
G04 APERTURE END LIST*
D10*
%TO.C,J2*%
X106190000Y-110000000D03*
D11*
X108730000Y-110000000D03*
X111270000Y-110000000D03*
D12*
X113810000Y-110000000D03*
%TD*%
D13*
%TO.C,H1*%
X117800000Y-113500000D03*
%TD*%
%TO.C,H4*%
X102500000Y-73500000D03*
%TD*%
D14*
%TO.C,SW4*%
X110000000Y-126500000D03*
D15*
X117500000Y-129000000D03*
D16*
X117500000Y-124000000D03*
X117500000Y-126500000D03*
D17*
X110000000Y-132100000D03*
X110000000Y-120900000D03*
D16*
X103000000Y-129000000D03*
X103000000Y-124000000D03*
%TD*%
D13*
%TO.C,H2*%
X117500000Y-73500000D03*
%TD*%
D18*
%TO.C,J1*%
X107750000Y-137000000D03*
X112250000Y-137000000D03*
D14*
X113500000Y-134600000D03*
X111000000Y-134600000D03*
X109000000Y-134600000D03*
X106500000Y-134600000D03*
D19*
X104150000Y-137000000D03*
X115850000Y-137000000D03*
%TD*%
D13*
%TO.C,H3*%
X102200000Y-113500000D03*
%TD*%
D20*
%TO.C,U1*%
X102380000Y-77010000D03*
D14*
X102380000Y-79550000D03*
X102380000Y-82090000D03*
X102380000Y-84630000D03*
X102380000Y-87170000D03*
X102380000Y-89710000D03*
X102380000Y-92250000D03*
X102380000Y-94790000D03*
X102380000Y-97330000D03*
X102380000Y-99870000D03*
X102380000Y-102410000D03*
X102380000Y-104950000D03*
X102380000Y-107490000D03*
X117620000Y-107490000D03*
X117620000Y-104950000D03*
X117620000Y-102410000D03*
X117620000Y-99870000D03*
X117620000Y-97330000D03*
X117620000Y-94790000D03*
X117620000Y-92250000D03*
X117620000Y-89710000D03*
X117620000Y-87170000D03*
X117620000Y-84630000D03*
X117620000Y-82090000D03*
X117620000Y-79550000D03*
X117620000Y-77010000D03*
%TD*%
M02*
