%TF.GenerationSoftware,KiCad,Pcbnew,6.0.11-2627ca5db0~126~ubuntu22.04.1*%
%TF.CreationDate,2023-02-19T20:25:04+09:00*%
%TF.ProjectId,QuickPass,51756963-6b50-4617-9373-2e6b69636164,rev?*%
%TF.SameCoordinates,Original*%
%TF.FileFunction,Copper,L1,Top*%
%TF.FilePolarity,Positive*%
%FSLAX46Y46*%
G04 Gerber Fmt 4.6, Leading zero omitted, Abs format (unit mm)*
G04 Created by KiCad (PCBNEW 6.0.11-2627ca5db0~126~ubuntu22.04.1) date 2023-02-19 20:25:04*
%MOMM*%
%LPD*%
G01*
G04 APERTURE LIST*
G04 Aperture macros list*
%AMRoundRect*
0 Rectangle with rounded corners*
0 $1 Rounding radius*
0 $2 $3 $4 $5 $6 $7 $8 $9 X,Y pos of 4 corners*
0 Add a 4 corners polygon primitive as box body*
4,1,4,$2,$3,$4,$5,$6,$7,$8,$9,$2,$3,0*
0 Add four circle primitives for the rounded corners*
1,1,$1+$1,$2,$3*
1,1,$1+$1,$4,$5*
1,1,$1+$1,$6,$7*
1,1,$1+$1,$8,$9*
0 Add four rect primitives between the rounded corners*
20,1,$1+$1,$2,$3,$4,$5,0*
20,1,$1+$1,$4,$5,$6,$7,0*
20,1,$1+$1,$6,$7,$8,$9,0*
20,1,$1+$1,$8,$9,$2,$3,0*%
G04 Aperture macros list end*
%TA.AperFunction,ComponentPad*%
%ADD10C,1.700000*%
%TD*%
%TA.AperFunction,ComponentPad*%
%ADD11O,1.700000X1.700000*%
%TD*%
%TA.AperFunction,ComponentPad*%
%ADD12RoundRect,0.425000X0.425000X-0.425000X0.425000X0.425000X-0.425000X0.425000X-0.425000X-0.425000X0*%
%TD*%
%TA.AperFunction,ComponentPad*%
%ADD13C,3.800000*%
%TD*%
%TA.AperFunction,SMDPad,CuDef*%
%ADD14RoundRect,0.200000X-0.275000X0.200000X-0.275000X-0.200000X0.275000X-0.200000X0.275000X0.200000X0*%
%TD*%
%TA.AperFunction,SMDPad,CuDef*%
%ADD15RoundRect,0.250000X-0.250000X-0.525000X0.250000X-0.525000X0.250000X0.525000X-0.250000X0.525000X0*%
%TD*%
%TA.AperFunction,ComponentPad*%
%ADD16RoundRect,0.500000X0.500000X0.500000X-0.500000X0.500000X-0.500000X-0.500000X0.500000X-0.500000X0*%
%TD*%
%TA.AperFunction,ComponentPad*%
%ADD17C,2.000000*%
%TD*%
%TA.AperFunction,ComponentPad*%
%ADD18C,2.800000*%
%TD*%
%TA.AperFunction,ComponentPad*%
%ADD19C,1.524000*%
%TD*%
%TA.AperFunction,ComponentPad*%
%ADD20O,1.700000X3.000000*%
%TD*%
%TA.AperFunction,SMDPad,CuDef*%
%ADD21RoundRect,0.200000X0.275000X-0.200000X0.275000X0.200000X-0.275000X0.200000X-0.275000X-0.200000X0*%
%TD*%
%TA.AperFunction,ComponentPad*%
%ADD22RoundRect,0.381000X-0.381000X-0.381000X0.381000X-0.381000X0.381000X0.381000X-0.381000X0.381000X0*%
%TD*%
%TA.AperFunction,ViaPad*%
%ADD23C,0.800000*%
%TD*%
%TA.AperFunction,Conductor*%
%ADD24C,0.250000*%
%TD*%
%TA.AperFunction,Conductor*%
%ADD25C,0.200000*%
%TD*%
G04 APERTURE END LIST*
D10*
%TO.P,J2,1,Pin_1*%
%TO.N,/SDA*%
X106190000Y-110000000D03*
D11*
%TO.P,J2,2,Pin_2*%
%TO.N,/SCL*%
X108730000Y-110000000D03*
%TO.P,J2,3,Pin_3*%
%TO.N,VBUS*%
X111270000Y-110000000D03*
D12*
%TO.P,J2,4,Pin_4*%
%TO.N,GND*%
X113810000Y-110000000D03*
%TD*%
D13*
%TO.P,H1,1,1*%
%TO.N,/P0*%
X117800000Y-113500000D03*
%TD*%
%TO.P,H4,1,1*%
%TO.N,GND*%
X102500000Y-73500000D03*
%TD*%
D14*
%TO.P,R1,1*%
%TO.N,VBUS*%
X113500000Y-93140000D03*
%TO.P,R1,2*%
%TO.N,/SDA*%
X113500000Y-94790000D03*
%TD*%
D15*
%TO.P,SW1,1,1*%
%TO.N,GND*%
X118600000Y-116628000D03*
%TO.P,SW1,2,2*%
X118600000Y-121878000D03*
%TO.P,SW1,3,K*%
%TO.N,/RST*%
X116900000Y-116628000D03*
%TO.P,SW1,4,A*%
X116900000Y-121878000D03*
%TD*%
D16*
%TO.P,SW4,A,A*%
%TO.N,/EncB*%
X117500000Y-129000000D03*
D17*
%TO.P,SW4,B,B*%
%TO.N,/EncA*%
X117500000Y-124000000D03*
%TO.P,SW4,C,C*%
%TO.N,GND*%
X117500000Y-126500000D03*
D18*
%TO.P,SW4,MP*%
%TO.N,N/C*%
X110000000Y-132100000D03*
X110000000Y-120900000D03*
D17*
%TO.P,SW4,S1,S1*%
%TO.N,GND*%
X103000000Y-129000000D03*
%TO.P,SW4,S2,S2*%
%TO.N,/EncPB*%
X103000000Y-124000000D03*
%TD*%
D13*
%TO.P,H2,1,1*%
%TO.N,GND*%
X117500000Y-73500000D03*
%TD*%
D19*
%TO.P,J1,1,VBUS*%
%TO.N,VBUS*%
X113500000Y-134600000D03*
%TO.P,J1,2,D-*%
%TO.N,/D-*%
X111000000Y-134600000D03*
%TO.P,J1,3,D+*%
%TO.N,/D+*%
X109000000Y-134600000D03*
%TO.P,J1,4,GND*%
%TO.N,GND*%
X106500000Y-134600000D03*
D20*
%TO.P,J1,5,Shield*%
%TO.N,unconnected-(J1-Pad5)*%
X104150000Y-137000000D03*
X115850000Y-137000000D03*
%TD*%
D21*
%TO.P,R2,1*%
%TO.N,VBUS*%
X113500000Y-98980000D03*
%TO.P,R2,2*%
%TO.N,/SCL*%
X113500000Y-97330000D03*
%TD*%
D13*
%TO.P,H3,1,1*%
%TO.N,/P1*%
X102200000Y-113500000D03*
%TD*%
D15*
%TO.P,SW2,1,1*%
%TO.N,/S0*%
X103100000Y-116628000D03*
%TO.P,SW2,2,2*%
X103100000Y-121878000D03*
%TO.P,SW2,3,K*%
%TO.N,GND*%
X101400000Y-116628000D03*
%TO.P,SW2,4,A*%
X101400000Y-121878000D03*
%TD*%
D22*
%TO.P,U1,0,D-*%
%TO.N,/D-*%
X102380000Y-77010000D03*
D19*
%TO.P,U1,1,RAW*%
%TO.N,VBUS*%
X102380000Y-79550000D03*
%TO.P,U1,2,GND*%
%TO.N,GND*%
X102380000Y-82090000D03*
%TO.P,U1,3,RESET*%
%TO.N,/RST*%
X102380000Y-84630000D03*
%TO.P,U1,4,3V3*%
%TO.N,unconnected-(U1-Pad4)*%
X102380000Y-87170000D03*
%TO.P,U1,5,A3*%
%TO.N,/EncA*%
X102380000Y-89710000D03*
%TO.P,U1,6,A2*%
%TO.N,/EncB*%
X102380000Y-92250000D03*
%TO.P,U1,7,A1*%
%TO.N,/P0*%
X102380000Y-94790000D03*
%TO.P,U1,8,A0*%
%TO.N,/P1*%
X102380000Y-97330000D03*
%TO.P,U1,9,SCK*%
%TO.N,/EncPB*%
X102380000Y-99870000D03*
%TO.P,U1,10,MISO*%
%TO.N,unconnected-(U1-Pad10)*%
X102380000Y-102410000D03*
%TO.P,U1,11,MOSI*%
%TO.N,unconnected-(U1-Pad11)*%
X102380000Y-104950000D03*
%TO.P,U1,12,D10*%
%TO.N,unconnected-(U1-Pad12)*%
X102380000Y-107490000D03*
%TO.P,U1,13,D9*%
%TO.N,unconnected-(U1-Pad13)*%
X117620000Y-107490000D03*
%TO.P,U1,14,D8*%
%TO.N,unconnected-(U1-Pad14)*%
X117620000Y-104950000D03*
%TO.P,U1,15,D7*%
%TO.N,/S0*%
X117620000Y-102410000D03*
%TO.P,U1,16,D6*%
%TO.N,unconnected-(U1-Pad16)*%
X117620000Y-99870000D03*
%TO.P,U1,17,D5*%
%TO.N,/SCL*%
X117620000Y-97330000D03*
%TO.P,U1,18,D4*%
%TO.N,/SDA*%
X117620000Y-94790000D03*
%TO.P,U1,19,D3*%
%TO.N,unconnected-(U1-Pad19)*%
X117620000Y-92250000D03*
%TO.P,U1,20,D2*%
%TO.N,unconnected-(U1-Pad20)*%
X117620000Y-89710000D03*
%TO.P,U1,21,GND*%
%TO.N,GND*%
X117620000Y-87170000D03*
%TO.P,U1,22,GND*%
X117620000Y-84630000D03*
%TO.P,U1,23,D1*%
%TO.N,/LED*%
X117620000Y-82090000D03*
%TO.P,U1,24,D0*%
%TO.N,unconnected-(U1-Pad24)*%
X117620000Y-79550000D03*
%TO.P,U1,25,D+*%
%TO.N,/D+*%
X117620000Y-77010000D03*
%TD*%
D23*
%TO.N,VBUS*%
X111280000Y-93140000D03*
X111280000Y-98980000D03*
%TO.N,GND*%
X102500000Y-109500000D03*
X115500000Y-131500000D03*
X115000000Y-121500000D03*
X106500000Y-131500000D03*
X104500000Y-99000000D03*
X115500000Y-106000000D03*
X114000000Y-115000000D03*
X110000000Y-139500000D03*
X102000000Y-139500000D03*
X118000000Y-139500000D03*
X105410000Y-87170000D03*
X105000000Y-94000000D03*
X108500000Y-113000000D03*
X109000000Y-92000000D03*
X116500000Y-110000000D03*
X115000000Y-100500000D03*
X109500000Y-118500000D03*
X115000000Y-96000000D03*
X114500000Y-85000000D03*
X108000000Y-89000000D03*
X115000000Y-91000000D03*
X102000000Y-134000000D03*
X115000000Y-126500000D03*
X118500000Y-134000000D03*
X104500000Y-126500000D03*
%TO.N,/SDA*%
X110400000Y-94790000D03*
%TO.N,/SCL*%
X110400000Y-97330000D03*
%TO.N,/S0*%
X106650000Y-111800000D03*
X105550000Y-115750000D03*
%TO.N,/RST*%
X112522000Y-114300000D03*
X110792000Y-84630000D03*
%TO.N,/P0*%
X116205000Y-108712000D03*
X113665000Y-102870000D03*
%TO.N,/EncPB*%
X104648000Y-101600000D03*
%TO.N,/EncB*%
X107442000Y-127000000D03*
X107442000Y-97282000D03*
%TO.N,/EncA*%
X112268000Y-122936000D03*
X109982000Y-99949000D03*
%TD*%
D24*
%TO.N,VBUS*%
X113500000Y-93140000D02*
X111280000Y-93140000D01*
X113500000Y-98980000D02*
X111280000Y-98980000D01*
%TO.N,GND*%
X105410000Y-87170000D02*
X117620000Y-87170000D01*
%TO.N,/SDA*%
X117620000Y-94790000D02*
X110400000Y-94790000D01*
%TO.N,/SCL*%
X117620000Y-97330000D02*
X110400000Y-97330000D01*
%TO.N,/S0*%
X108600000Y-104200000D02*
X113298558Y-104200000D01*
X102500000Y-120429472D02*
X102500000Y-118076528D01*
X104672000Y-116628000D02*
X103100000Y-116628000D01*
X107450000Y-111000000D02*
X107450000Y-105350000D01*
X107450000Y-111000000D02*
G75*
G02*
X106650000Y-111800000I-800000J0D01*
G01*
X103199995Y-121455513D02*
G75*
G03*
X103375000Y-121878000I597505J13D01*
G01*
X117620012Y-102410012D02*
G75*
G02*
X113298558Y-104200000I-4321412J4321412D01*
G01*
X103099992Y-116627992D02*
G75*
G03*
X102500000Y-118076528I1448508J-1448508D01*
G01*
X102500012Y-120429472D02*
G75*
G03*
X103100000Y-121878000I2048488J-28D01*
G01*
X105550000Y-115750000D02*
G75*
G02*
X104672000Y-116628000I-878000J0D01*
G01*
X108600000Y-104200000D02*
G75*
G03*
X107450000Y-105350000I0J-1150000D01*
G01*
%TO.N,/RST*%
X116625000Y-116628000D02*
X114850000Y-116628000D01*
X117500000Y-118076528D02*
X117500000Y-120429472D01*
X110792000Y-84630000D02*
X102380000Y-84630000D01*
X117499988Y-118076528D02*
G75*
G03*
X116900000Y-116628000I-2048488J28D01*
G01*
X116840018Y-121358945D02*
G75*
G02*
X116625000Y-121878000I-734118J45D01*
G01*
X116900008Y-121878008D02*
G75*
G03*
X117500000Y-120429472I-1448508J1448508D01*
G01*
X112522000Y-114300000D02*
G75*
G03*
X114850000Y-116628000I2328000J0D01*
G01*
X116624987Y-116628013D02*
G75*
G02*
X116840000Y-117147055I-519087J-519087D01*
G01*
%TO.N,/P0*%
X117856000Y-109982000D02*
X117856000Y-113444000D01*
X102380000Y-94790000D02*
X103553000Y-94790000D01*
X105791000Y-97028000D02*
X105791000Y-99314000D01*
X116586000Y-108712000D02*
X116205000Y-108712000D01*
X108331000Y-101854000D02*
X112649000Y-101854000D01*
X113665000Y-102870000D02*
G75*
G03*
X112649000Y-101854000I-1016000J0D01*
G01*
X105791000Y-97028000D02*
G75*
G03*
X103553000Y-94790000I-2238000J0D01*
G01*
X117800000Y-113500000D02*
G75*
G03*
X117856000Y-113444000I0J56000D01*
G01*
X108331000Y-101854000D02*
G75*
G02*
X105791000Y-99314000I0J2540000D01*
G01*
X116586000Y-108712000D02*
G75*
G02*
X117856000Y-109982000I0J-1270000D01*
G01*
%TO.N,/EncPB*%
X102380000Y-99870000D02*
X102918000Y-99870000D01*
X104648000Y-101600000D02*
G75*
G03*
X102918000Y-99870000I-1730000J0D01*
G01*
%TO.N,/EncB*%
X117500000Y-129000000D02*
X109442000Y-129000000D01*
X107442000Y-97282000D02*
X107442000Y-95250000D01*
X104442000Y-92250000D02*
X102380000Y-92250000D01*
X104442000Y-92250000D02*
G75*
G02*
X107442000Y-95250000I0J-3000000D01*
G01*
X107442000Y-127000000D02*
G75*
G03*
X109442000Y-129000000I2000000J0D01*
G01*
%TO.N,/EncA*%
X108585000Y-97409000D02*
X109173777Y-97997777D01*
X107892000Y-94038000D02*
X107892000Y-95735951D01*
X117500000Y-124000000D02*
X116380000Y-124000000D01*
X102380000Y-89710000D02*
X103807000Y-89710000D01*
X116380000Y-124000000D02*
X115500000Y-124000000D01*
X102380000Y-89710000D02*
X103564000Y-89710000D01*
X113332000Y-124000000D02*
X116380000Y-124000000D01*
X109981984Y-99949000D02*
G75*
G03*
X109173777Y-97997777I-2759484J0D01*
G01*
X108585015Y-97408985D02*
G75*
G02*
X107892000Y-95735951I1673085J1673085D01*
G01*
X113332000Y-124000000D02*
G75*
G02*
X112268000Y-122936000I0J1064000D01*
G01*
X107892000Y-94038000D02*
G75*
G03*
X103564000Y-89710000I-4328000J0D01*
G01*
D25*
%TO.N,/D-*%
X111557538Y-134042462D02*
X111000000Y-134600000D01*
X102200000Y-111250000D02*
X103800000Y-111250000D01*
X100500000Y-109550000D02*
X100500000Y-79840819D01*
X109000000Y-130000000D02*
X110050000Y-130000000D01*
X106500000Y-113950000D02*
X106500000Y-127500000D01*
X101219000Y-78105000D02*
X102267330Y-77056670D01*
X106500000Y-113950000D02*
G75*
G03*
X103800000Y-111250000I-2700000J0D01*
G01*
X101218994Y-78104994D02*
G75*
G03*
X100500000Y-79840819I1735806J-1735806D01*
G01*
X109000000Y-130000000D02*
G75*
G02*
X106500000Y-127500000I0J2500000D01*
G01*
X100500000Y-109550000D02*
G75*
G03*
X102200000Y-111250000I1700000J0D01*
G01*
X112300000Y-132250000D02*
G75*
G03*
X110050000Y-130000000I-2250000J0D01*
G01*
X111557533Y-134042457D02*
G75*
G03*
X112300000Y-132250000I-1792433J1792457D01*
G01*
X102380000Y-77009989D02*
G75*
G03*
X102267330Y-77056670I0J-159311D01*
G01*
%TD*%
%TA.AperFunction,Conductor*%
%TO.N,GND*%
G36*
X117544032Y-73348002D02*
G01*
X117589095Y-73376963D01*
X119216137Y-75004005D01*
X119229898Y-75011519D01*
X119239259Y-75005061D01*
X119325905Y-74906261D01*
X119330921Y-74899724D01*
X119468735Y-74693470D01*
X119523212Y-74647942D01*
X119593655Y-74639094D01*
X119657699Y-74669735D01*
X119695010Y-74730137D01*
X119699500Y-74763472D01*
X119699500Y-111993791D01*
X119679498Y-112061912D01*
X119625842Y-112108405D01*
X119555568Y-112118509D01*
X119490988Y-112089015D01*
X119478768Y-112076869D01*
X119362036Y-111943762D01*
X119359327Y-111940673D01*
X119356238Y-111937964D01*
X119145554Y-111753198D01*
X119145548Y-111753194D01*
X119142454Y-111750480D01*
X119139028Y-111748191D01*
X119139023Y-111748187D01*
X118906044Y-111592516D01*
X118902611Y-111590222D01*
X118898912Y-111588398D01*
X118898907Y-111588395D01*
X118647597Y-111464463D01*
X118647595Y-111464462D01*
X118643902Y-111462641D01*
X118637083Y-111460326D01*
X118370753Y-111369919D01*
X118371072Y-111368979D01*
X118314269Y-111334359D01*
X118283245Y-111270499D01*
X118281500Y-111249600D01*
X118281500Y-110025406D01*
X118283051Y-110005695D01*
X118285253Y-109991792D01*
X118286804Y-109982000D01*
X118285253Y-109972206D01*
X118285253Y-109970714D01*
X118284645Y-109965415D01*
X118268850Y-109744577D01*
X118268529Y-109740089D01*
X118234994Y-109585931D01*
X118217933Y-109507499D01*
X118217931Y-109507492D01*
X118216976Y-109503102D01*
X118182712Y-109411235D01*
X118133792Y-109280077D01*
X118132221Y-109275865D01*
X118015989Y-109063002D01*
X117870647Y-108868847D01*
X117752912Y-108751112D01*
X117718886Y-108688800D01*
X117723951Y-108617985D01*
X117766498Y-108561149D01*
X117808123Y-108540659D01*
X117822972Y-108536513D01*
X118006085Y-108485387D01*
X118011589Y-108482607D01*
X118011591Y-108482606D01*
X118186570Y-108394218D01*
X118186572Y-108394217D01*
X118192071Y-108391439D01*
X118356266Y-108263156D01*
X118492417Y-108105423D01*
X118521576Y-108054094D01*
X118592294Y-107929610D01*
X118592296Y-107929606D01*
X118595339Y-107924249D01*
X118661109Y-107726534D01*
X118687225Y-107519810D01*
X118687641Y-107490000D01*
X118667308Y-107282627D01*
X118607083Y-107083154D01*
X118509261Y-106899176D01*
X118503590Y-106892222D01*
X118467427Y-106847882D01*
X118377567Y-106737704D01*
X118217017Y-106604885D01*
X118033728Y-106505781D01*
X117834679Y-106444165D01*
X117828554Y-106443521D01*
X117828553Y-106443521D01*
X117633582Y-106423029D01*
X117633580Y-106423029D01*
X117627453Y-106422385D01*
X117496739Y-106434281D01*
X117426085Y-106440711D01*
X117426084Y-106440711D01*
X117419944Y-106441270D01*
X117414030Y-106443011D01*
X117414028Y-106443011D01*
X117403917Y-106445987D01*
X117220055Y-106500101D01*
X117035399Y-106596636D01*
X116873011Y-106727200D01*
X116739075Y-106886818D01*
X116638693Y-107069411D01*
X116575690Y-107268025D01*
X116552463Y-107475093D01*
X116569899Y-107682730D01*
X116627333Y-107883025D01*
X116630153Y-107888512D01*
X116632418Y-107894233D01*
X116629921Y-107895222D01*
X116641099Y-107953525D01*
X116614647Y-108019410D01*
X116556774Y-108060535D01*
X116485854Y-108063843D01*
X116470528Y-108059055D01*
X116464586Y-108056774D01*
X116457881Y-108053224D01*
X116450523Y-108051376D01*
X116450521Y-108051375D01*
X116300810Y-108013770D01*
X116293441Y-108011919D01*
X116285843Y-108011879D01*
X116285841Y-108011879D01*
X116208668Y-108011475D01*
X116123895Y-108011031D01*
X116116508Y-108012805D01*
X116116504Y-108012805D01*
X115973162Y-108047220D01*
X115959032Y-108050612D01*
X115952288Y-108054093D01*
X115952285Y-108054094D01*
X115843805Y-108110085D01*
X115808369Y-108128375D01*
X115680604Y-108239831D01*
X115676237Y-108246045D01*
X115589331Y-108369700D01*
X115583113Y-108378547D01*
X115521524Y-108536513D01*
X115520532Y-108544046D01*
X115520532Y-108544047D01*
X115501476Y-108688800D01*
X115499394Y-108704611D01*
X115517999Y-108873135D01*
X115545392Y-108947989D01*
X115558542Y-108983922D01*
X115576266Y-109032356D01*
X115670830Y-109173083D01*
X115676442Y-109178190D01*
X115676445Y-109178193D01*
X115790612Y-109282077D01*
X115790616Y-109282080D01*
X115796233Y-109287191D01*
X115802906Y-109290814D01*
X115802910Y-109290817D01*
X115938558Y-109364467D01*
X115938560Y-109364468D01*
X115945235Y-109368092D01*
X115952584Y-109370020D01*
X116101883Y-109409188D01*
X116101885Y-109409188D01*
X116109233Y-109411116D01*
X116195609Y-109412473D01*
X116271161Y-109413660D01*
X116271164Y-109413660D01*
X116278760Y-109413779D01*
X116286165Y-109412083D01*
X116286166Y-109412083D01*
X116363191Y-109394442D01*
X116444029Y-109375928D01*
X116595498Y-109299747D01*
X116709921Y-109202020D01*
X116774708Y-109172990D01*
X116828325Y-109177258D01*
X116897299Y-109198181D01*
X116920118Y-109207633D01*
X116948777Y-109222951D01*
X117044234Y-109273974D01*
X117064771Y-109287697D01*
X117173558Y-109376976D01*
X117191024Y-109394442D01*
X117280303Y-109503229D01*
X117294026Y-109523766D01*
X117360367Y-109647881D01*
X117369816Y-109670691D01*
X117410672Y-109805375D01*
X117415489Y-109829596D01*
X117426881Y-109945261D01*
X117426380Y-109962291D01*
X117426747Y-109962291D01*
X117426747Y-109972206D01*
X117425196Y-109982000D01*
X117426747Y-109991792D01*
X117428949Y-110005695D01*
X117430500Y-110025406D01*
X117430500Y-111226481D01*
X117410498Y-111294602D01*
X117356842Y-111341095D01*
X117329082Y-111350060D01*
X117233288Y-111369115D01*
X117233285Y-111369116D01*
X117229247Y-111369919D01*
X117186455Y-111384445D01*
X116962918Y-111460326D01*
X116956098Y-111462641D01*
X116952405Y-111464462D01*
X116952403Y-111464463D01*
X116701093Y-111588395D01*
X116701088Y-111588398D01*
X116697389Y-111590222D01*
X116693956Y-111592516D01*
X116460977Y-111748187D01*
X116460972Y-111748191D01*
X116457546Y-111750480D01*
X116454452Y-111753194D01*
X116454446Y-111753198D01*
X116243762Y-111937964D01*
X116240673Y-111940673D01*
X116237964Y-111943762D01*
X116053198Y-112154446D01*
X116053194Y-112154452D01*
X116050480Y-112157546D01*
X116048191Y-112160972D01*
X116048187Y-112160977D01*
X115928189Y-112340567D01*
X115890222Y-112397389D01*
X115888398Y-112401088D01*
X115888395Y-112401093D01*
X115768738Y-112643735D01*
X115762641Y-112656098D01*
X115761318Y-112659996D01*
X115761317Y-112659998D01*
X115683812Y-112888321D01*
X115669919Y-112929247D01*
X115669115Y-112933291D01*
X115669113Y-112933297D01*
X115614448Y-113208118D01*
X115613644Y-113212161D01*
X115613375Y-113216272D01*
X115613374Y-113216276D01*
X115601829Y-113392419D01*
X115594778Y-113500000D01*
X115595048Y-113504119D01*
X115608732Y-113712892D01*
X115613644Y-113787839D01*
X115614448Y-113791879D01*
X115614448Y-113791882D01*
X115647955Y-113960330D01*
X115669919Y-114070753D01*
X115671245Y-114074659D01*
X115671246Y-114074663D01*
X115745230Y-114292611D01*
X115762641Y-114343902D01*
X115764462Y-114347595D01*
X115764463Y-114347597D01*
X115827345Y-114475108D01*
X115890222Y-114602611D01*
X115915169Y-114639947D01*
X116007169Y-114777634D01*
X116050480Y-114842454D01*
X116053194Y-114845548D01*
X116053198Y-114845554D01*
X116206386Y-115020230D01*
X116240673Y-115059327D01*
X116243762Y-115062036D01*
X116454446Y-115246802D01*
X116454452Y-115246806D01*
X116457546Y-115249520D01*
X116460970Y-115251808D01*
X116460977Y-115251813D01*
X116581573Y-115332392D01*
X116627101Y-115386869D01*
X116635949Y-115457312D01*
X116605308Y-115521356D01*
X116544906Y-115558667D01*
X116526710Y-115562244D01*
X116517453Y-115563364D01*
X116509925Y-115566344D01*
X116509923Y-115566345D01*
X116447839Y-115590926D01*
X116377217Y-115618887D01*
X116257078Y-115710078D01*
X116165887Y-115830217D01*
X116162725Y-115838204D01*
X116127780Y-115926466D01*
X116110364Y-115970453D01*
X116099500Y-116060228D01*
X116099500Y-116076500D01*
X116079498Y-116144621D01*
X116025842Y-116191114D01*
X115973500Y-116202500D01*
X114893406Y-116202500D01*
X114873695Y-116200949D01*
X114859794Y-116198747D01*
X114859793Y-116198747D01*
X114850000Y-116197196D01*
X114840202Y-116198748D01*
X114840180Y-116198748D01*
X114812266Y-116200027D01*
X114609916Y-116186764D01*
X114593576Y-116184613D01*
X114479636Y-116161949D01*
X114365692Y-116139284D01*
X114349782Y-116135021D01*
X114129767Y-116060336D01*
X114114542Y-116054030D01*
X113906154Y-115951264D01*
X113891882Y-115943024D01*
X113882223Y-115936570D01*
X113698695Y-115813941D01*
X113685624Y-115803912D01*
X113643830Y-115767259D01*
X113558219Y-115692181D01*
X113510938Y-115650716D01*
X113499284Y-115639062D01*
X113435513Y-115566345D01*
X113346085Y-115464372D01*
X113336059Y-115451305D01*
X113206976Y-115258118D01*
X113198736Y-115243846D01*
X113095970Y-115035458D01*
X113089663Y-115020230D01*
X113039094Y-114871258D01*
X113036138Y-114800323D01*
X113056084Y-114757231D01*
X113135930Y-114646113D01*
X113140361Y-114639947D01*
X113149187Y-114617993D01*
X113200766Y-114489687D01*
X113200767Y-114489685D01*
X113203601Y-114482634D01*
X113227490Y-114314778D01*
X113227645Y-114300000D01*
X113225840Y-114285080D01*
X113208188Y-114139220D01*
X113207276Y-114131680D01*
X113147345Y-113973077D01*
X113051312Y-113833349D01*
X113000233Y-113787839D01*
X112930392Y-113725612D01*
X112930388Y-113725610D01*
X112924721Y-113720560D01*
X112774881Y-113641224D01*
X112610441Y-113599919D01*
X112602843Y-113599879D01*
X112602841Y-113599879D01*
X112525668Y-113599475D01*
X112440895Y-113599031D01*
X112433508Y-113600805D01*
X112433504Y-113600805D01*
X112317088Y-113628755D01*
X112276032Y-113638612D01*
X112269288Y-113642093D01*
X112269285Y-113642094D01*
X112195003Y-113680434D01*
X112125369Y-113716375D01*
X111997604Y-113827831D01*
X111993237Y-113834045D01*
X111904860Y-113959793D01*
X111900113Y-113966547D01*
X111838524Y-114124513D01*
X111816394Y-114292611D01*
X111834999Y-114461135D01*
X111842867Y-114482634D01*
X111888029Y-114606044D01*
X111893266Y-114620356D01*
X111897502Y-114626659D01*
X111897502Y-114626660D01*
X111910574Y-114646113D01*
X111987830Y-114761083D01*
X111993442Y-114766190D01*
X111993445Y-114766193D01*
X112080662Y-114845554D01*
X112113233Y-114875191D01*
X112119908Y-114878815D01*
X112123442Y-114881327D01*
X112167380Y-114937094D01*
X112171524Y-114949149D01*
X112245939Y-115207446D01*
X112245942Y-115207456D01*
X112246922Y-115210856D01*
X112365273Y-115496581D01*
X112514871Y-115767259D01*
X112693835Y-116019484D01*
X112899913Y-116250087D01*
X113130516Y-116456165D01*
X113133397Y-116458209D01*
X113133398Y-116458210D01*
X113161289Y-116478000D01*
X113382741Y-116635129D01*
X113653419Y-116784727D01*
X113939144Y-116903078D01*
X114236323Y-116988694D01*
X114541220Y-117040498D01*
X114834209Y-117056952D01*
X114837018Y-117057253D01*
X114839563Y-117057253D01*
X114840560Y-117057309D01*
X114850000Y-117058804D01*
X114873696Y-117055051D01*
X114893406Y-117053500D01*
X115973500Y-117053500D01*
X116041621Y-117073502D01*
X116088114Y-117127158D01*
X116099500Y-117179500D01*
X116099500Y-117195772D01*
X116110364Y-117285547D01*
X116113344Y-117293075D01*
X116113345Y-117293077D01*
X116135457Y-117348924D01*
X116165887Y-117425783D01*
X116257078Y-117545922D01*
X116377217Y-117637113D01*
X116440832Y-117662300D01*
X116509923Y-117689655D01*
X116509925Y-117689656D01*
X116517453Y-117692636D01*
X116607228Y-117703500D01*
X116925141Y-117703500D01*
X116993262Y-117723502D01*
X117039755Y-117777158D01*
X117048720Y-117804919D01*
X117058995Y-117856576D01*
X117061146Y-117872919D01*
X117072018Y-118038841D01*
X117070747Y-118066587D01*
X117070747Y-118066729D01*
X117069196Y-118076522D01*
X117070747Y-118086315D01*
X117070747Y-118086316D01*
X117072949Y-118100220D01*
X117074500Y-118119929D01*
X117074500Y-118668174D01*
X117054498Y-118736295D01*
X117000842Y-118782788D01*
X116930568Y-118792892D01*
X116864683Y-118762252D01*
X116788348Y-118694240D01*
X116781638Y-118690687D01*
X116650566Y-118621288D01*
X116650564Y-118621287D01*
X116643855Y-118617735D01*
X116578631Y-118601352D01*
X116492655Y-118579756D01*
X116492651Y-118579756D01*
X116485284Y-118577905D01*
X116477685Y-118577865D01*
X116477683Y-118577865D01*
X116409653Y-118577509D01*
X116321790Y-118577049D01*
X116314410Y-118578821D01*
X116314408Y-118578821D01*
X116170189Y-118613444D01*
X116170185Y-118613445D01*
X116162810Y-118615216D01*
X116017524Y-118690204D01*
X116011804Y-118695194D01*
X116011800Y-118695197D01*
X115900044Y-118792688D01*
X115900041Y-118792691D01*
X115894319Y-118797683D01*
X115800307Y-118931448D01*
X115740917Y-119083776D01*
X115739926Y-119091303D01*
X115721231Y-119233306D01*
X115719576Y-119245874D01*
X115720363Y-119253000D01*
X115737518Y-119408384D01*
X115740127Y-119415515D01*
X115740128Y-119415517D01*
X115789429Y-119550237D01*
X115793705Y-119561923D01*
X115797941Y-119568226D01*
X115797941Y-119568227D01*
X115880660Y-119691327D01*
X115880663Y-119691330D01*
X115884894Y-119697627D01*
X115936300Y-119744403D01*
X115999645Y-119802042D01*
X116005822Y-119807663D01*
X116034410Y-119823185D01*
X116142829Y-119882052D01*
X116142831Y-119882053D01*
X116149506Y-119885677D01*
X116156855Y-119887605D01*
X116300301Y-119925237D01*
X116300303Y-119925237D01*
X116307651Y-119927165D01*
X116390932Y-119928473D01*
X116463529Y-119929614D01*
X116463532Y-119929614D01*
X116471128Y-119929733D01*
X116478533Y-119928037D01*
X116478534Y-119928037D01*
X116623097Y-119894928D01*
X116630498Y-119893233D01*
X116776561Y-119819770D01*
X116866670Y-119742810D01*
X116931460Y-119713779D01*
X117001660Y-119724384D01*
X117054982Y-119771259D01*
X117074500Y-119838621D01*
X117074500Y-120386071D01*
X117072949Y-120405779D01*
X117069196Y-120429478D01*
X117070748Y-120439276D01*
X117070748Y-120439301D01*
X117072027Y-120467211D01*
X117061157Y-120633084D01*
X117059006Y-120649424D01*
X117048732Y-120701079D01*
X117015826Y-120763990D01*
X116954131Y-120799122D01*
X116925153Y-120802500D01*
X116607228Y-120802500D01*
X116517453Y-120813364D01*
X116509925Y-120816344D01*
X116509923Y-120816345D01*
X116447839Y-120840926D01*
X116377217Y-120868887D01*
X116257078Y-120960078D01*
X116165887Y-121080217D01*
X116146187Y-121129973D01*
X116127780Y-121176466D01*
X116110364Y-121220453D01*
X116099500Y-121310228D01*
X116099500Y-122445772D01*
X116110364Y-122535547D01*
X116113344Y-122543075D01*
X116113345Y-122543077D01*
X116135457Y-122598924D01*
X116165887Y-122675783D01*
X116257078Y-122795922D01*
X116377217Y-122887113D01*
X116482902Y-122928956D01*
X116538874Y-122972629D01*
X116562350Y-123039632D01*
X116545876Y-123108690D01*
X116525612Y-123135202D01*
X116499953Y-123160861D01*
X116369432Y-123347266D01*
X116367111Y-123352244D01*
X116367109Y-123352247D01*
X116297394Y-123501750D01*
X116250476Y-123555035D01*
X116183199Y-123574500D01*
X113375406Y-123574500D01*
X113355695Y-123572949D01*
X113351566Y-123572295D01*
X113332000Y-123569196D01*
X113322207Y-123570747D01*
X113312291Y-123570747D01*
X113312291Y-123570007D01*
X113295474Y-123570384D01*
X113250618Y-123565330D01*
X113204027Y-123560080D01*
X113176522Y-123553803D01*
X113068363Y-123515957D01*
X113042946Y-123503717D01*
X112945918Y-123442749D01*
X112923861Y-123425158D01*
X112912956Y-123414253D01*
X112878930Y-123351941D01*
X112883995Y-123281126D01*
X112886368Y-123275950D01*
X112886361Y-123275947D01*
X112946766Y-123125687D01*
X112946767Y-123125685D01*
X112949601Y-123118634D01*
X112966450Y-123000245D01*
X112972909Y-122954862D01*
X112972909Y-122954859D01*
X112973490Y-122950778D01*
X112973562Y-122943932D01*
X112973602Y-122940135D01*
X112973602Y-122940129D01*
X112973645Y-122936000D01*
X112972793Y-122928955D01*
X112958417Y-122810165D01*
X112953276Y-122767680D01*
X112893345Y-122609077D01*
X112883193Y-122594306D01*
X112801614Y-122475608D01*
X112801613Y-122475607D01*
X112797312Y-122469349D01*
X112791119Y-122463831D01*
X112676392Y-122361612D01*
X112676388Y-122361610D01*
X112670721Y-122356560D01*
X112520881Y-122277224D01*
X112356441Y-122235919D01*
X112348843Y-122235879D01*
X112348841Y-122235879D01*
X112271668Y-122235475D01*
X112186895Y-122235031D01*
X112179508Y-122236805D01*
X112179504Y-122236805D01*
X112036162Y-122271220D01*
X112022032Y-122274612D01*
X112015288Y-122278093D01*
X112015285Y-122278094D01*
X111879212Y-122348327D01*
X111871369Y-122352375D01*
X111743604Y-122463831D01*
X111739237Y-122470045D01*
X111651905Y-122594306D01*
X111646113Y-122602547D01*
X111584524Y-122760513D01*
X111583532Y-122768046D01*
X111583532Y-122768047D01*
X111565529Y-122904800D01*
X111562394Y-122928611D01*
X111580999Y-123097135D01*
X111639266Y-123256356D01*
X111643502Y-123262659D01*
X111643502Y-123262660D01*
X111652433Y-123275950D01*
X111733830Y-123397083D01*
X111739442Y-123402190D01*
X111739445Y-123402193D01*
X111853612Y-123506077D01*
X111853616Y-123506080D01*
X111859233Y-123511191D01*
X111868013Y-123515958D01*
X111954155Y-123562729D01*
X112004621Y-123613075D01*
X112075752Y-123743342D01*
X112203435Y-123913907D01*
X112354093Y-124064565D01*
X112524658Y-124192248D01*
X112711659Y-124294358D01*
X112715871Y-124295929D01*
X112907079Y-124367247D01*
X112907085Y-124367249D01*
X112911287Y-124368816D01*
X112915673Y-124369770D01*
X112915676Y-124369771D01*
X113036678Y-124396093D01*
X113119481Y-124414105D01*
X113123969Y-124414426D01*
X113309359Y-124427686D01*
X113320078Y-124428916D01*
X113332000Y-124430804D01*
X113355696Y-124427051D01*
X113375406Y-124425500D01*
X116183199Y-124425500D01*
X116251320Y-124445502D01*
X116297394Y-124498250D01*
X116369432Y-124652734D01*
X116499953Y-124839139D01*
X116660861Y-125000047D01*
X116665373Y-125003206D01*
X116784325Y-125086497D01*
X116828654Y-125141954D01*
X116835963Y-125212573D01*
X116803933Y-125275934D01*
X116770235Y-125301474D01*
X116756004Y-125308882D01*
X116747274Y-125314380D01*
X116635672Y-125398174D01*
X116627218Y-125409500D01*
X116633964Y-125421832D01*
X117487188Y-126275056D01*
X117501132Y-126282670D01*
X117502965Y-126282539D01*
X117509580Y-126278288D01*
X118365471Y-125422397D01*
X118372492Y-125409540D01*
X118364719Y-125398873D01*
X118281460Y-125333118D01*
X118272876Y-125327415D01*
X118225374Y-125301192D01*
X118175403Y-125250759D01*
X118160632Y-125181316D01*
X118185749Y-125114911D01*
X118213998Y-125087671D01*
X118334627Y-125003206D01*
X118339139Y-125000047D01*
X118500047Y-124839139D01*
X118630568Y-124652734D01*
X118726739Y-124446496D01*
X118768082Y-124292203D01*
X118784211Y-124232007D01*
X118784211Y-124232005D01*
X118785635Y-124226692D01*
X118805468Y-124000000D01*
X118785635Y-123773308D01*
X118784211Y-123767993D01*
X118728162Y-123558814D01*
X118728161Y-123558812D01*
X118726739Y-123553504D01*
X118709231Y-123515958D01*
X118632891Y-123352247D01*
X118632889Y-123352244D01*
X118630568Y-123347266D01*
X118500047Y-123160861D01*
X118485900Y-123146714D01*
X118451874Y-123084402D01*
X118451875Y-123053000D01*
X118450000Y-123053000D01*
X118450000Y-120721115D01*
X118445525Y-120705876D01*
X118444135Y-120704671D01*
X118436452Y-120703000D01*
X118286828Y-120703000D01*
X118281901Y-120703193D01*
X118253919Y-120705396D01*
X118241332Y-120707695D01*
X118097415Y-120749506D01*
X118094076Y-120750951D01*
X118091236Y-120751302D01*
X118089802Y-120751718D01*
X118089735Y-120751487D01*
X118023614Y-120759646D01*
X117959637Y-120728866D01*
X117922456Y-120668383D01*
X117918237Y-120628249D01*
X117928068Y-120453164D01*
X117928270Y-120449565D01*
X117929253Y-120440381D01*
X117929253Y-120439261D01*
X117930804Y-120429466D01*
X117927052Y-120405779D01*
X117925500Y-120386066D01*
X117925500Y-118119934D01*
X117927052Y-118100221D01*
X117929252Y-118086330D01*
X117930804Y-118076534D01*
X117929253Y-118066741D01*
X117929253Y-118065677D01*
X117928250Y-118056304D01*
X117918225Y-117877745D01*
X117934377Y-117808610D01*
X117985342Y-117759183D01*
X118054939Y-117745155D01*
X118094072Y-117755047D01*
X118097415Y-117756494D01*
X118241332Y-117798305D01*
X118253919Y-117800604D01*
X118281901Y-117802807D01*
X118286827Y-117803000D01*
X118431885Y-117803000D01*
X118447124Y-117798525D01*
X118448329Y-117797135D01*
X118450000Y-117789452D01*
X118450000Y-116604000D01*
X118470002Y-116535879D01*
X118523658Y-116489386D01*
X118576000Y-116478000D01*
X118624000Y-116478000D01*
X118692121Y-116498002D01*
X118738614Y-116551658D01*
X118750000Y-116604000D01*
X118750000Y-117784885D01*
X118754475Y-117800124D01*
X118755865Y-117801329D01*
X118763548Y-117803000D01*
X118913173Y-117803000D01*
X118918099Y-117802807D01*
X118946081Y-117800604D01*
X118958668Y-117798305D01*
X119102585Y-117756494D01*
X119117024Y-117750245D01*
X119244729Y-117674721D01*
X119257165Y-117665074D01*
X119362074Y-117560165D01*
X119371721Y-117547729D01*
X119447245Y-117420024D01*
X119456643Y-117398308D01*
X119458747Y-117399218D01*
X119490714Y-117349161D01*
X119555210Y-117319483D01*
X119625513Y-117329384D01*
X119679302Y-117375723D01*
X119699500Y-117444148D01*
X119699500Y-118601352D01*
X119679498Y-118669473D01*
X119625842Y-118715966D01*
X119555568Y-118726070D01*
X119501981Y-118701144D01*
X119500255Y-118703627D01*
X119494019Y-118699292D01*
X119488348Y-118694240D01*
X119481638Y-118690687D01*
X119350566Y-118621288D01*
X119350564Y-118621287D01*
X119343855Y-118617735D01*
X119278631Y-118601352D01*
X119192655Y-118579756D01*
X119192651Y-118579756D01*
X119185284Y-118577905D01*
X119177685Y-118577865D01*
X119177683Y-118577865D01*
X119109653Y-118577509D01*
X119021790Y-118577049D01*
X119014410Y-118578821D01*
X119014408Y-118578821D01*
X118870189Y-118613444D01*
X118870185Y-118613445D01*
X118862810Y-118615216D01*
X118717524Y-118690204D01*
X118711804Y-118695194D01*
X118711800Y-118695197D01*
X118600044Y-118792688D01*
X118600041Y-118792691D01*
X118594319Y-118797683D01*
X118500307Y-118931448D01*
X118440917Y-119083776D01*
X118439926Y-119091303D01*
X118421231Y-119233306D01*
X118419576Y-119245874D01*
X118420363Y-119253000D01*
X118437518Y-119408384D01*
X118440127Y-119415515D01*
X118440128Y-119415517D01*
X118489429Y-119550237D01*
X118493705Y-119561923D01*
X118497941Y-119568226D01*
X118497941Y-119568227D01*
X118580660Y-119691327D01*
X118580663Y-119691330D01*
X118584894Y-119697627D01*
X118636300Y-119744403D01*
X118699645Y-119802042D01*
X118705822Y-119807663D01*
X118734410Y-119823185D01*
X118842829Y-119882052D01*
X118842831Y-119882053D01*
X118849506Y-119885677D01*
X118856855Y-119887605D01*
X119000301Y-119925237D01*
X119000303Y-119925237D01*
X119007651Y-119927165D01*
X119090932Y-119928473D01*
X119163529Y-119929614D01*
X119163532Y-119929614D01*
X119171128Y-119929733D01*
X119178533Y-119928037D01*
X119178534Y-119928037D01*
X119323097Y-119894928D01*
X119330498Y-119893233D01*
X119476561Y-119819770D01*
X119491671Y-119806865D01*
X119556461Y-119777834D01*
X119626661Y-119788441D01*
X119679982Y-119835316D01*
X119699500Y-119902677D01*
X119699500Y-121061852D01*
X119679498Y-121129973D01*
X119625842Y-121176466D01*
X119555568Y-121186570D01*
X119490988Y-121157076D01*
X119458762Y-121106775D01*
X119456643Y-121107692D01*
X119447245Y-121085976D01*
X119371721Y-120958271D01*
X119362074Y-120945835D01*
X119257165Y-120840926D01*
X119244729Y-120831279D01*
X119117024Y-120755755D01*
X119102585Y-120749506D01*
X118958668Y-120707695D01*
X118946081Y-120705396D01*
X118918099Y-120703193D01*
X118913172Y-120703000D01*
X118768115Y-120703000D01*
X118752876Y-120707475D01*
X118751671Y-120708865D01*
X118750000Y-120716548D01*
X118750000Y-123034885D01*
X118754475Y-123050124D01*
X118755865Y-123051329D01*
X118763548Y-123053000D01*
X118913173Y-123053000D01*
X118918099Y-123052807D01*
X118946081Y-123050604D01*
X118958668Y-123048305D01*
X119102585Y-123006494D01*
X119117024Y-123000245D01*
X119244729Y-122924721D01*
X119257165Y-122915074D01*
X119362074Y-122810165D01*
X119371721Y-122797729D01*
X119447245Y-122670024D01*
X119456643Y-122648308D01*
X119458747Y-122649218D01*
X119490714Y-122599161D01*
X119555210Y-122569483D01*
X119625513Y-122579384D01*
X119679302Y-122625723D01*
X119699500Y-122694148D01*
X119699500Y-138962683D01*
X119697586Y-138984563D01*
X119694864Y-139000000D01*
X119696778Y-139010855D01*
X119696778Y-139021878D01*
X119696413Y-139021878D01*
X119697051Y-139034236D01*
X119682845Y-139232877D01*
X119680287Y-139250669D01*
X119643697Y-139418867D01*
X119632574Y-139469996D01*
X119627510Y-139487244D01*
X119549069Y-139697556D01*
X119541600Y-139713910D01*
X119434029Y-139910910D01*
X119424310Y-139926033D01*
X119289794Y-140105725D01*
X119278021Y-140119311D01*
X119119311Y-140278021D01*
X119105725Y-140289794D01*
X118926033Y-140424310D01*
X118910913Y-140434027D01*
X118713906Y-140541602D01*
X118697560Y-140549067D01*
X118527627Y-140612448D01*
X118487244Y-140627510D01*
X118469995Y-140632574D01*
X118250669Y-140680287D01*
X118232881Y-140682844D01*
X118130210Y-140690187D01*
X118034236Y-140697051D01*
X118021878Y-140696413D01*
X118021878Y-140696778D01*
X118010855Y-140696778D01*
X118000000Y-140694864D01*
X117989145Y-140696778D01*
X117984563Y-140697586D01*
X117962683Y-140699500D01*
X102037317Y-140699500D01*
X102015437Y-140697586D01*
X102010855Y-140696778D01*
X102000000Y-140694864D01*
X101989145Y-140696778D01*
X101978122Y-140696778D01*
X101978122Y-140696413D01*
X101965764Y-140697051D01*
X101869790Y-140690187D01*
X101767119Y-140682844D01*
X101749331Y-140680287D01*
X101530005Y-140632574D01*
X101512756Y-140627510D01*
X101472373Y-140612448D01*
X101302440Y-140549067D01*
X101286094Y-140541602D01*
X101089087Y-140434027D01*
X101073967Y-140424310D01*
X100894275Y-140289794D01*
X100880689Y-140278021D01*
X100721979Y-140119311D01*
X100710206Y-140105725D01*
X100575690Y-139926033D01*
X100565971Y-139910910D01*
X100458400Y-139713910D01*
X100450931Y-139697556D01*
X100372490Y-139487244D01*
X100367426Y-139469996D01*
X100356303Y-139418867D01*
X100319713Y-139250669D01*
X100317155Y-139232877D01*
X100302949Y-139034236D01*
X100303587Y-139021878D01*
X100303222Y-139021878D01*
X100303222Y-139010855D01*
X100305136Y-139000000D01*
X100302414Y-138984563D01*
X100300500Y-138962683D01*
X100300500Y-137703641D01*
X102999500Y-137703641D01*
X103013919Y-137860560D01*
X103071314Y-138064069D01*
X103073867Y-138069247D01*
X103073869Y-138069251D01*
X103085169Y-138092164D01*
X103164835Y-138253710D01*
X103291349Y-138423133D01*
X103446619Y-138566663D01*
X103625446Y-138679495D01*
X103821840Y-138757848D01*
X103827497Y-138758973D01*
X103827503Y-138758975D01*
X104023558Y-138797972D01*
X104023560Y-138797972D01*
X104029225Y-138799099D01*
X104035000Y-138799175D01*
X104035004Y-138799175D01*
X104141024Y-138800563D01*
X104240654Y-138801867D01*
X104256321Y-138799175D01*
X104443350Y-138767038D01*
X104443351Y-138767038D01*
X104449047Y-138766059D01*
X104647425Y-138692873D01*
X104666316Y-138681634D01*
X104824179Y-138587716D01*
X104824180Y-138587715D01*
X104829144Y-138584762D01*
X104988119Y-138445345D01*
X105119024Y-138279292D01*
X105130049Y-138258338D01*
X105214785Y-138097280D01*
X105217477Y-138092164D01*
X105280180Y-137890227D01*
X105290800Y-137800500D01*
X105300064Y-137722232D01*
X105300064Y-137722225D01*
X105300500Y-137718545D01*
X105300500Y-136994376D01*
X106944455Y-136994376D01*
X106963227Y-137172983D01*
X107021103Y-137342993D01*
X107115206Y-137495955D01*
X107120132Y-137500986D01*
X107120135Y-137500989D01*
X107123838Y-137504770D01*
X107240859Y-137624268D01*
X107246784Y-137628087D01*
X107246786Y-137628088D01*
X107368507Y-137706532D01*
X107391817Y-137721554D01*
X107398437Y-137723963D01*
X107398440Y-137723965D01*
X107553961Y-137780570D01*
X107553964Y-137780571D01*
X107560578Y-137782978D01*
X107587121Y-137786331D01*
X107695355Y-137800004D01*
X107695358Y-137800004D01*
X107699283Y-137800500D01*
X107795155Y-137800500D01*
X107928472Y-137785546D01*
X107935847Y-137782978D01*
X108003451Y-137759436D01*
X108098073Y-137726485D01*
X108104880Y-137722232D01*
X108244401Y-137635049D01*
X108250375Y-137631316D01*
X108314365Y-137567771D01*
X108372810Y-137509733D01*
X108372813Y-137509729D01*
X108377807Y-137504770D01*
X108474037Y-137353136D01*
X108484643Y-137323352D01*
X108531919Y-137190586D01*
X108531920Y-137190581D01*
X108534281Y-137183951D01*
X108535114Y-137176965D01*
X108535115Y-137176961D01*
X108554711Y-137012617D01*
X108555545Y-137005624D01*
X108554363Y-136994376D01*
X111444455Y-136994376D01*
X111463227Y-137172983D01*
X111521103Y-137342993D01*
X111615206Y-137495955D01*
X111620132Y-137500986D01*
X111620135Y-137500989D01*
X111623838Y-137504770D01*
X111740859Y-137624268D01*
X111746784Y-137628087D01*
X111746786Y-137628088D01*
X111868507Y-137706532D01*
X111891817Y-137721554D01*
X111898437Y-137723963D01*
X111898440Y-137723965D01*
X112053961Y-137780570D01*
X112053964Y-137780571D01*
X112060578Y-137782978D01*
X112087121Y-137786331D01*
X112195355Y-137800004D01*
X112195358Y-137800004D01*
X112199283Y-137800500D01*
X112295155Y-137800500D01*
X112428472Y-137785546D01*
X112435847Y-137782978D01*
X112503451Y-137759436D01*
X112598073Y-137726485D01*
X112604880Y-137722232D01*
X112634632Y-137703641D01*
X114699500Y-137703641D01*
X114713919Y-137860560D01*
X114771314Y-138064069D01*
X114773867Y-138069247D01*
X114773869Y-138069251D01*
X114785169Y-138092164D01*
X114864835Y-138253710D01*
X114991349Y-138423133D01*
X115146619Y-138566663D01*
X115325446Y-138679495D01*
X115521840Y-138757848D01*
X115527497Y-138758973D01*
X115527503Y-138758975D01*
X115723558Y-138797972D01*
X115723560Y-138797972D01*
X115729225Y-138799099D01*
X115735000Y-138799175D01*
X115735004Y-138799175D01*
X115841024Y-138800563D01*
X115940654Y-138801867D01*
X115956321Y-138799175D01*
X116143350Y-138767038D01*
X116143351Y-138767038D01*
X116149047Y-138766059D01*
X116347425Y-138692873D01*
X116366316Y-138681634D01*
X116524179Y-138587716D01*
X116524180Y-138587715D01*
X116529144Y-138584762D01*
X116688119Y-138445345D01*
X116819024Y-138279292D01*
X116830049Y-138258338D01*
X116914785Y-138097280D01*
X116917477Y-138092164D01*
X116980180Y-137890227D01*
X116990800Y-137800500D01*
X117000064Y-137722232D01*
X117000064Y-137722225D01*
X117000500Y-137718545D01*
X117000500Y-136296359D01*
X116986081Y-136139440D01*
X116928686Y-135935931D01*
X116917553Y-135913354D01*
X116837719Y-135751469D01*
X116835165Y-135746290D01*
X116708651Y-135576867D01*
X116553381Y-135433337D01*
X116374554Y-135320505D01*
X116178160Y-135242152D01*
X116172503Y-135241027D01*
X116172497Y-135241025D01*
X115976442Y-135202028D01*
X115976440Y-135202028D01*
X115970775Y-135200901D01*
X115965000Y-135200825D01*
X115964996Y-135200825D01*
X115858976Y-135199437D01*
X115759346Y-135198133D01*
X115753649Y-135199112D01*
X115753648Y-135199112D01*
X115556650Y-135232962D01*
X115556649Y-135232962D01*
X115550953Y-135233941D01*
X115352575Y-135307127D01*
X115347614Y-135310079D01*
X115347613Y-135310079D01*
X115249433Y-135368490D01*
X115170856Y-135415238D01*
X115011881Y-135554655D01*
X114880976Y-135720708D01*
X114878287Y-135725819D01*
X114878285Y-135725822D01*
X114857593Y-135765152D01*
X114782523Y-135907836D01*
X114719820Y-136109773D01*
X114719141Y-136115510D01*
X114699998Y-136277249D01*
X114699500Y-136281455D01*
X114699500Y-137703641D01*
X112634632Y-137703641D01*
X112744401Y-137635049D01*
X112750375Y-137631316D01*
X112814365Y-137567771D01*
X112872810Y-137509733D01*
X112872813Y-137509729D01*
X112877807Y-137504770D01*
X112974037Y-137353136D01*
X112984643Y-137323352D01*
X113031919Y-137190586D01*
X113031920Y-137190581D01*
X113034281Y-137183951D01*
X113035114Y-137176965D01*
X113035115Y-137176961D01*
X113054711Y-137012617D01*
X113055545Y-137005624D01*
X113036773Y-136827017D01*
X112978897Y-136657007D01*
X112884794Y-136504045D01*
X112879868Y-136499014D01*
X112879865Y-136499011D01*
X112819024Y-136436883D01*
X112759141Y-136375732D01*
X112742413Y-136364951D01*
X112614109Y-136282265D01*
X112608183Y-136278446D01*
X112601563Y-136276037D01*
X112601560Y-136276035D01*
X112446039Y-136219430D01*
X112446036Y-136219429D01*
X112439422Y-136217022D01*
X112382692Y-136209856D01*
X112304645Y-136199996D01*
X112304642Y-136199996D01*
X112300717Y-136199500D01*
X112204845Y-136199500D01*
X112071528Y-136214454D01*
X112064875Y-136216771D01*
X112064874Y-136216771D01*
X111996549Y-136240564D01*
X111901927Y-136273515D01*
X111895953Y-136277248D01*
X111895951Y-136277249D01*
X111865369Y-136296359D01*
X111749625Y-136368684D01*
X111685635Y-136432229D01*
X111627190Y-136490267D01*
X111627187Y-136490271D01*
X111622193Y-136495230D01*
X111525963Y-136646864D01*
X111523598Y-136653506D01*
X111468081Y-136809414D01*
X111468080Y-136809419D01*
X111465719Y-136816049D01*
X111464886Y-136823035D01*
X111464885Y-136823039D01*
X111449648Y-136950823D01*
X111444455Y-136994376D01*
X108554363Y-136994376D01*
X108536773Y-136827017D01*
X108478897Y-136657007D01*
X108384794Y-136504045D01*
X108379868Y-136499014D01*
X108379865Y-136499011D01*
X108319024Y-136436883D01*
X108259141Y-136375732D01*
X108242413Y-136364951D01*
X108114109Y-136282265D01*
X108108183Y-136278446D01*
X108101563Y-136276037D01*
X108101560Y-136276035D01*
X107946039Y-136219430D01*
X107946036Y-136219429D01*
X107939422Y-136217022D01*
X107882692Y-136209856D01*
X107804645Y-136199996D01*
X107804642Y-136199996D01*
X107800717Y-136199500D01*
X107704845Y-136199500D01*
X107571528Y-136214454D01*
X107564875Y-136216771D01*
X107564874Y-136216771D01*
X107496549Y-136240564D01*
X107401927Y-136273515D01*
X107395953Y-136277248D01*
X107395951Y-136277249D01*
X107365369Y-136296359D01*
X107249625Y-136368684D01*
X107185635Y-136432229D01*
X107127190Y-136490267D01*
X107127187Y-136490271D01*
X107122193Y-136495230D01*
X107025963Y-136646864D01*
X107023598Y-136653506D01*
X106968081Y-136809414D01*
X106968080Y-136809419D01*
X106965719Y-136816049D01*
X106964886Y-136823035D01*
X106964885Y-136823039D01*
X106949648Y-136950823D01*
X106944455Y-136994376D01*
X105300500Y-136994376D01*
X105300500Y-136296359D01*
X105286081Y-136139440D01*
X105228686Y-135935931D01*
X105217553Y-135913354D01*
X105137719Y-135751469D01*
X105135165Y-135746290D01*
X105008651Y-135576867D01*
X104948557Y-135521317D01*
X105795965Y-135521317D01*
X105805847Y-135533806D01*
X105938362Y-135622350D01*
X105948472Y-135627840D01*
X106134077Y-135707582D01*
X106145020Y-135711137D01*
X106342042Y-135755719D01*
X106353452Y-135757221D01*
X106555307Y-135765152D01*
X106566789Y-135764550D01*
X106766712Y-135735563D01*
X106777894Y-135732878D01*
X106969185Y-135667943D01*
X106979688Y-135663267D01*
X107155950Y-135564556D01*
X107165422Y-135558046D01*
X107195435Y-135533084D01*
X107203889Y-135520496D01*
X107197717Y-135509849D01*
X106512812Y-134824944D01*
X106498868Y-134817330D01*
X106497035Y-134817461D01*
X106490420Y-134821712D01*
X105802161Y-135509971D01*
X105795965Y-135521317D01*
X104948557Y-135521317D01*
X104853381Y-135433337D01*
X104674554Y-135320505D01*
X104478160Y-135242152D01*
X104472503Y-135241027D01*
X104472497Y-135241025D01*
X104276442Y-135202028D01*
X104276440Y-135202028D01*
X104270775Y-135200901D01*
X104265000Y-135200825D01*
X104264996Y-135200825D01*
X104158976Y-135199437D01*
X104059346Y-135198133D01*
X104053649Y-135199112D01*
X104053648Y-135199112D01*
X103856650Y-135232962D01*
X103856649Y-135232962D01*
X103850953Y-135233941D01*
X103652575Y-135307127D01*
X103647614Y-135310079D01*
X103647613Y-135310079D01*
X103549433Y-135368490D01*
X103470856Y-135415238D01*
X103311881Y-135554655D01*
X103180976Y-135720708D01*
X103178287Y-135725819D01*
X103178285Y-135725822D01*
X103157593Y-135765152D01*
X103082523Y-135907836D01*
X103019820Y-136109773D01*
X103019141Y-136115510D01*
X102999998Y-136277249D01*
X102999500Y-136281455D01*
X102999500Y-137703641D01*
X100300500Y-137703641D01*
X100300500Y-134575218D01*
X105333800Y-134575218D01*
X105347011Y-134776789D01*
X105348811Y-134788156D01*
X105398537Y-134983950D01*
X105402375Y-134994788D01*
X105486949Y-135178244D01*
X105492700Y-135188205D01*
X105567944Y-135294673D01*
X105578534Y-135303062D01*
X105591834Y-135296034D01*
X106275056Y-134612812D01*
X106281434Y-134601132D01*
X106717330Y-134601132D01*
X106717461Y-134602965D01*
X106721712Y-134609580D01*
X107408686Y-135296554D01*
X107421994Y-135303821D01*
X107432033Y-135296699D01*
X107458046Y-135265422D01*
X107464556Y-135255950D01*
X107563267Y-135079688D01*
X107567943Y-135069185D01*
X107632878Y-134877894D01*
X107635563Y-134866712D01*
X107664846Y-134664749D01*
X107665476Y-134657366D01*
X107666881Y-134603704D01*
X107666638Y-134596305D01*
X107647966Y-134393092D01*
X107645868Y-134381771D01*
X107591038Y-134187357D01*
X107586913Y-134176610D01*
X107497566Y-133995435D01*
X107491556Y-133985628D01*
X107431835Y-133905651D01*
X107420577Y-133897202D01*
X107408158Y-133903974D01*
X106724944Y-134587188D01*
X106717330Y-134601132D01*
X106281434Y-134601132D01*
X106282670Y-134598868D01*
X106282539Y-134597035D01*
X106278288Y-134590420D01*
X105591848Y-133903980D01*
X105579007Y-133896968D01*
X105568318Y-133904763D01*
X105524868Y-133959880D01*
X105518597Y-133969536D01*
X105424546Y-134148298D01*
X105420138Y-134158941D01*
X105360235Y-134351857D01*
X105357845Y-134363101D01*
X105334101Y-134563717D01*
X105333800Y-134575218D01*
X100300500Y-134575218D01*
X100300500Y-133678699D01*
X105794763Y-133678699D01*
X105800596Y-133688464D01*
X106487188Y-134375056D01*
X106501132Y-134382670D01*
X106502965Y-134382539D01*
X106509580Y-134378288D01*
X107199305Y-133688563D01*
X107206919Y-133674619D01*
X107206882Y-133674102D01*
X107204377Y-133670367D01*
X107034680Y-133563296D01*
X107024436Y-133558076D01*
X106836808Y-133483220D01*
X106825770Y-133479950D01*
X106627650Y-133440542D01*
X106616203Y-133439339D01*
X106414222Y-133436695D01*
X106402742Y-133437598D01*
X106203661Y-133471807D01*
X106192541Y-133474787D01*
X106003019Y-133544705D01*
X105992641Y-133549655D01*
X105819034Y-133652940D01*
X105809725Y-133659704D01*
X105803159Y-133665463D01*
X105794763Y-133678699D01*
X100300500Y-133678699D01*
X100300500Y-130090960D01*
X102127206Y-130090960D01*
X102134350Y-130101020D01*
X102190267Y-130147443D01*
X102198698Y-130153348D01*
X102388549Y-130264288D01*
X102397832Y-130268735D01*
X102603243Y-130347174D01*
X102613141Y-130350050D01*
X102828605Y-130393886D01*
X102838833Y-130395105D01*
X103058562Y-130403163D01*
X103068848Y-130402696D01*
X103286946Y-130374757D01*
X103297024Y-130372615D01*
X103507625Y-130309431D01*
X103517223Y-130305670D01*
X103714682Y-130208936D01*
X103723520Y-130203667D01*
X103865206Y-130102604D01*
X103873606Y-130091904D01*
X103866619Y-130078751D01*
X103012812Y-129224944D01*
X102998868Y-129217330D01*
X102997035Y-129217461D01*
X102990420Y-129221712D01*
X102134465Y-130077667D01*
X102127206Y-130090960D01*
X100300500Y-130090960D01*
X100300500Y-128970834D01*
X101595918Y-128970834D01*
X101608575Y-129190341D01*
X101610011Y-129200562D01*
X101658349Y-129415050D01*
X101661428Y-129424878D01*
X101744153Y-129628605D01*
X101748796Y-129637796D01*
X101863688Y-129825282D01*
X101869764Y-129833584D01*
X101897135Y-129865182D01*
X101910219Y-129873593D01*
X101920192Y-129867676D01*
X102775056Y-129012812D01*
X102781434Y-129001132D01*
X103217330Y-129001132D01*
X103217461Y-129002965D01*
X103221712Y-129009580D01*
X104079073Y-129866941D01*
X104091083Y-129873500D01*
X104102823Y-129864532D01*
X104201129Y-129727723D01*
X104206440Y-129718885D01*
X104303854Y-129521782D01*
X104307653Y-129512187D01*
X104371568Y-129301821D01*
X104373747Y-129291740D01*
X104402684Y-129071945D01*
X104403203Y-129065272D01*
X104404716Y-129003365D01*
X104404522Y-128996646D01*
X104386359Y-128775721D01*
X104384674Y-128765541D01*
X104331111Y-128552300D01*
X104327786Y-128542534D01*
X104240118Y-128340911D01*
X104235240Y-128331814D01*
X104115818Y-128147214D01*
X104109526Y-128139044D01*
X104104358Y-128133364D01*
X104090793Y-128125105D01*
X104090538Y-128125111D01*
X104081523Y-128130609D01*
X103224944Y-128987188D01*
X103217330Y-129001132D01*
X102781434Y-129001132D01*
X102782670Y-128998868D01*
X102782539Y-128997035D01*
X102778288Y-128990420D01*
X101919268Y-128131400D01*
X101907732Y-128125100D01*
X101895449Y-128134723D01*
X101781447Y-128301842D01*
X101776359Y-128310798D01*
X101683786Y-128510231D01*
X101680223Y-128519918D01*
X101621467Y-128731783D01*
X101619536Y-128741904D01*
X101596169Y-128960546D01*
X101595918Y-128970834D01*
X100300500Y-128970834D01*
X100300500Y-127909500D01*
X102127218Y-127909500D01*
X102133964Y-127921832D01*
X102987188Y-128775056D01*
X103001132Y-128782670D01*
X103002965Y-128782539D01*
X103009580Y-128778288D01*
X103865471Y-127922397D01*
X103872492Y-127909540D01*
X103864719Y-127898873D01*
X103781460Y-127833118D01*
X103772876Y-127827415D01*
X103580393Y-127721158D01*
X103570981Y-127716928D01*
X103363725Y-127643534D01*
X103353755Y-127640900D01*
X103137293Y-127602344D01*
X103127039Y-127601374D01*
X102907176Y-127598687D01*
X102896891Y-127599407D01*
X102679553Y-127632664D01*
X102669526Y-127635053D01*
X102460538Y-127703360D01*
X102451029Y-127707357D01*
X102256009Y-127808879D01*
X102247274Y-127814380D01*
X102135672Y-127898174D01*
X102127218Y-127909500D01*
X100300500Y-127909500D01*
X100300500Y-122694148D01*
X100320502Y-122626027D01*
X100374158Y-122579534D01*
X100444432Y-122569430D01*
X100509012Y-122598924D01*
X100541238Y-122649225D01*
X100543357Y-122648308D01*
X100552755Y-122670024D01*
X100628279Y-122797729D01*
X100637926Y-122810165D01*
X100742835Y-122915074D01*
X100755271Y-122924721D01*
X100882976Y-123000245D01*
X100897415Y-123006494D01*
X101041332Y-123048305D01*
X101053919Y-123050604D01*
X101081901Y-123052807D01*
X101086827Y-123053000D01*
X101231885Y-123053000D01*
X101247124Y-123048525D01*
X101248329Y-123047135D01*
X101250000Y-123039452D01*
X101250000Y-120721115D01*
X101245525Y-120705876D01*
X101244135Y-120704671D01*
X101236452Y-120703000D01*
X101086828Y-120703000D01*
X101081901Y-120703193D01*
X101053919Y-120705396D01*
X101041332Y-120707695D01*
X100897415Y-120749506D01*
X100882976Y-120755755D01*
X100755271Y-120831279D01*
X100742835Y-120840926D01*
X100637926Y-120945835D01*
X100628279Y-120958271D01*
X100552755Y-121085976D01*
X100543357Y-121107692D01*
X100541253Y-121106782D01*
X100509286Y-121156839D01*
X100444790Y-121186517D01*
X100374487Y-121176616D01*
X100320698Y-121130277D01*
X100300500Y-121061852D01*
X100300500Y-119904750D01*
X100320502Y-119836629D01*
X100374158Y-119790136D01*
X100444432Y-119780032D01*
X100499487Y-119802042D01*
X100500206Y-119802553D01*
X100505822Y-119807663D01*
X100534410Y-119823185D01*
X100642829Y-119882052D01*
X100642831Y-119882053D01*
X100649506Y-119885677D01*
X100656855Y-119887605D01*
X100800301Y-119925237D01*
X100800303Y-119925237D01*
X100807651Y-119927165D01*
X100890932Y-119928473D01*
X100963529Y-119929614D01*
X100963532Y-119929614D01*
X100971128Y-119929733D01*
X100978533Y-119928037D01*
X100978534Y-119928037D01*
X101123097Y-119894928D01*
X101130498Y-119893233D01*
X101276561Y-119819770D01*
X101366670Y-119742810D01*
X101395106Y-119718524D01*
X101395107Y-119718523D01*
X101400885Y-119713588D01*
X101412355Y-119697627D01*
X101491861Y-119586983D01*
X101491862Y-119586982D01*
X101496293Y-119580815D01*
X101557275Y-119429116D01*
X101580312Y-119267250D01*
X101580461Y-119253000D01*
X101578688Y-119238343D01*
X101561731Y-119098227D01*
X101560819Y-119090687D01*
X101503027Y-118937745D01*
X101410421Y-118803003D01*
X101398620Y-118792488D01*
X101335561Y-118736305D01*
X101288348Y-118694240D01*
X101281638Y-118690687D01*
X101150566Y-118621288D01*
X101150564Y-118621287D01*
X101143855Y-118617735D01*
X101078631Y-118601352D01*
X100992655Y-118579756D01*
X100992651Y-118579756D01*
X100985284Y-118577905D01*
X100977685Y-118577865D01*
X100977683Y-118577865D01*
X100909653Y-118577509D01*
X100821790Y-118577049D01*
X100814410Y-118578821D01*
X100814408Y-118578821D01*
X100670189Y-118613444D01*
X100670185Y-118613445D01*
X100662810Y-118615216D01*
X100517524Y-118690204D01*
X100509328Y-118697354D01*
X100507151Y-118698357D01*
X100505519Y-118699466D01*
X100505334Y-118699194D01*
X100444848Y-118727061D01*
X100374540Y-118717192D01*
X100320730Y-118670878D01*
X100300500Y-118602404D01*
X100300500Y-117444148D01*
X100320502Y-117376027D01*
X100374158Y-117329534D01*
X100444432Y-117319430D01*
X100509012Y-117348924D01*
X100541238Y-117399225D01*
X100543357Y-117398308D01*
X100552755Y-117420024D01*
X100628279Y-117547729D01*
X100637926Y-117560165D01*
X100742835Y-117665074D01*
X100755271Y-117674721D01*
X100882976Y-117750245D01*
X100897415Y-117756494D01*
X101041332Y-117798305D01*
X101053919Y-117800604D01*
X101081901Y-117802807D01*
X101086827Y-117803000D01*
X101231885Y-117803000D01*
X101247124Y-117798525D01*
X101248329Y-117797135D01*
X101250000Y-117789452D01*
X101250000Y-116604000D01*
X101270002Y-116535879D01*
X101323658Y-116489386D01*
X101376000Y-116478000D01*
X101424000Y-116478000D01*
X101492121Y-116498002D01*
X101538614Y-116551658D01*
X101550000Y-116604000D01*
X101550000Y-117784885D01*
X101554475Y-117800124D01*
X101555865Y-117801329D01*
X101563548Y-117803000D01*
X101713173Y-117803000D01*
X101718099Y-117802807D01*
X101746081Y-117800604D01*
X101758668Y-117798305D01*
X101902585Y-117756494D01*
X101905924Y-117755049D01*
X101908764Y-117754698D01*
X101910198Y-117754282D01*
X101910265Y-117754513D01*
X101976386Y-117746354D01*
X102040363Y-117777134D01*
X102077544Y-117837617D01*
X102081763Y-117877749D01*
X102071738Y-118056304D01*
X102071731Y-118056428D01*
X102070747Y-118065619D01*
X102070747Y-118066739D01*
X102069196Y-118076534D01*
X102070748Y-118086330D01*
X102072948Y-118100221D01*
X102074500Y-118119934D01*
X102074500Y-120386066D01*
X102072948Y-120405779D01*
X102069196Y-120429466D01*
X102070747Y-120439259D01*
X102070747Y-120440323D01*
X102071750Y-120449696D01*
X102081775Y-120628255D01*
X102065623Y-120697390D01*
X102014658Y-120746817D01*
X101945061Y-120760845D01*
X101905928Y-120750953D01*
X101902585Y-120749506D01*
X101758668Y-120707695D01*
X101746081Y-120705396D01*
X101718099Y-120703193D01*
X101713172Y-120703000D01*
X101568115Y-120703000D01*
X101552876Y-120707475D01*
X101551671Y-120708865D01*
X101550000Y-120716548D01*
X101550000Y-123034885D01*
X101554475Y-123050124D01*
X101555865Y-123051329D01*
X101563548Y-123053000D01*
X101713173Y-123053000D01*
X101718099Y-123052807D01*
X101746081Y-123050604D01*
X101758671Y-123048305D01*
X101816924Y-123031381D01*
X101887920Y-123031584D01*
X101947536Y-123070138D01*
X101976844Y-123134803D01*
X101966540Y-123205048D01*
X101955293Y-123224642D01*
X101869432Y-123347266D01*
X101867111Y-123352244D01*
X101867109Y-123352247D01*
X101790769Y-123515958D01*
X101773261Y-123553504D01*
X101771839Y-123558812D01*
X101771838Y-123558814D01*
X101715789Y-123767993D01*
X101714365Y-123773308D01*
X101694532Y-124000000D01*
X101714365Y-124226692D01*
X101715789Y-124232005D01*
X101715789Y-124232007D01*
X101731919Y-124292203D01*
X101773261Y-124446496D01*
X101869432Y-124652734D01*
X101999953Y-124839139D01*
X102160861Y-125000047D01*
X102347266Y-125130568D01*
X102352244Y-125132889D01*
X102352247Y-125132891D01*
X102523125Y-125212573D01*
X102553504Y-125226739D01*
X102558812Y-125228161D01*
X102558814Y-125228162D01*
X102767993Y-125284211D01*
X102767995Y-125284211D01*
X102773308Y-125285635D01*
X103000000Y-125305468D01*
X103226692Y-125285635D01*
X103232005Y-125284211D01*
X103232007Y-125284211D01*
X103441186Y-125228162D01*
X103441188Y-125228161D01*
X103446496Y-125226739D01*
X103476875Y-125212573D01*
X103647753Y-125132891D01*
X103647756Y-125132889D01*
X103652734Y-125130568D01*
X103839139Y-125000047D01*
X104000047Y-124839139D01*
X104130568Y-124652734D01*
X104226739Y-124446496D01*
X104268082Y-124292203D01*
X104284211Y-124232007D01*
X104284211Y-124232005D01*
X104285635Y-124226692D01*
X104305468Y-124000000D01*
X104285635Y-123773308D01*
X104284211Y-123767993D01*
X104228162Y-123558814D01*
X104228161Y-123558812D01*
X104226739Y-123553504D01*
X104209231Y-123515958D01*
X104132891Y-123352247D01*
X104132889Y-123352244D01*
X104130568Y-123347266D01*
X104000047Y-123160861D01*
X103839139Y-122999953D01*
X103782443Y-122960254D01*
X103738116Y-122904800D01*
X103730807Y-122834180D01*
X103754353Y-122780863D01*
X103828918Y-122682628D01*
X103828921Y-122682623D01*
X103834113Y-122675783D01*
X103864543Y-122598924D01*
X103886655Y-122543077D01*
X103886656Y-122543075D01*
X103889636Y-122535547D01*
X103900500Y-122445772D01*
X103900500Y-121310228D01*
X103889636Y-121220453D01*
X103872221Y-121176466D01*
X103853813Y-121129973D01*
X103834113Y-121080217D01*
X103742922Y-120960078D01*
X103622783Y-120868887D01*
X103552161Y-120840926D01*
X103490077Y-120816345D01*
X103490075Y-120816344D01*
X103482547Y-120813364D01*
X103392772Y-120802500D01*
X103074859Y-120802500D01*
X103006738Y-120782498D01*
X102960245Y-120728842D01*
X102951280Y-120701081D01*
X102941005Y-120649424D01*
X102938854Y-120633081D01*
X102927982Y-120467159D01*
X102929253Y-120439413D01*
X102929253Y-120439271D01*
X102930804Y-120429478D01*
X102927051Y-120405779D01*
X102925500Y-120386071D01*
X102925500Y-119837597D01*
X102945502Y-119769476D01*
X102999158Y-119722983D01*
X103069432Y-119712879D01*
X103136299Y-119744403D01*
X103200201Y-119802549D01*
X103200205Y-119802552D01*
X103205822Y-119807663D01*
X103234410Y-119823185D01*
X103342829Y-119882052D01*
X103342831Y-119882053D01*
X103349506Y-119885677D01*
X103356855Y-119887605D01*
X103500301Y-119925237D01*
X103500303Y-119925237D01*
X103507651Y-119927165D01*
X103590932Y-119928473D01*
X103663529Y-119929614D01*
X103663532Y-119929614D01*
X103671128Y-119929733D01*
X103678533Y-119928037D01*
X103678534Y-119928037D01*
X103823097Y-119894928D01*
X103830498Y-119893233D01*
X103976561Y-119819770D01*
X104066670Y-119742810D01*
X104095106Y-119718524D01*
X104095107Y-119718523D01*
X104100885Y-119713588D01*
X104112355Y-119697627D01*
X104191861Y-119586983D01*
X104191862Y-119586982D01*
X104196293Y-119580815D01*
X104257275Y-119429116D01*
X104280312Y-119267250D01*
X104280461Y-119253000D01*
X104278688Y-119238343D01*
X104261731Y-119098227D01*
X104260819Y-119090687D01*
X104203027Y-118937745D01*
X104110421Y-118803003D01*
X104098620Y-118792488D01*
X104035561Y-118736305D01*
X103988348Y-118694240D01*
X103981638Y-118690687D01*
X103850566Y-118621288D01*
X103850564Y-118621287D01*
X103843855Y-118617735D01*
X103778631Y-118601352D01*
X103692655Y-118579756D01*
X103692651Y-118579756D01*
X103685284Y-118577905D01*
X103677685Y-118577865D01*
X103677683Y-118577865D01*
X103609653Y-118577509D01*
X103521790Y-118577049D01*
X103514410Y-118578821D01*
X103514408Y-118578821D01*
X103370189Y-118613444D01*
X103370185Y-118613445D01*
X103362810Y-118615216D01*
X103217524Y-118690204D01*
X103134328Y-118762781D01*
X103069847Y-118792488D01*
X102999540Y-118782619D01*
X102945730Y-118736305D01*
X102925500Y-118667831D01*
X102925500Y-118119929D01*
X102927051Y-118100220D01*
X102929253Y-118086317D01*
X102929253Y-118086315D01*
X102930804Y-118076522D01*
X102929252Y-118066724D01*
X102929252Y-118066699D01*
X102927973Y-118038789D01*
X102938843Y-117872916D01*
X102940994Y-117856576D01*
X102951268Y-117804921D01*
X102984174Y-117742010D01*
X103045869Y-117706878D01*
X103074847Y-117703500D01*
X103392772Y-117703500D01*
X103482547Y-117692636D01*
X103490075Y-117689656D01*
X103490077Y-117689655D01*
X103559168Y-117662300D01*
X103622783Y-117637113D01*
X103742922Y-117545922D01*
X103834113Y-117425783D01*
X103864543Y-117348924D01*
X103886655Y-117293077D01*
X103886656Y-117293075D01*
X103889636Y-117285547D01*
X103900500Y-117195772D01*
X103900500Y-117179500D01*
X103920502Y-117111379D01*
X103974158Y-117064886D01*
X104026500Y-117053500D01*
X104628594Y-117053500D01*
X104648304Y-117055051D01*
X104672000Y-117058804D01*
X104683100Y-117057046D01*
X104692894Y-117055887D01*
X104876543Y-117041433D01*
X104881350Y-117040279D01*
X104881356Y-117040278D01*
X105006660Y-117010195D01*
X105076049Y-116993536D01*
X105087739Y-116988694D01*
X105261035Y-116916913D01*
X105261037Y-116916912D01*
X105265607Y-116915019D01*
X105440547Y-116807815D01*
X105596564Y-116674564D01*
X105729815Y-116518547D01*
X105777355Y-116440971D01*
X105828171Y-116394242D01*
X105888441Y-116363929D01*
X105916886Y-116349623D01*
X105986731Y-116336885D01*
X106052375Y-116363929D01*
X106092976Y-116422170D01*
X106099500Y-116462188D01*
X106099500Y-127458564D01*
X106097949Y-127478274D01*
X106096761Y-127485777D01*
X106094508Y-127500000D01*
X106095162Y-127504128D01*
X106095637Y-127512589D01*
X106095637Y-127512590D01*
X106100623Y-127601374D01*
X106113196Y-127825265D01*
X106167766Y-128146439D01*
X106257953Y-128459484D01*
X106259307Y-128462752D01*
X106259307Y-128462753D01*
X106374935Y-128741904D01*
X106382622Y-128760463D01*
X106384332Y-128763557D01*
X106384333Y-128763559D01*
X106394823Y-128782539D01*
X106540207Y-129045590D01*
X106728725Y-129311282D01*
X106945805Y-129554195D01*
X107188718Y-129771275D01*
X107454410Y-129959793D01*
X107457508Y-129961505D01*
X107712806Y-130102604D01*
X107739537Y-130117378D01*
X107742800Y-130118729D01*
X107742805Y-130118732D01*
X108037247Y-130240693D01*
X108040516Y-130242047D01*
X108353561Y-130332234D01*
X108674735Y-130386804D01*
X108995872Y-130404838D01*
X109000000Y-130405492D01*
X109009793Y-130403941D01*
X109009795Y-130403941D01*
X109021726Y-130402051D01*
X109041436Y-130400500D01*
X109068596Y-130400500D01*
X109136717Y-130420502D01*
X109183210Y-130474158D01*
X109193314Y-130544432D01*
X109163820Y-130609012D01*
X109137681Y-130631872D01*
X108965812Y-130744554D01*
X108965807Y-130744558D01*
X108961899Y-130747120D01*
X108773333Y-130915421D01*
X108611715Y-131109746D01*
X108480595Y-131325825D01*
X108478786Y-131330139D01*
X108478785Y-131330141D01*
X108462091Y-131369953D01*
X108382854Y-131558911D01*
X108320639Y-131803883D01*
X108295316Y-132055361D01*
X108307443Y-132307820D01*
X108308356Y-132312409D01*
X108352628Y-132534979D01*
X108356752Y-132555713D01*
X108358331Y-132560111D01*
X108358333Y-132560118D01*
X108414346Y-132716126D01*
X108442160Y-132793595D01*
X108561792Y-133016240D01*
X108564587Y-133019984D01*
X108564589Y-133019986D01*
X108710226Y-133215018D01*
X108710231Y-133215024D01*
X108713018Y-133218756D01*
X108716327Y-133222036D01*
X108716332Y-133222042D01*
X108840099Y-133344733D01*
X108874395Y-133406896D01*
X108869640Y-133477733D01*
X108827341Y-133534754D01*
X108786968Y-133555089D01*
X108600055Y-133610101D01*
X108415399Y-133706636D01*
X108253011Y-133837200D01*
X108119075Y-133996818D01*
X108018693Y-134179411D01*
X107955690Y-134378025D01*
X107955004Y-134384142D01*
X107955003Y-134384146D01*
X107954052Y-134392627D01*
X107932463Y-134585093D01*
X107949899Y-134792730D01*
X108007333Y-134993025D01*
X108010151Y-134998507D01*
X108010152Y-134998511D01*
X108099756Y-135172862D01*
X108099759Y-135172866D01*
X108102577Y-135178350D01*
X108120451Y-135200901D01*
X108228174Y-135336816D01*
X108228179Y-135336821D01*
X108232003Y-135341646D01*
X108236696Y-135345640D01*
X108236697Y-135345641D01*
X108336120Y-135430256D01*
X108390683Y-135476693D01*
X108396061Y-135479699D01*
X108396063Y-135479700D01*
X108450009Y-135509849D01*
X108572571Y-135578346D01*
X108770740Y-135642735D01*
X108977641Y-135667407D01*
X108983776Y-135666935D01*
X108983778Y-135666935D01*
X109179252Y-135651894D01*
X109179256Y-135651893D01*
X109185394Y-135651421D01*
X109386085Y-135595387D01*
X109391589Y-135592607D01*
X109391591Y-135592606D01*
X109566570Y-135504218D01*
X109566572Y-135504217D01*
X109572071Y-135501439D01*
X109736266Y-135373156D01*
X109872417Y-135215423D01*
X109889013Y-135186209D01*
X109940050Y-135136860D01*
X110009668Y-135122937D01*
X110075762Y-135148862D01*
X110102304Y-135177819D01*
X110102577Y-135178350D01*
X110131961Y-135215423D01*
X110228174Y-135336816D01*
X110228179Y-135336821D01*
X110232003Y-135341646D01*
X110236696Y-135345640D01*
X110236697Y-135345641D01*
X110336120Y-135430256D01*
X110390683Y-135476693D01*
X110396061Y-135479699D01*
X110396063Y-135479700D01*
X110450009Y-135509849D01*
X110572571Y-135578346D01*
X110770740Y-135642735D01*
X110977641Y-135667407D01*
X110983776Y-135666935D01*
X110983778Y-135666935D01*
X111179252Y-135651894D01*
X111179256Y-135651893D01*
X111185394Y-135651421D01*
X111386085Y-135595387D01*
X111391589Y-135592607D01*
X111391591Y-135592606D01*
X111566570Y-135504218D01*
X111566572Y-135504217D01*
X111572071Y-135501439D01*
X111736266Y-135373156D01*
X111872417Y-135215423D01*
X111875461Y-135210065D01*
X111972294Y-135039610D01*
X111972296Y-135039606D01*
X111975339Y-135034249D01*
X112027351Y-134877894D01*
X112039164Y-134842382D01*
X112039165Y-134842379D01*
X112041109Y-134836534D01*
X112067225Y-134629810D01*
X112067641Y-134600000D01*
X112066179Y-134585093D01*
X112432463Y-134585093D01*
X112449899Y-134792730D01*
X112507333Y-134993025D01*
X112510151Y-134998507D01*
X112510152Y-134998511D01*
X112599756Y-135172862D01*
X112599759Y-135172866D01*
X112602577Y-135178350D01*
X112620451Y-135200901D01*
X112728174Y-135336816D01*
X112728179Y-135336821D01*
X112732003Y-135341646D01*
X112736696Y-135345640D01*
X112736697Y-135345641D01*
X112836120Y-135430256D01*
X112890683Y-135476693D01*
X112896061Y-135479699D01*
X112896063Y-135479700D01*
X112950009Y-135509849D01*
X113072571Y-135578346D01*
X113270740Y-135642735D01*
X113477641Y-135667407D01*
X113483776Y-135666935D01*
X113483778Y-135666935D01*
X113679252Y-135651894D01*
X113679256Y-135651893D01*
X113685394Y-135651421D01*
X113886085Y-135595387D01*
X113891589Y-135592607D01*
X113891591Y-135592606D01*
X114066570Y-135504218D01*
X114066572Y-135504217D01*
X114072071Y-135501439D01*
X114236266Y-135373156D01*
X114372417Y-135215423D01*
X114375461Y-135210065D01*
X114472294Y-135039610D01*
X114472296Y-135039606D01*
X114475339Y-135034249D01*
X114527351Y-134877894D01*
X114539164Y-134842382D01*
X114539165Y-134842379D01*
X114541109Y-134836534D01*
X114567225Y-134629810D01*
X114567641Y-134600000D01*
X114547308Y-134392627D01*
X114487083Y-134193154D01*
X114389261Y-134009176D01*
X114383590Y-134002222D01*
X114347427Y-133957882D01*
X114257567Y-133847704D01*
X114097017Y-133714885D01*
X113913728Y-133615781D01*
X113714679Y-133554165D01*
X113708554Y-133553521D01*
X113708553Y-133553521D01*
X113513582Y-133533029D01*
X113513580Y-133533029D01*
X113507453Y-133532385D01*
X113376739Y-133544281D01*
X113306085Y-133550711D01*
X113306084Y-133550711D01*
X113299944Y-133551270D01*
X113294030Y-133553011D01*
X113294028Y-133553011D01*
X113286968Y-133555089D01*
X113100055Y-133610101D01*
X112915399Y-133706636D01*
X112753011Y-133837200D01*
X112619075Y-133996818D01*
X112518693Y-134179411D01*
X112455690Y-134378025D01*
X112455004Y-134384142D01*
X112455003Y-134384146D01*
X112454052Y-134392627D01*
X112432463Y-134585093D01*
X112066179Y-134585093D01*
X112047308Y-134392627D01*
X112002312Y-134243594D01*
X112001771Y-134172602D01*
X112029574Y-134122562D01*
X112034841Y-134116751D01*
X112034843Y-134116749D01*
X112036920Y-134114457D01*
X112208731Y-133882800D01*
X112336060Y-133670367D01*
X112355412Y-133638081D01*
X112355413Y-133638079D01*
X112357008Y-133635418D01*
X112393588Y-133558076D01*
X112478999Y-133377493D01*
X112479001Y-133377488D01*
X112480323Y-133374693D01*
X112534943Y-133222042D01*
X112576449Y-133106041D01*
X112576451Y-133106033D01*
X112577488Y-133103136D01*
X112647568Y-132823364D01*
X112653235Y-132785165D01*
X112689434Y-132541129D01*
X112689888Y-132538069D01*
X112700974Y-132312409D01*
X112703053Y-132270096D01*
X112703941Y-132261506D01*
X112703941Y-132259792D01*
X112705492Y-132250000D01*
X112704228Y-132242018D01*
X112703941Y-132236908D01*
X112703941Y-132236322D01*
X112703871Y-132235668D01*
X112688182Y-131956300D01*
X112687984Y-131952771D01*
X112682460Y-131920259D01*
X112638708Y-131662749D01*
X112638706Y-131662742D01*
X112638118Y-131659279D01*
X112555704Y-131373216D01*
X112554356Y-131369962D01*
X112554353Y-131369953D01*
X112443134Y-131101447D01*
X112443131Y-131101442D01*
X112441780Y-131098179D01*
X112297778Y-130837627D01*
X112125509Y-130594837D01*
X112008157Y-130463520D01*
X111929484Y-130375485D01*
X111927139Y-130372861D01*
X111901614Y-130350050D01*
X111707787Y-130176836D01*
X111707788Y-130176836D01*
X111705163Y-130174491D01*
X111667043Y-130147443D01*
X111603848Y-130102604D01*
X111462373Y-130002222D01*
X111218930Y-129867676D01*
X111204917Y-129859931D01*
X111204916Y-129859930D01*
X111201821Y-129858220D01*
X111198558Y-129856869D01*
X111198553Y-129856866D01*
X110930047Y-129745647D01*
X110930038Y-129745644D01*
X110926784Y-129744296D01*
X110923393Y-129743319D01*
X110923390Y-129743318D01*
X110677841Y-129672576D01*
X110617919Y-129634497D01*
X110588098Y-129570067D01*
X110597843Y-129499743D01*
X110644062Y-129445851D01*
X110712722Y-129425500D01*
X116073501Y-129425500D01*
X116141622Y-129445502D01*
X116188115Y-129499158D01*
X116199501Y-129551500D01*
X116199501Y-129587836D01*
X116199774Y-129592589D01*
X116240173Y-129767577D01*
X116318336Y-129929266D01*
X116430380Y-130069620D01*
X116570734Y-130181664D01*
X116577077Y-130184730D01*
X116577078Y-130184731D01*
X116627149Y-130208936D01*
X116732423Y-130259827D01*
X116739284Y-130261411D01*
X116902212Y-130299026D01*
X116902215Y-130299026D01*
X116907411Y-130300226D01*
X116912163Y-130300500D01*
X116913987Y-130300500D01*
X117505038Y-130300499D01*
X118087836Y-130300499D01*
X118092589Y-130300226D01*
X118267577Y-130259827D01*
X118372851Y-130208936D01*
X118422922Y-130184731D01*
X118422923Y-130184730D01*
X118429266Y-130181664D01*
X118569620Y-130069620D01*
X118681664Y-129929266D01*
X118759827Y-129767577D01*
X118795741Y-129612016D01*
X118799026Y-129597788D01*
X118799026Y-129597785D01*
X118800226Y-129592589D01*
X118800500Y-129587837D01*
X118800499Y-128412164D01*
X118800226Y-128407411D01*
X118759827Y-128232423D01*
X118681664Y-128070734D01*
X118569620Y-127930380D01*
X118429266Y-127818336D01*
X118400984Y-127804664D01*
X118348359Y-127757009D01*
X118329852Y-127688467D01*
X118351340Y-127620800D01*
X118356717Y-127613415D01*
X118373606Y-127591904D01*
X118366619Y-127578751D01*
X117512812Y-126724944D01*
X117498868Y-126717330D01*
X117497035Y-126717461D01*
X117490420Y-126721712D01*
X116634465Y-127577667D01*
X116627206Y-127590960D01*
X116643903Y-127614474D01*
X116640968Y-127616558D01*
X116665291Y-127652709D01*
X116666786Y-127723690D01*
X116629668Y-127784211D01*
X116600009Y-127804184D01*
X116570734Y-127818336D01*
X116430380Y-127930380D01*
X116318336Y-128070734D01*
X116240173Y-128232423D01*
X116238589Y-128239284D01*
X116206771Y-128377105D01*
X116199774Y-128407411D01*
X116199500Y-128412163D01*
X116199500Y-128448500D01*
X116179498Y-128516621D01*
X116125842Y-128563114D01*
X116073500Y-128574500D01*
X109485406Y-128574500D01*
X109465695Y-128572949D01*
X109465070Y-128572850D01*
X109442000Y-128569196D01*
X109432208Y-128570747D01*
X109429506Y-128570747D01*
X109404512Y-128571819D01*
X109241412Y-128560154D01*
X109226916Y-128559117D01*
X109209122Y-128556559D01*
X109007216Y-128512637D01*
X108989967Y-128507572D01*
X108796374Y-128435366D01*
X108780020Y-128427897D01*
X108598668Y-128328871D01*
X108583545Y-128319152D01*
X108418133Y-128195326D01*
X108404547Y-128183553D01*
X108258447Y-128037453D01*
X108246674Y-128023867D01*
X108122848Y-127858455D01*
X108113129Y-127843332D01*
X108014104Y-127661982D01*
X108006635Y-127645628D01*
X107973427Y-127556593D01*
X107968363Y-127485777D01*
X107989160Y-127439035D01*
X108040964Y-127366941D01*
X108060361Y-127339947D01*
X108123601Y-127182634D01*
X108147490Y-127014778D01*
X108147645Y-127000000D01*
X108127276Y-126831680D01*
X108067345Y-126673077D01*
X108063044Y-126666819D01*
X107975614Y-126539608D01*
X107975613Y-126539607D01*
X107971312Y-126533349D01*
X107948262Y-126512812D01*
X107933882Y-126500000D01*
X108644341Y-126500000D01*
X108664937Y-126735408D01*
X108726097Y-126963663D01*
X108728419Y-126968643D01*
X108728420Y-126968645D01*
X108753199Y-127021782D01*
X108825965Y-127177829D01*
X108961505Y-127371401D01*
X109128599Y-127538495D01*
X109322171Y-127674035D01*
X109327149Y-127676356D01*
X109327152Y-127676358D01*
X109464003Y-127740173D01*
X109536337Y-127773903D01*
X109541645Y-127775325D01*
X109541647Y-127775326D01*
X109757333Y-127833118D01*
X109764592Y-127835063D01*
X109867682Y-127844082D01*
X109938310Y-127850262D01*
X109938317Y-127850262D01*
X109941034Y-127850500D01*
X110058966Y-127850500D01*
X110061683Y-127850262D01*
X110061690Y-127850262D01*
X110132318Y-127844082D01*
X110235408Y-127835063D01*
X110242667Y-127833118D01*
X110458353Y-127775326D01*
X110458355Y-127775325D01*
X110463663Y-127773903D01*
X110535997Y-127740173D01*
X110672848Y-127676358D01*
X110672851Y-127676356D01*
X110677829Y-127674035D01*
X110871401Y-127538495D01*
X111038495Y-127371401D01*
X111041655Y-127366889D01*
X111170878Y-127182339D01*
X111170881Y-127182334D01*
X111174035Y-127177830D01*
X111176358Y-127172848D01*
X111176361Y-127172843D01*
X111271580Y-126968645D01*
X111271581Y-126968644D01*
X111273903Y-126963663D01*
X111335063Y-126735408D01*
X111355659Y-126500000D01*
X111353107Y-126470834D01*
X116095918Y-126470834D01*
X116108575Y-126690341D01*
X116110011Y-126700562D01*
X116158349Y-126915050D01*
X116161428Y-126924878D01*
X116244153Y-127128605D01*
X116248796Y-127137796D01*
X116363688Y-127325282D01*
X116369764Y-127333584D01*
X116397135Y-127365182D01*
X116410219Y-127373593D01*
X116420192Y-127367676D01*
X117275056Y-126512812D01*
X117281434Y-126501132D01*
X117717330Y-126501132D01*
X117717461Y-126502965D01*
X117721712Y-126509580D01*
X118579073Y-127366941D01*
X118591083Y-127373500D01*
X118602823Y-127364532D01*
X118701129Y-127227723D01*
X118706440Y-127218885D01*
X118803854Y-127021782D01*
X118807653Y-127012187D01*
X118871568Y-126801821D01*
X118873747Y-126791740D01*
X118902684Y-126571945D01*
X118903203Y-126565272D01*
X118904716Y-126503365D01*
X118904522Y-126496646D01*
X118886359Y-126275721D01*
X118884674Y-126265541D01*
X118831111Y-126052300D01*
X118827786Y-126042534D01*
X118740118Y-125840911D01*
X118735240Y-125831814D01*
X118615818Y-125647214D01*
X118609526Y-125639044D01*
X118604358Y-125633364D01*
X118590793Y-125625105D01*
X118590538Y-125625111D01*
X118581523Y-125630609D01*
X117724944Y-126487188D01*
X117717330Y-126501132D01*
X117281434Y-126501132D01*
X117282670Y-126498868D01*
X117282539Y-126497035D01*
X117278288Y-126490420D01*
X116419268Y-125631400D01*
X116407732Y-125625100D01*
X116395449Y-125634723D01*
X116281447Y-125801842D01*
X116276359Y-125810798D01*
X116183786Y-126010231D01*
X116180223Y-126019918D01*
X116121467Y-126231783D01*
X116119536Y-126241904D01*
X116096169Y-126460546D01*
X116095918Y-126470834D01*
X111353107Y-126470834D01*
X111335063Y-126264592D01*
X111278180Y-126052300D01*
X111275326Y-126041647D01*
X111275325Y-126041645D01*
X111273903Y-126036337D01*
X111266247Y-126019918D01*
X111176358Y-125827152D01*
X111176356Y-125827149D01*
X111174035Y-125822171D01*
X111038495Y-125628599D01*
X110871401Y-125461505D01*
X110677829Y-125325965D01*
X110672851Y-125323644D01*
X110672848Y-125323642D01*
X110468645Y-125228420D01*
X110468643Y-125228419D01*
X110463663Y-125226097D01*
X110458355Y-125224675D01*
X110458353Y-125224674D01*
X110240723Y-125166361D01*
X110240722Y-125166361D01*
X110235408Y-125164937D01*
X110132318Y-125155918D01*
X110061690Y-125149738D01*
X110061683Y-125149738D01*
X110058966Y-125149500D01*
X109941034Y-125149500D01*
X109938317Y-125149738D01*
X109938310Y-125149738D01*
X109867682Y-125155918D01*
X109764592Y-125164937D01*
X109759278Y-125166361D01*
X109759277Y-125166361D01*
X109541647Y-125224674D01*
X109541645Y-125224675D01*
X109536337Y-125226097D01*
X109531357Y-125228419D01*
X109531355Y-125228420D01*
X109327152Y-125323642D01*
X109327149Y-125323644D01*
X109322171Y-125325965D01*
X109128599Y-125461505D01*
X108961505Y-125628599D01*
X108958348Y-125633107D01*
X108958346Y-125633110D01*
X108840199Y-125801842D01*
X108825965Y-125822170D01*
X108823642Y-125827152D01*
X108823639Y-125827157D01*
X108738270Y-126010231D01*
X108726097Y-126036337D01*
X108724675Y-126041645D01*
X108724674Y-126041647D01*
X108721820Y-126052300D01*
X108664937Y-126264592D01*
X108644341Y-126500000D01*
X107933882Y-126500000D01*
X107850392Y-126425612D01*
X107850388Y-126425610D01*
X107844721Y-126420560D01*
X107694881Y-126341224D01*
X107530441Y-126299919D01*
X107522843Y-126299879D01*
X107522841Y-126299879D01*
X107445668Y-126299475D01*
X107360895Y-126299031D01*
X107353508Y-126300805D01*
X107353504Y-126300805D01*
X107210162Y-126335220D01*
X107196032Y-126338612D01*
X107189288Y-126342093D01*
X107189285Y-126342094D01*
X107084290Y-126396286D01*
X107014582Y-126409755D01*
X106948659Y-126383400D01*
X106907449Y-126325587D01*
X106900500Y-126284320D01*
X106900500Y-120855361D01*
X108295316Y-120855361D01*
X108295540Y-120860027D01*
X108295540Y-120860033D01*
X108296215Y-120874079D01*
X108307443Y-121107820D01*
X108317241Y-121157076D01*
X108346956Y-121306463D01*
X108356752Y-121355713D01*
X108358331Y-121360111D01*
X108358333Y-121360118D01*
X108440577Y-121589186D01*
X108442160Y-121593595D01*
X108561792Y-121816240D01*
X108564587Y-121819984D01*
X108564589Y-121819986D01*
X108710226Y-122015018D01*
X108710231Y-122015024D01*
X108713018Y-122018756D01*
X108716327Y-122022036D01*
X108716332Y-122022042D01*
X108889200Y-122193408D01*
X108892517Y-122196696D01*
X108896279Y-122199454D01*
X108896282Y-122199457D01*
X109092575Y-122343384D01*
X109096346Y-122346149D01*
X109100481Y-122348325D01*
X109100485Y-122348327D01*
X109125736Y-122361612D01*
X109320026Y-122463833D01*
X109453709Y-122510517D01*
X109525384Y-122535547D01*
X109558644Y-122547162D01*
X109563237Y-122548034D01*
X109802369Y-122593435D01*
X109802372Y-122593435D01*
X109806958Y-122594306D01*
X109924493Y-122598924D01*
X110054845Y-122604046D01*
X110054850Y-122604046D01*
X110059513Y-122604229D01*
X110137657Y-122595671D01*
X110306107Y-122577223D01*
X110306112Y-122577222D01*
X110310760Y-122576713D01*
X110438520Y-122543077D01*
X110550658Y-122513554D01*
X110550661Y-122513553D01*
X110555181Y-122512363D01*
X110787405Y-122412591D01*
X110894774Y-122346149D01*
X110998358Y-122282050D01*
X110998362Y-122282047D01*
X111002331Y-122279591D01*
X111096989Y-122199457D01*
X111191672Y-122119302D01*
X111191673Y-122119301D01*
X111195238Y-122116283D01*
X111277886Y-122022042D01*
X111358806Y-121929771D01*
X111358810Y-121929766D01*
X111361888Y-121926256D01*
X111432653Y-121816240D01*
X111496094Y-121717610D01*
X111496096Y-121717607D01*
X111498619Y-121713684D01*
X111602428Y-121483236D01*
X111671034Y-121239976D01*
X111687263Y-121112409D01*
X111702533Y-120992378D01*
X111702533Y-120992372D01*
X111702931Y-120989247D01*
X111705268Y-120900000D01*
X111698830Y-120813364D01*
X111686883Y-120652597D01*
X111686882Y-120652593D01*
X111686537Y-120647945D01*
X111630756Y-120401428D01*
X111539150Y-120165863D01*
X111413731Y-119946426D01*
X111300307Y-119802549D01*
X111260147Y-119751606D01*
X111260144Y-119751603D01*
X111257255Y-119747938D01*
X111073160Y-119574758D01*
X110865489Y-119430691D01*
X110861296Y-119428623D01*
X110642993Y-119320968D01*
X110642990Y-119320967D01*
X110638805Y-119318903D01*
X110594379Y-119304682D01*
X110477440Y-119267250D01*
X110398087Y-119241849D01*
X110393480Y-119241099D01*
X110393477Y-119241098D01*
X110153235Y-119201972D01*
X110153236Y-119201972D01*
X110148624Y-119201221D01*
X110026026Y-119199616D01*
X109900573Y-119197974D01*
X109900570Y-119197974D01*
X109895896Y-119197913D01*
X109645455Y-119231996D01*
X109640965Y-119233305D01*
X109640959Y-119233306D01*
X109571946Y-119253422D01*
X109402803Y-119302723D01*
X109398556Y-119304681D01*
X109398553Y-119304682D01*
X109363226Y-119320968D01*
X109173270Y-119408539D01*
X109125066Y-119440143D01*
X108965812Y-119544554D01*
X108965807Y-119544558D01*
X108961899Y-119547120D01*
X108932041Y-119573769D01*
X108782300Y-119707418D01*
X108773333Y-119715421D01*
X108611715Y-119909746D01*
X108480595Y-120125825D01*
X108478786Y-120130139D01*
X108478785Y-120130141D01*
X108463806Y-120165863D01*
X108382854Y-120358911D01*
X108381703Y-120363443D01*
X108381702Y-120363446D01*
X108358930Y-120453111D01*
X108320639Y-120603883D01*
X108295316Y-120855361D01*
X106900500Y-120855361D01*
X106900500Y-113991436D01*
X106902051Y-113971726D01*
X106903941Y-113959791D01*
X106905492Y-113950000D01*
X106904391Y-113943046D01*
X106887747Y-113625465D01*
X106883842Y-113600805D01*
X106837424Y-113307737D01*
X106836909Y-113304485D01*
X106752797Y-112990578D01*
X106636335Y-112687182D01*
X106634833Y-112684234D01*
X106633900Y-112682402D01*
X106633814Y-112681944D01*
X106633493Y-112681223D01*
X106633664Y-112681147D01*
X106620796Y-112612626D01*
X106647496Y-112546841D01*
X106705524Y-112505935D01*
X106723791Y-112501916D01*
X106723760Y-112501779D01*
X106889029Y-112463928D01*
X107040498Y-112387747D01*
X107169423Y-112277634D01*
X107268361Y-112139947D01*
X107278432Y-112114896D01*
X107296332Y-112070367D01*
X107340298Y-112014622D01*
X107347403Y-112009931D01*
X107355719Y-112004835D01*
X107372558Y-111994516D01*
X107519239Y-111869239D01*
X107644516Y-111722558D01*
X107745305Y-111558086D01*
X107747200Y-111553512D01*
X107817229Y-111384445D01*
X107817231Y-111384438D01*
X107819123Y-111379871D01*
X107850302Y-111250000D01*
X107862999Y-111197116D01*
X107863000Y-111197110D01*
X107864154Y-111192303D01*
X107876228Y-111038904D01*
X107901513Y-110972564D01*
X107958651Y-110930424D01*
X108029501Y-110925865D01*
X108071840Y-110944026D01*
X108173867Y-111012198D01*
X108173873Y-111012201D01*
X108178677Y-111015411D01*
X108183985Y-111017692D01*
X108183986Y-111017692D01*
X108367650Y-111096600D01*
X108367653Y-111096601D01*
X108372953Y-111098878D01*
X108378582Y-111100152D01*
X108378583Y-111100152D01*
X108573550Y-111144269D01*
X108573553Y-111144269D01*
X108579186Y-111145544D01*
X108584957Y-111145771D01*
X108584959Y-111145771D01*
X108646989Y-111148208D01*
X108790470Y-111153846D01*
X108796179Y-111153018D01*
X108796183Y-111153018D01*
X108994015Y-111124333D01*
X108994019Y-111124332D01*
X108999730Y-111123504D01*
X109068523Y-111100152D01*
X109194483Y-111057395D01*
X109194488Y-111057393D01*
X109199955Y-111055537D01*
X109204998Y-111052713D01*
X109379395Y-110955046D01*
X109379399Y-110955043D01*
X109384442Y-110952219D01*
X109547012Y-110817012D01*
X109682219Y-110654442D01*
X109685043Y-110649399D01*
X109685046Y-110649395D01*
X109782713Y-110474998D01*
X109782714Y-110474996D01*
X109785537Y-110469955D01*
X109787393Y-110464488D01*
X109787395Y-110464483D01*
X109851647Y-110275200D01*
X109853504Y-110269730D01*
X109867242Y-110174982D01*
X109875090Y-110120860D01*
X109904660Y-110056315D01*
X109964432Y-110018003D01*
X110035429Y-110018087D01*
X110095109Y-110056542D01*
X110124525Y-110121158D01*
X110125515Y-110130695D01*
X110128796Y-110180749D01*
X110130217Y-110186345D01*
X110130218Y-110186350D01*
X110162594Y-110313827D01*
X110180845Y-110385690D01*
X110183262Y-110390933D01*
X110253374Y-110543019D01*
X110269369Y-110577714D01*
X110391405Y-110750391D01*
X110450431Y-110807892D01*
X110477797Y-110834550D01*
X110542865Y-110897937D01*
X110547661Y-110901142D01*
X110547664Y-110901144D01*
X110654552Y-110972564D01*
X110718677Y-111015411D01*
X110723985Y-111017692D01*
X110723986Y-111017692D01*
X110907650Y-111096600D01*
X110907653Y-111096601D01*
X110912953Y-111098878D01*
X110918582Y-111100152D01*
X110918583Y-111100152D01*
X111113550Y-111144269D01*
X111113553Y-111144269D01*
X111119186Y-111145544D01*
X111124957Y-111145771D01*
X111124959Y-111145771D01*
X111186989Y-111148208D01*
X111330470Y-111153846D01*
X111336179Y-111153018D01*
X111336183Y-111153018D01*
X111534015Y-111124333D01*
X111534019Y-111124332D01*
X111539730Y-111123504D01*
X111608523Y-111100152D01*
X111734483Y-111057395D01*
X111734488Y-111057393D01*
X111739955Y-111055537D01*
X111744998Y-111052713D01*
X111919395Y-110955046D01*
X111919399Y-110955043D01*
X111924442Y-110952219D01*
X112087012Y-110817012D01*
X112222219Y-110654442D01*
X112225043Y-110649399D01*
X112225046Y-110649395D01*
X112325537Y-110469955D01*
X112327633Y-110471129D01*
X112366904Y-110424935D01*
X112434834Y-110404292D01*
X112503140Y-110423651D01*
X112550136Y-110476866D01*
X112561729Y-110521719D01*
X112562435Y-110532080D01*
X112564158Y-110543019D01*
X112604526Y-110704929D01*
X112609210Y-110717661D01*
X112682845Y-110865996D01*
X112690155Y-110877426D01*
X112793922Y-111006486D01*
X112803514Y-111016078D01*
X112932574Y-111119845D01*
X112944004Y-111127155D01*
X113092339Y-111200790D01*
X113105071Y-111205474D01*
X113266977Y-111245841D01*
X113277923Y-111247565D01*
X113311490Y-111249854D01*
X113315785Y-111250000D01*
X113641885Y-111250000D01*
X113657124Y-111245525D01*
X113658329Y-111244135D01*
X113660000Y-111236452D01*
X113660000Y-111231884D01*
X113960000Y-111231884D01*
X113964475Y-111247123D01*
X113965865Y-111248328D01*
X113973548Y-111249999D01*
X114304212Y-111249999D01*
X114308514Y-111249852D01*
X114342080Y-111247565D01*
X114353019Y-111245842D01*
X114514929Y-111205474D01*
X114527661Y-111200790D01*
X114675996Y-111127155D01*
X114687426Y-111119845D01*
X114816486Y-111016078D01*
X114826078Y-111006486D01*
X114929845Y-110877426D01*
X114937155Y-110865996D01*
X115010790Y-110717661D01*
X115015474Y-110704929D01*
X115055841Y-110543023D01*
X115057565Y-110532077D01*
X115059854Y-110498510D01*
X115060000Y-110494215D01*
X115060000Y-110168115D01*
X115055525Y-110152876D01*
X115054135Y-110151671D01*
X115046452Y-110150000D01*
X113978115Y-110150000D01*
X113962876Y-110154475D01*
X113961671Y-110155865D01*
X113960000Y-110163548D01*
X113960000Y-111231884D01*
X113660000Y-111231884D01*
X113660000Y-109831885D01*
X113960000Y-109831885D01*
X113964475Y-109847124D01*
X113965865Y-109848329D01*
X113973548Y-109850000D01*
X115041884Y-109850000D01*
X115057123Y-109845525D01*
X115058328Y-109844135D01*
X115059999Y-109836452D01*
X115059999Y-109505788D01*
X115059852Y-109501486D01*
X115057565Y-109467920D01*
X115055842Y-109456981D01*
X115015474Y-109295071D01*
X115010790Y-109282339D01*
X114937155Y-109134004D01*
X114929845Y-109122574D01*
X114826078Y-108993514D01*
X114816486Y-108983922D01*
X114687426Y-108880155D01*
X114675996Y-108872845D01*
X114527661Y-108799210D01*
X114514929Y-108794526D01*
X114353023Y-108754159D01*
X114342077Y-108752435D01*
X114308510Y-108750146D01*
X114304214Y-108750000D01*
X113978115Y-108750000D01*
X113962876Y-108754475D01*
X113961671Y-108755865D01*
X113960000Y-108763548D01*
X113960000Y-109831885D01*
X113660000Y-109831885D01*
X113660000Y-108768116D01*
X113655525Y-108752877D01*
X113654135Y-108751672D01*
X113646452Y-108750001D01*
X113315788Y-108750001D01*
X113311486Y-108750148D01*
X113277920Y-108752435D01*
X113266981Y-108754158D01*
X113105071Y-108794526D01*
X113092339Y-108799210D01*
X112944004Y-108872845D01*
X112932574Y-108880155D01*
X112803514Y-108983922D01*
X112793922Y-108993514D01*
X112690155Y-109122574D01*
X112682845Y-109134004D01*
X112609210Y-109282339D01*
X112604526Y-109295071D01*
X112564159Y-109456977D01*
X112562435Y-109467922D01*
X112561223Y-109485693D01*
X112536633Y-109552295D01*
X112479939Y-109595030D01*
X112409140Y-109600330D01*
X112346715Y-109566511D01*
X112322509Y-109532849D01*
X112257721Y-109401473D01*
X112257719Y-109401469D01*
X112255165Y-109396290D01*
X112168196Y-109279824D01*
X112132104Y-109231491D01*
X112132103Y-109231490D01*
X112128651Y-109226867D01*
X111973381Y-109083337D01*
X111794554Y-108970505D01*
X111598160Y-108892152D01*
X111592503Y-108891027D01*
X111592497Y-108891025D01*
X111396442Y-108852028D01*
X111396440Y-108852028D01*
X111390775Y-108850901D01*
X111385000Y-108850825D01*
X111384996Y-108850825D01*
X111278976Y-108849437D01*
X111179346Y-108848133D01*
X111173649Y-108849112D01*
X111173648Y-108849112D01*
X110976650Y-108882962D01*
X110976649Y-108882962D01*
X110970953Y-108883941D01*
X110772575Y-108957127D01*
X110767614Y-108960079D01*
X110767613Y-108960079D01*
X110612778Y-109052196D01*
X110590856Y-109065238D01*
X110431881Y-109204655D01*
X110300976Y-109370708D01*
X110298287Y-109375819D01*
X110298285Y-109375822D01*
X110278378Y-109413660D01*
X110202523Y-109557836D01*
X110139820Y-109759773D01*
X110139141Y-109765510D01*
X110125088Y-109884239D01*
X110097217Y-109949537D01*
X110038469Y-109989401D01*
X109967494Y-109991174D01*
X109906828Y-109954295D01*
X109875730Y-109890471D01*
X109874490Y-109880958D01*
X109871646Y-109850000D01*
X109866081Y-109789440D01*
X109858605Y-109762930D01*
X109829244Y-109658824D01*
X109808686Y-109585931D01*
X109801351Y-109571056D01*
X109717719Y-109401469D01*
X109715165Y-109396290D01*
X109628196Y-109279824D01*
X109592104Y-109231491D01*
X109592103Y-109231490D01*
X109588651Y-109226867D01*
X109433381Y-109083337D01*
X109254554Y-108970505D01*
X109058160Y-108892152D01*
X109052503Y-108891027D01*
X109052497Y-108891025D01*
X108856442Y-108852028D01*
X108856440Y-108852028D01*
X108850775Y-108850901D01*
X108845000Y-108850825D01*
X108844996Y-108850825D01*
X108738976Y-108849437D01*
X108639346Y-108848133D01*
X108633649Y-108849112D01*
X108633648Y-108849112D01*
X108436650Y-108882962D01*
X108436649Y-108882962D01*
X108430953Y-108883941D01*
X108232575Y-108957127D01*
X108227614Y-108960079D01*
X108227613Y-108960079D01*
X108065923Y-109056274D01*
X107997152Y-109073914D01*
X107929762Y-109051573D01*
X107885149Y-108996345D01*
X107875500Y-108947989D01*
X107875500Y-105393406D01*
X107877051Y-105373695D01*
X107879253Y-105359792D01*
X107880804Y-105350000D01*
X107879253Y-105340206D01*
X107879253Y-105330291D01*
X107879620Y-105330291D01*
X107879119Y-105313262D01*
X107888204Y-105221012D01*
X107893023Y-105196784D01*
X107927049Y-105084618D01*
X107936501Y-105061800D01*
X107991750Y-104958435D01*
X108005473Y-104937896D01*
X108007773Y-104935093D01*
X116552463Y-104935093D01*
X116569899Y-105142730D01*
X116627333Y-105343025D01*
X116630151Y-105348507D01*
X116630152Y-105348511D01*
X116719756Y-105522862D01*
X116719759Y-105522866D01*
X116722577Y-105528350D01*
X116726408Y-105533183D01*
X116848174Y-105686816D01*
X116848179Y-105686821D01*
X116852003Y-105691646D01*
X117010683Y-105826693D01*
X117016061Y-105829699D01*
X117016063Y-105829700D01*
X117101627Y-105877519D01*
X117192571Y-105928346D01*
X117390740Y-105992735D01*
X117597641Y-106017407D01*
X117603776Y-106016935D01*
X117603778Y-106016935D01*
X117799252Y-106001894D01*
X117799256Y-106001893D01*
X117805394Y-106001421D01*
X118006085Y-105945387D01*
X118011589Y-105942607D01*
X118011591Y-105942606D01*
X118186570Y-105854218D01*
X118186572Y-105854217D01*
X118192071Y-105851439D01*
X118356266Y-105723156D01*
X118492417Y-105565423D01*
X118516595Y-105522862D01*
X118592294Y-105389610D01*
X118592296Y-105389606D01*
X118595339Y-105384249D01*
X118653750Y-105208657D01*
X118659164Y-105192382D01*
X118659165Y-105192379D01*
X118661109Y-105186534D01*
X118669412Y-105120809D01*
X118686783Y-104983312D01*
X118686784Y-104983305D01*
X118687225Y-104979810D01*
X118687641Y-104950000D01*
X118667308Y-104742627D01*
X118607083Y-104543154D01*
X118509261Y-104359176D01*
X118503590Y-104352222D01*
X118467427Y-104307882D01*
X118377567Y-104197704D01*
X118217017Y-104064885D01*
X118033728Y-103965781D01*
X117834679Y-103904165D01*
X117828554Y-103903521D01*
X117828553Y-103903521D01*
X117633582Y-103883029D01*
X117633580Y-103883029D01*
X117627453Y-103882385D01*
X117496739Y-103894281D01*
X117426085Y-103900711D01*
X117426084Y-103900711D01*
X117419944Y-103901270D01*
X117414030Y-103903011D01*
X117414028Y-103903011D01*
X117379362Y-103913214D01*
X117220055Y-103960101D01*
X117214590Y-103962958D01*
X117069951Y-104038573D01*
X117035399Y-104056636D01*
X116873011Y-104187200D01*
X116869047Y-104191924D01*
X116847788Y-104217260D01*
X116739075Y-104346818D01*
X116638693Y-104529411D01*
X116575690Y-104728025D01*
X116575004Y-104734142D01*
X116575003Y-104734146D01*
X116553150Y-104928968D01*
X116552463Y-104935093D01*
X108007773Y-104935093D01*
X108079829Y-104847294D01*
X108097294Y-104829829D01*
X108187896Y-104755473D01*
X108208435Y-104741750D01*
X108311800Y-104686501D01*
X108334618Y-104677049D01*
X108446784Y-104643023D01*
X108471010Y-104638204D01*
X108503814Y-104634974D01*
X108563262Y-104629119D01*
X108580291Y-104629620D01*
X108580291Y-104629253D01*
X108590206Y-104629253D01*
X108600000Y-104630804D01*
X108623696Y-104627051D01*
X108643406Y-104625500D01*
X113255149Y-104625500D01*
X113274860Y-104627051D01*
X113288761Y-104629253D01*
X113288763Y-104629253D01*
X113298555Y-104630804D01*
X113307816Y-104629337D01*
X113310194Y-104629252D01*
X113312308Y-104629252D01*
X113312316Y-104629254D01*
X113312448Y-104629252D01*
X113313521Y-104629252D01*
X113315465Y-104629064D01*
X113415271Y-104625500D01*
X113765194Y-104613005D01*
X114229455Y-104563095D01*
X114263054Y-104557033D01*
X114686763Y-104480590D01*
X114686775Y-104480587D01*
X114688972Y-104480191D01*
X114921789Y-104420769D01*
X115139223Y-104365274D01*
X115139232Y-104365271D01*
X115141404Y-104364717D01*
X115278057Y-104319235D01*
X115582299Y-104217975D01*
X115582309Y-104217971D01*
X115584446Y-104217260D01*
X116015839Y-104038573D01*
X116433386Y-103829566D01*
X116435308Y-103828426D01*
X116435322Y-103828418D01*
X116833023Y-103592451D01*
X116834958Y-103591303D01*
X117096744Y-103409543D01*
X117164106Y-103387122D01*
X117207537Y-103393209D01*
X117390740Y-103452735D01*
X117597641Y-103477407D01*
X117603776Y-103476935D01*
X117603778Y-103476935D01*
X117799252Y-103461894D01*
X117799256Y-103461893D01*
X117805394Y-103461421D01*
X118006085Y-103405387D01*
X118011589Y-103402607D01*
X118011591Y-103402606D01*
X118186570Y-103314218D01*
X118186572Y-103314217D01*
X118192071Y-103311439D01*
X118338982Y-103196660D01*
X118351405Y-103186954D01*
X118351406Y-103186953D01*
X118356266Y-103183156D01*
X118492417Y-103025423D01*
X118541484Y-102939050D01*
X118592294Y-102849610D01*
X118592296Y-102849606D01*
X118595339Y-102844249D01*
X118638507Y-102714479D01*
X118659164Y-102652382D01*
X118659165Y-102652379D01*
X118661109Y-102646534D01*
X118682592Y-102476484D01*
X118686783Y-102443312D01*
X118686784Y-102443305D01*
X118687225Y-102439810D01*
X118687641Y-102410000D01*
X118667308Y-102202627D01*
X118607083Y-102003154D01*
X118509261Y-101819176D01*
X118503590Y-101812222D01*
X118414845Y-101703411D01*
X118377567Y-101657704D01*
X118217017Y-101524885D01*
X118033728Y-101425781D01*
X117834679Y-101364165D01*
X117828554Y-101363521D01*
X117828553Y-101363521D01*
X117633582Y-101343029D01*
X117633580Y-101343029D01*
X117627453Y-101342385D01*
X117502080Y-101353795D01*
X117426085Y-101360711D01*
X117426084Y-101360711D01*
X117419944Y-101361270D01*
X117414030Y-101363011D01*
X117414028Y-101363011D01*
X117403917Y-101365987D01*
X117220055Y-101420101D01*
X117214590Y-101422958D01*
X117208720Y-101426027D01*
X117035399Y-101516636D01*
X116873011Y-101647200D01*
X116739075Y-101806818D01*
X116638693Y-101989411D01*
X116575690Y-102188025D01*
X116575004Y-102194142D01*
X116575003Y-102194146D01*
X116563768Y-102294305D01*
X116552463Y-102395093D01*
X116553682Y-102409608D01*
X116564942Y-102543694D01*
X116569899Y-102602730D01*
X116571596Y-102608650D01*
X116571598Y-102608658D01*
X116576593Y-102626078D01*
X116576142Y-102697074D01*
X116537379Y-102756554D01*
X116525476Y-102765572D01*
X116273585Y-102933880D01*
X116265149Y-102939050D01*
X115884236Y-103152370D01*
X115875441Y-103156851D01*
X115478969Y-103339626D01*
X115469840Y-103343406D01*
X115207799Y-103440077D01*
X115060260Y-103494506D01*
X115050851Y-103497563D01*
X114949694Y-103526092D01*
X114630684Y-103616062D01*
X114621072Y-103618369D01*
X114547708Y-103632962D01*
X114192899Y-103703535D01*
X114183129Y-103705083D01*
X114157270Y-103708144D01*
X114084547Y-103716751D01*
X114014549Y-103704894D01*
X113962072Y-103657075D01*
X113943778Y-103588476D01*
X113965476Y-103520876D01*
X114013124Y-103479060D01*
X114048711Y-103461161D01*
X114048714Y-103461159D01*
X114055498Y-103457747D01*
X114184423Y-103347634D01*
X114283361Y-103209947D01*
X114292604Y-103186954D01*
X114343766Y-103059687D01*
X114343767Y-103059685D01*
X114346601Y-103052634D01*
X114370490Y-102884778D01*
X114370645Y-102870000D01*
X114368840Y-102855080D01*
X114356916Y-102756554D01*
X114350276Y-102701680D01*
X114290345Y-102543077D01*
X114285857Y-102536547D01*
X114198614Y-102409608D01*
X114198613Y-102409607D01*
X114194312Y-102403349D01*
X114180718Y-102391237D01*
X114073392Y-102295612D01*
X114073388Y-102295610D01*
X114067721Y-102290560D01*
X114053921Y-102283253D01*
X113975066Y-102241502D01*
X113926592Y-102195982D01*
X113840065Y-102054783D01*
X113818804Y-102020088D01*
X113815593Y-102016328D01*
X113815589Y-102016323D01*
X113674659Y-101851316D01*
X113671446Y-101847554D01*
X113618219Y-101802094D01*
X113502677Y-101703411D01*
X113502672Y-101703407D01*
X113498912Y-101700196D01*
X113305451Y-101581643D01*
X113300881Y-101579750D01*
X113300877Y-101579748D01*
X113100398Y-101496707D01*
X113100396Y-101496706D01*
X113095825Y-101494813D01*
X113018651Y-101476285D01*
X112880011Y-101443000D01*
X112880005Y-101442999D01*
X112875198Y-101441845D01*
X112685920Y-101426949D01*
X112664561Y-101425268D01*
X112660169Y-101424748D01*
X112658796Y-101424748D01*
X112649000Y-101423196D01*
X112639207Y-101424747D01*
X112639206Y-101424747D01*
X112625305Y-101426949D01*
X112605594Y-101428500D01*
X108374406Y-101428500D01*
X108354695Y-101426949D01*
X108340794Y-101424747D01*
X108340793Y-101424747D01*
X108331000Y-101423196D01*
X108321202Y-101424748D01*
X108321180Y-101424748D01*
X108293266Y-101426027D01*
X108063244Y-101410950D01*
X108046904Y-101408799D01*
X107919365Y-101383430D01*
X107791822Y-101358060D01*
X107775912Y-101353797D01*
X107529635Y-101270197D01*
X107514411Y-101263891D01*
X107281158Y-101148864D01*
X107266884Y-101140623D01*
X107050644Y-100996136D01*
X107037568Y-100986103D01*
X106842032Y-100814622D01*
X106830378Y-100802968D01*
X106658897Y-100607432D01*
X106648864Y-100594356D01*
X106504376Y-100378115D01*
X106496135Y-100363841D01*
X106469392Y-100309610D01*
X106381109Y-100130589D01*
X106374802Y-100115363D01*
X106358947Y-100068655D01*
X106291203Y-99869088D01*
X106286939Y-99853175D01*
X106281369Y-99825170D01*
X106250718Y-99671079D01*
X106236201Y-99598096D01*
X106234050Y-99581756D01*
X106218973Y-99351734D01*
X106220252Y-99323820D01*
X106220252Y-99323798D01*
X106221804Y-99314000D01*
X106218051Y-99290304D01*
X106216500Y-99270594D01*
X106216500Y-97071406D01*
X106218051Y-97051695D01*
X106220253Y-97037792D01*
X106221804Y-97028000D01*
X106220253Y-97018207D01*
X106220253Y-97015684D01*
X106219732Y-97010817D01*
X106218931Y-96996547D01*
X106203923Y-96729313D01*
X106153812Y-96434382D01*
X106070995Y-96146916D01*
X105956512Y-95870530D01*
X105948856Y-95856678D01*
X105813516Y-95611797D01*
X105813513Y-95611792D01*
X105811804Y-95608700D01*
X105638690Y-95364718D01*
X105439347Y-95141653D01*
X105216282Y-94942310D01*
X104972300Y-94769196D01*
X104969208Y-94767487D01*
X104969203Y-94767484D01*
X104713564Y-94626198D01*
X104710470Y-94624488D01*
X104434084Y-94510005D01*
X104146618Y-94427188D01*
X103851687Y-94377077D01*
X103570180Y-94361268D01*
X103565316Y-94360747D01*
X103562793Y-94360747D01*
X103553000Y-94359196D01*
X103529305Y-94362949D01*
X103509594Y-94364500D01*
X103432873Y-94364500D01*
X103364752Y-94344498D01*
X103321622Y-94297653D01*
X103272155Y-94204618D01*
X103272153Y-94204615D01*
X103269261Y-94199176D01*
X103265371Y-94194406D01*
X103265368Y-94194402D01*
X103179423Y-94089024D01*
X103137567Y-94037704D01*
X102977017Y-93904885D01*
X102793728Y-93805781D01*
X102594679Y-93744165D01*
X102588554Y-93743521D01*
X102588553Y-93743521D01*
X102393582Y-93723029D01*
X102393580Y-93723029D01*
X102387453Y-93722385D01*
X102256739Y-93734281D01*
X102186085Y-93740711D01*
X102186084Y-93740711D01*
X102179944Y-93741270D01*
X102174030Y-93743011D01*
X102174028Y-93743011D01*
X102163917Y-93745987D01*
X101980055Y-93800101D01*
X101974590Y-93802958D01*
X101826680Y-93880283D01*
X101795399Y-93896636D01*
X101633011Y-94027200D01*
X101629047Y-94031924D01*
X101607741Y-94057316D01*
X101499075Y-94186818D01*
X101398693Y-94369411D01*
X101335690Y-94568025D01*
X101335004Y-94574142D01*
X101335003Y-94574146D01*
X101313150Y-94768968D01*
X101312463Y-94775093D01*
X101312979Y-94781237D01*
X101327845Y-94958266D01*
X101329899Y-94982730D01*
X101387333Y-95183025D01*
X101390151Y-95188507D01*
X101390152Y-95188511D01*
X101479756Y-95362862D01*
X101479759Y-95362866D01*
X101482577Y-95368350D01*
X101507714Y-95400065D01*
X101608174Y-95526816D01*
X101608179Y-95526821D01*
X101612003Y-95531646D01*
X101616696Y-95535640D01*
X101616697Y-95535641D01*
X101687020Y-95595490D01*
X101770683Y-95666693D01*
X101776061Y-95669699D01*
X101776063Y-95669700D01*
X101834677Y-95702458D01*
X101952571Y-95768346D01*
X102150740Y-95832735D01*
X102357641Y-95857407D01*
X102363776Y-95856935D01*
X102363778Y-95856935D01*
X102559252Y-95841894D01*
X102559256Y-95841893D01*
X102565394Y-95841421D01*
X102766085Y-95785387D01*
X102771589Y-95782607D01*
X102771591Y-95782606D01*
X102946570Y-95694218D01*
X102946572Y-95694217D01*
X102952071Y-95691439D01*
X103116266Y-95563156D01*
X103252417Y-95405423D01*
X103273903Y-95367602D01*
X103316052Y-95293406D01*
X103324087Y-95279262D01*
X103375125Y-95229912D01*
X103433642Y-95215500D01*
X103509594Y-95215500D01*
X103529305Y-95217051D01*
X103543206Y-95219253D01*
X103543207Y-95219253D01*
X103553000Y-95220804D01*
X103562798Y-95219252D01*
X103562820Y-95219252D01*
X103590734Y-95217973D01*
X103781337Y-95230466D01*
X103797677Y-95232617D01*
X103905844Y-95254132D01*
X104014015Y-95275649D01*
X104029925Y-95279912D01*
X104238790Y-95350812D01*
X104254017Y-95357119D01*
X104451846Y-95454678D01*
X104466119Y-95462919D01*
X104649510Y-95585457D01*
X104662585Y-95595490D01*
X104828421Y-95740924D01*
X104840076Y-95752579D01*
X104985510Y-95918415D01*
X104995543Y-95931490D01*
X105118081Y-96114881D01*
X105126322Y-96129154D01*
X105223881Y-96326983D01*
X105230187Y-96342209D01*
X105301088Y-96551075D01*
X105305351Y-96566985D01*
X105318046Y-96630805D01*
X105348383Y-96783323D01*
X105350534Y-96799663D01*
X105363027Y-96990266D01*
X105361748Y-97018180D01*
X105361748Y-97018202D01*
X105360196Y-97028000D01*
X105361747Y-97037792D01*
X105361747Y-97037794D01*
X105363949Y-97051695D01*
X105365500Y-97071406D01*
X105365500Y-99270594D01*
X105363949Y-99290304D01*
X105360196Y-99314000D01*
X105361747Y-99323794D01*
X105361747Y-99326158D01*
X105362385Y-99332232D01*
X105368359Y-99446215D01*
X105377370Y-99618144D01*
X105377698Y-99624405D01*
X105426322Y-99931408D01*
X105506771Y-100231648D01*
X105618163Y-100521833D01*
X105619655Y-100524761D01*
X105619658Y-100524768D01*
X105745344Y-100771439D01*
X105759277Y-100798785D01*
X105761073Y-100801551D01*
X105761075Y-100801554D01*
X105784670Y-100837887D01*
X105928567Y-101059469D01*
X106124179Y-101301030D01*
X106343970Y-101520821D01*
X106585531Y-101716433D01*
X106588306Y-101718235D01*
X106743742Y-101819176D01*
X106846215Y-101885723D01*
X106849149Y-101887218D01*
X106849156Y-101887222D01*
X107120232Y-102025342D01*
X107120239Y-102025345D01*
X107123167Y-102026837D01*
X107126239Y-102028016D01*
X107126243Y-102028018D01*
X107231358Y-102068368D01*
X107413352Y-102138229D01*
X107713592Y-102218678D01*
X108020595Y-102267302D01*
X108023878Y-102267474D01*
X108023887Y-102267475D01*
X108187511Y-102276050D01*
X108312768Y-102282615D01*
X108318842Y-102283253D01*
X108321206Y-102283253D01*
X108331000Y-102284804D01*
X108354696Y-102281051D01*
X108374406Y-102279500D01*
X112605594Y-102279500D01*
X112625304Y-102281051D01*
X112649000Y-102284804D01*
X112658793Y-102283253D01*
X112668709Y-102283253D01*
X112668709Y-102283993D01*
X112685527Y-102283616D01*
X112766292Y-102292716D01*
X112793800Y-102298995D01*
X112891809Y-102333290D01*
X112917230Y-102345532D01*
X112989969Y-102391237D01*
X113037007Y-102444415D01*
X113047827Y-102514583D01*
X113040326Y-102543694D01*
X113008206Y-102626078D01*
X112981524Y-102694513D01*
X112980532Y-102702046D01*
X112980532Y-102702047D01*
X112961106Y-102849610D01*
X112959394Y-102862611D01*
X112977999Y-103031135D01*
X112985867Y-103052634D01*
X113031924Y-103178490D01*
X113036266Y-103190356D01*
X113040502Y-103196659D01*
X113040502Y-103196660D01*
X113053574Y-103216113D01*
X113130830Y-103331083D01*
X113136442Y-103336190D01*
X113136445Y-103336193D01*
X113250612Y-103440077D01*
X113250616Y-103440080D01*
X113256233Y-103445191D01*
X113262906Y-103448814D01*
X113262910Y-103448817D01*
X113395628Y-103520876D01*
X113405235Y-103526092D01*
X113412578Y-103528018D01*
X113413903Y-103528543D01*
X113469876Y-103572217D01*
X113493352Y-103639221D01*
X113476876Y-103708279D01*
X113425680Y-103757467D01*
X113372465Y-103771597D01*
X113337793Y-103772959D01*
X113313135Y-103771504D01*
X113308356Y-103770747D01*
X113308353Y-103770747D01*
X113298561Y-103769196D01*
X113288768Y-103770747D01*
X113274864Y-103772949D01*
X113255154Y-103774500D01*
X108643406Y-103774500D01*
X108623695Y-103772949D01*
X108614572Y-103771504D01*
X108600000Y-103769196D01*
X108590208Y-103770747D01*
X108590063Y-103770747D01*
X108579883Y-103771915D01*
X108375210Y-103786553D01*
X108370814Y-103787509D01*
X108370809Y-103787510D01*
X108159395Y-103833501D01*
X108159392Y-103833502D01*
X108154997Y-103834458D01*
X107943842Y-103913214D01*
X107746045Y-104021220D01*
X107565632Y-104156275D01*
X107406275Y-104315632D01*
X107271220Y-104496045D01*
X107163214Y-104693842D01*
X107084458Y-104904997D01*
X107083502Y-104909392D01*
X107083501Y-104909395D01*
X107073906Y-104953505D01*
X107036553Y-105125210D01*
X107029702Y-105221012D01*
X107021916Y-105329873D01*
X107020747Y-105340063D01*
X107020747Y-105340208D01*
X107019196Y-105350000D01*
X107020747Y-105359792D01*
X107022949Y-105373695D01*
X107024500Y-105393406D01*
X107024500Y-108937582D01*
X107004498Y-109005703D01*
X106950842Y-109052196D01*
X106880568Y-109062300D01*
X106831264Y-109044144D01*
X106822573Y-109038660D01*
X106714554Y-108970505D01*
X106518160Y-108892152D01*
X106512503Y-108891027D01*
X106512497Y-108891025D01*
X106316442Y-108852028D01*
X106316440Y-108852028D01*
X106310775Y-108850901D01*
X106305000Y-108850825D01*
X106304996Y-108850825D01*
X106198976Y-108849437D01*
X106099346Y-108848133D01*
X106093649Y-108849112D01*
X106093648Y-108849112D01*
X105896650Y-108882962D01*
X105896649Y-108882962D01*
X105890953Y-108883941D01*
X105692575Y-108957127D01*
X105687614Y-108960079D01*
X105687613Y-108960079D01*
X105532778Y-109052196D01*
X105510856Y-109065238D01*
X105351881Y-109204655D01*
X105220976Y-109370708D01*
X105218287Y-109375819D01*
X105218285Y-109375822D01*
X105198378Y-109413660D01*
X105122523Y-109557836D01*
X105059820Y-109759773D01*
X105034967Y-109969754D01*
X105048796Y-110180749D01*
X105050217Y-110186345D01*
X105050218Y-110186350D01*
X105082594Y-110313827D01*
X105100845Y-110385690D01*
X105103262Y-110390933D01*
X105173374Y-110543019D01*
X105189369Y-110577714D01*
X105311405Y-110750391D01*
X105370431Y-110807892D01*
X105397797Y-110834550D01*
X105462865Y-110897937D01*
X105467661Y-110901142D01*
X105467664Y-110901144D01*
X105574552Y-110972564D01*
X105638677Y-111015411D01*
X105643985Y-111017692D01*
X105643986Y-111017692D01*
X105827650Y-111096600D01*
X105827653Y-111096601D01*
X105832953Y-111098878D01*
X105838582Y-111100152D01*
X105838583Y-111100152D01*
X106039186Y-111145544D01*
X106038683Y-111147767D01*
X106094524Y-111172453D01*
X106133630Y-111231709D01*
X106134492Y-111302700D01*
X106116261Y-111341123D01*
X106032484Y-111460326D01*
X106032480Y-111460333D01*
X106028113Y-111466547D01*
X106025354Y-111473623D01*
X106025352Y-111473627D01*
X106002415Y-111532458D01*
X105959034Y-111588660D01*
X105892155Y-111612486D01*
X105823011Y-111596372D01*
X105805728Y-111584608D01*
X105627501Y-111440282D01*
X105627492Y-111440275D01*
X105624929Y-111438200D01*
X105352378Y-111261203D01*
X105062818Y-111113665D01*
X104759422Y-110997203D01*
X104445515Y-110913091D01*
X104382535Y-110903116D01*
X104127783Y-110862767D01*
X104127775Y-110862766D01*
X104124535Y-110862253D01*
X103806954Y-110845609D01*
X103800000Y-110844508D01*
X103778943Y-110847843D01*
X103778274Y-110847949D01*
X103758564Y-110849500D01*
X102241436Y-110849500D01*
X102221726Y-110847949D01*
X102209793Y-110846059D01*
X102200000Y-110844508D01*
X102190208Y-110846059D01*
X102180289Y-110846059D01*
X102180289Y-110846036D01*
X102164078Y-110846673D01*
X102006598Y-110834279D01*
X101987070Y-110831186D01*
X101808068Y-110788211D01*
X101789274Y-110782105D01*
X101619196Y-110711656D01*
X101601585Y-110702682D01*
X101444628Y-110606498D01*
X101428632Y-110594877D01*
X101288655Y-110475325D01*
X101274675Y-110461345D01*
X101155123Y-110321368D01*
X101143502Y-110305372D01*
X101047318Y-110148415D01*
X101038344Y-110130804D01*
X100967895Y-109960726D01*
X100961787Y-109941927D01*
X100947938Y-109884239D01*
X100918814Y-109762929D01*
X100915721Y-109743402D01*
X100909999Y-109670701D01*
X100903327Y-109585922D01*
X100903964Y-109569711D01*
X100903941Y-109569711D01*
X100903941Y-109559792D01*
X100905492Y-109550000D01*
X100902051Y-109528274D01*
X100900500Y-109508564D01*
X100900500Y-107475093D01*
X101312463Y-107475093D01*
X101329899Y-107682730D01*
X101387333Y-107883025D01*
X101390151Y-107888507D01*
X101390152Y-107888511D01*
X101479756Y-108062862D01*
X101479759Y-108062866D01*
X101482577Y-108068350D01*
X101486408Y-108073183D01*
X101608174Y-108226816D01*
X101608179Y-108226821D01*
X101612003Y-108231646D01*
X101770683Y-108366693D01*
X101776061Y-108369699D01*
X101776063Y-108369700D01*
X101861627Y-108417519D01*
X101952571Y-108468346D01*
X102150740Y-108532735D01*
X102357641Y-108557407D01*
X102363776Y-108556935D01*
X102363778Y-108556935D01*
X102559252Y-108541894D01*
X102559256Y-108541893D01*
X102565394Y-108541421D01*
X102766085Y-108485387D01*
X102771589Y-108482607D01*
X102771591Y-108482606D01*
X102946570Y-108394218D01*
X102946572Y-108394217D01*
X102952071Y-108391439D01*
X103116266Y-108263156D01*
X103252417Y-108105423D01*
X103281576Y-108054094D01*
X103352294Y-107929610D01*
X103352296Y-107929606D01*
X103355339Y-107924249D01*
X103421109Y-107726534D01*
X103447225Y-107519810D01*
X103447641Y-107490000D01*
X103427308Y-107282627D01*
X103367083Y-107083154D01*
X103269261Y-106899176D01*
X103263590Y-106892222D01*
X103227427Y-106847882D01*
X103137567Y-106737704D01*
X102977017Y-106604885D01*
X102793728Y-106505781D01*
X102594679Y-106444165D01*
X102588554Y-106443521D01*
X102588553Y-106443521D01*
X102393582Y-106423029D01*
X102393580Y-106423029D01*
X102387453Y-106422385D01*
X102256739Y-106434281D01*
X102186085Y-106440711D01*
X102186084Y-106440711D01*
X102179944Y-106441270D01*
X102174030Y-106443011D01*
X102174028Y-106443011D01*
X102163917Y-106445987D01*
X101980055Y-106500101D01*
X101795399Y-106596636D01*
X101633011Y-106727200D01*
X101499075Y-106886818D01*
X101398693Y-107069411D01*
X101335690Y-107268025D01*
X101312463Y-107475093D01*
X100900500Y-107475093D01*
X100900500Y-104935093D01*
X101312463Y-104935093D01*
X101329899Y-105142730D01*
X101387333Y-105343025D01*
X101390151Y-105348507D01*
X101390152Y-105348511D01*
X101479756Y-105522862D01*
X101479759Y-105522866D01*
X101482577Y-105528350D01*
X101486408Y-105533183D01*
X101608174Y-105686816D01*
X101608179Y-105686821D01*
X101612003Y-105691646D01*
X101770683Y-105826693D01*
X101776061Y-105829699D01*
X101776063Y-105829700D01*
X101861627Y-105877519D01*
X101952571Y-105928346D01*
X102150740Y-105992735D01*
X102357641Y-106017407D01*
X102363776Y-106016935D01*
X102363778Y-106016935D01*
X102559252Y-106001894D01*
X102559256Y-106001893D01*
X102565394Y-106001421D01*
X102766085Y-105945387D01*
X102771589Y-105942607D01*
X102771591Y-105942606D01*
X102946570Y-105854218D01*
X102946572Y-105854217D01*
X102952071Y-105851439D01*
X103116266Y-105723156D01*
X103252417Y-105565423D01*
X103276595Y-105522862D01*
X103352294Y-105389610D01*
X103352296Y-105389606D01*
X103355339Y-105384249D01*
X103413750Y-105208657D01*
X103419164Y-105192382D01*
X103419165Y-105192379D01*
X103421109Y-105186534D01*
X103429412Y-105120809D01*
X103446783Y-104983312D01*
X103446784Y-104983305D01*
X103447225Y-104979810D01*
X103447641Y-104950000D01*
X103427308Y-104742627D01*
X103367083Y-104543154D01*
X103269261Y-104359176D01*
X103263590Y-104352222D01*
X103227427Y-104307882D01*
X103137567Y-104197704D01*
X102977017Y-104064885D01*
X102793728Y-103965781D01*
X102594679Y-103904165D01*
X102588554Y-103903521D01*
X102588553Y-103903521D01*
X102393582Y-103883029D01*
X102393580Y-103883029D01*
X102387453Y-103882385D01*
X102256739Y-103894281D01*
X102186085Y-103900711D01*
X102186084Y-103900711D01*
X102179944Y-103901270D01*
X102174030Y-103903011D01*
X102174028Y-103903011D01*
X102139362Y-103913214D01*
X101980055Y-103960101D01*
X101974590Y-103962958D01*
X101829951Y-104038573D01*
X101795399Y-104056636D01*
X101633011Y-104187200D01*
X101629047Y-104191924D01*
X101607788Y-104217260D01*
X101499075Y-104346818D01*
X101398693Y-104529411D01*
X101335690Y-104728025D01*
X101335004Y-104734142D01*
X101335003Y-104734146D01*
X101313150Y-104928968D01*
X101312463Y-104935093D01*
X100900500Y-104935093D01*
X100900500Y-102395093D01*
X101312463Y-102395093D01*
X101313682Y-102409608D01*
X101324942Y-102543694D01*
X101329899Y-102602730D01*
X101387333Y-102803025D01*
X101390151Y-102808507D01*
X101390152Y-102808511D01*
X101479756Y-102982862D01*
X101479759Y-102982866D01*
X101482577Y-102988350D01*
X101486408Y-102993183D01*
X101608174Y-103146816D01*
X101608179Y-103146821D01*
X101612003Y-103151646D01*
X101616696Y-103155640D01*
X101616697Y-103155641D01*
X101687752Y-103216113D01*
X101770683Y-103286693D01*
X101776061Y-103289699D01*
X101776063Y-103289700D01*
X101850110Y-103331083D01*
X101952571Y-103388346D01*
X102150740Y-103452735D01*
X102357641Y-103477407D01*
X102363776Y-103476935D01*
X102363778Y-103476935D01*
X102559252Y-103461894D01*
X102559256Y-103461893D01*
X102565394Y-103461421D01*
X102766085Y-103405387D01*
X102771589Y-103402607D01*
X102771591Y-103402606D01*
X102946570Y-103314218D01*
X102946572Y-103314217D01*
X102952071Y-103311439D01*
X103098982Y-103196660D01*
X103111405Y-103186954D01*
X103111406Y-103186953D01*
X103116266Y-103183156D01*
X103252417Y-103025423D01*
X103301484Y-102939050D01*
X103352294Y-102849610D01*
X103352296Y-102849606D01*
X103355339Y-102844249D01*
X103398507Y-102714479D01*
X103419164Y-102652382D01*
X103419165Y-102652379D01*
X103421109Y-102646534D01*
X103442592Y-102476484D01*
X103446783Y-102443312D01*
X103446784Y-102443305D01*
X103447225Y-102439810D01*
X103447641Y-102410000D01*
X103427308Y-102202627D01*
X103367083Y-102003154D01*
X103269261Y-101819176D01*
X103263590Y-101812222D01*
X103174845Y-101703411D01*
X103137567Y-101657704D01*
X102977017Y-101524885D01*
X102793728Y-101425781D01*
X102594679Y-101364165D01*
X102588554Y-101363521D01*
X102588553Y-101363521D01*
X102393582Y-101343029D01*
X102393580Y-101343029D01*
X102387453Y-101342385D01*
X102262080Y-101353795D01*
X102186085Y-101360711D01*
X102186084Y-101360711D01*
X102179944Y-101361270D01*
X102174030Y-101363011D01*
X102174028Y-101363011D01*
X102163917Y-101365987D01*
X101980055Y-101420101D01*
X101974590Y-101422958D01*
X101968720Y-101426027D01*
X101795399Y-101516636D01*
X101633011Y-101647200D01*
X101499075Y-101806818D01*
X101398693Y-101989411D01*
X101335690Y-102188025D01*
X101335004Y-102194142D01*
X101335003Y-102194146D01*
X101323768Y-102294305D01*
X101312463Y-102395093D01*
X100900500Y-102395093D01*
X100900500Y-99855093D01*
X101312463Y-99855093D01*
X101312979Y-99861237D01*
X101323060Y-99981283D01*
X101329899Y-100062730D01*
X101387333Y-100263025D01*
X101390151Y-100268507D01*
X101390152Y-100268511D01*
X101479756Y-100442862D01*
X101479757Y-100442863D01*
X101482577Y-100448350D01*
X101507714Y-100480065D01*
X101608174Y-100606816D01*
X101608179Y-100606821D01*
X101612003Y-100611646D01*
X101616696Y-100615640D01*
X101616697Y-100615641D01*
X101698334Y-100685119D01*
X101770683Y-100746693D01*
X101776061Y-100749699D01*
X101776063Y-100749700D01*
X101858629Y-100795844D01*
X101952571Y-100848346D01*
X102150740Y-100912735D01*
X102357641Y-100937407D01*
X102363776Y-100936935D01*
X102363778Y-100936935D01*
X102559252Y-100921894D01*
X102559256Y-100921893D01*
X102565394Y-100921421D01*
X102766085Y-100865387D01*
X102771589Y-100862607D01*
X102771591Y-100862606D01*
X102946570Y-100774218D01*
X102946572Y-100774217D01*
X102952071Y-100771439D01*
X103106509Y-100650779D01*
X103111405Y-100646954D01*
X103111406Y-100646953D01*
X103116266Y-100643156D01*
X103252417Y-100485423D01*
X103268516Y-100457084D01*
X103319556Y-100407733D01*
X103389174Y-100393811D01*
X103426291Y-100402913D01*
X103501069Y-100433888D01*
X103518684Y-100442863D01*
X103676314Y-100539458D01*
X103692303Y-100551074D01*
X103832881Y-100671139D01*
X103846859Y-100685117D01*
X103966926Y-100825697D01*
X103978542Y-100841686D01*
X104075137Y-100999316D01*
X104084113Y-101016932D01*
X104101151Y-101058065D01*
X104108740Y-101128654D01*
X104087829Y-101178734D01*
X104026113Y-101266547D01*
X103964524Y-101424513D01*
X103963532Y-101432046D01*
X103963532Y-101432047D01*
X103943838Y-101581643D01*
X103942394Y-101592611D01*
X103960999Y-101761135D01*
X103982239Y-101819176D01*
X104007141Y-101887222D01*
X104019266Y-101920356D01*
X104023502Y-101926659D01*
X104023502Y-101926660D01*
X104036574Y-101946113D01*
X104113830Y-102061083D01*
X104119442Y-102066190D01*
X104119445Y-102066193D01*
X104233612Y-102170077D01*
X104233616Y-102170080D01*
X104239233Y-102175191D01*
X104245906Y-102178814D01*
X104245910Y-102178817D01*
X104381558Y-102252467D01*
X104381560Y-102252468D01*
X104388235Y-102256092D01*
X104395584Y-102258020D01*
X104544883Y-102297188D01*
X104544885Y-102297188D01*
X104552233Y-102299116D01*
X104638609Y-102300473D01*
X104714161Y-102301660D01*
X104714164Y-102301660D01*
X104721760Y-102301779D01*
X104729165Y-102300083D01*
X104729166Y-102300083D01*
X104809409Y-102281705D01*
X104887029Y-102263928D01*
X105038498Y-102187747D01*
X105167423Y-102077634D01*
X105266361Y-101939947D01*
X105274237Y-101920356D01*
X105326766Y-101789687D01*
X105326767Y-101789685D01*
X105329601Y-101782634D01*
X105339023Y-101716433D01*
X105352909Y-101618862D01*
X105352909Y-101618859D01*
X105353490Y-101614778D01*
X105353645Y-101600000D01*
X105351840Y-101585080D01*
X105344555Y-101524885D01*
X105333276Y-101431680D01*
X105273345Y-101273077D01*
X105264584Y-101260330D01*
X105181614Y-101139608D01*
X105181613Y-101139607D01*
X105177312Y-101133349D01*
X105171119Y-101127831D01*
X105056393Y-101025613D01*
X105056390Y-101025611D01*
X105050721Y-101020560D01*
X105030078Y-101009630D01*
X104979236Y-100960078D01*
X104968744Y-100935763D01*
X104938244Y-100837887D01*
X104938243Y-100837883D01*
X104937111Y-100834252D01*
X104830089Y-100596458D01*
X104695184Y-100373298D01*
X104534364Y-100168026D01*
X104349974Y-99983636D01*
X104185901Y-99855093D01*
X104147707Y-99825170D01*
X104147704Y-99825168D01*
X104144702Y-99822816D01*
X103992203Y-99730627D01*
X103924803Y-99689882D01*
X103924799Y-99689880D01*
X103921542Y-99687911D01*
X103683748Y-99580889D01*
X103434788Y-99503309D01*
X103434856Y-99503092D01*
X103374900Y-99468185D01*
X103355155Y-99440721D01*
X103317319Y-99369560D01*
X103269261Y-99279176D01*
X103263590Y-99272222D01*
X103150520Y-99133586D01*
X103137567Y-99117704D01*
X102977017Y-98984885D01*
X102793728Y-98885781D01*
X102594679Y-98824165D01*
X102588554Y-98823521D01*
X102588553Y-98823521D01*
X102393582Y-98803029D01*
X102393580Y-98803029D01*
X102387453Y-98802385D01*
X102281287Y-98812047D01*
X102186085Y-98820711D01*
X102186084Y-98820711D01*
X102179944Y-98821270D01*
X102174030Y-98823011D01*
X102174028Y-98823011D01*
X102163917Y-98825987D01*
X101980055Y-98880101D01*
X101795399Y-98976636D01*
X101633011Y-99107200D01*
X101499075Y-99266818D01*
X101398693Y-99449411D01*
X101335690Y-99648025D01*
X101335004Y-99654142D01*
X101335003Y-99654146D01*
X101315819Y-99825170D01*
X101312463Y-99855093D01*
X100900500Y-99855093D01*
X100900500Y-97315093D01*
X101312463Y-97315093D01*
X101312979Y-97321237D01*
X101327845Y-97498266D01*
X101329899Y-97522730D01*
X101387333Y-97723025D01*
X101390151Y-97728507D01*
X101390152Y-97728511D01*
X101479756Y-97902862D01*
X101479759Y-97902866D01*
X101482577Y-97908350D01*
X101511961Y-97945423D01*
X101608174Y-98066816D01*
X101608179Y-98066821D01*
X101612003Y-98071646D01*
X101616696Y-98075640D01*
X101616697Y-98075641D01*
X101756540Y-98194656D01*
X101770683Y-98206693D01*
X101776061Y-98209699D01*
X101776063Y-98209700D01*
X101843370Y-98247316D01*
X101952571Y-98308346D01*
X102150740Y-98372735D01*
X102357641Y-98397407D01*
X102363776Y-98396935D01*
X102363778Y-98396935D01*
X102559252Y-98381894D01*
X102559256Y-98381893D01*
X102565394Y-98381421D01*
X102766085Y-98325387D01*
X102771589Y-98322607D01*
X102771591Y-98322606D01*
X102946570Y-98234218D01*
X102946572Y-98234217D01*
X102952071Y-98231439D01*
X103116266Y-98103156D01*
X103252417Y-97945423D01*
X103255461Y-97940065D01*
X103352294Y-97769610D01*
X103352296Y-97769606D01*
X103355339Y-97764249D01*
X103421109Y-97566534D01*
X103427419Y-97516588D01*
X103446783Y-97363312D01*
X103446784Y-97363305D01*
X103447225Y-97359810D01*
X103447641Y-97330000D01*
X103427308Y-97122627D01*
X103367083Y-96923154D01*
X103269261Y-96739176D01*
X103265359Y-96734391D01*
X103187497Y-96638924D01*
X103137567Y-96577704D01*
X102977017Y-96444885D01*
X102793728Y-96345781D01*
X102594679Y-96284165D01*
X102588554Y-96283521D01*
X102588553Y-96283521D01*
X102393582Y-96263029D01*
X102393580Y-96263029D01*
X102387453Y-96262385D01*
X102256739Y-96274281D01*
X102186085Y-96280711D01*
X102186084Y-96280711D01*
X102179944Y-96281270D01*
X102174030Y-96283011D01*
X102174028Y-96283011D01*
X102163917Y-96285987D01*
X101980055Y-96340101D01*
X101795399Y-96436636D01*
X101633011Y-96567200D01*
X101499075Y-96726818D01*
X101398693Y-96909411D01*
X101335690Y-97108025D01*
X101335004Y-97114142D01*
X101335003Y-97114146D01*
X101332236Y-97138817D01*
X101312463Y-97315093D01*
X100900500Y-97315093D01*
X100900500Y-92235093D01*
X101312463Y-92235093D01*
X101312979Y-92241237D01*
X101326174Y-92398366D01*
X101329899Y-92442730D01*
X101387333Y-92643025D01*
X101390151Y-92648507D01*
X101390152Y-92648511D01*
X101479756Y-92822862D01*
X101479759Y-92822866D01*
X101482577Y-92828350D01*
X101507714Y-92860065D01*
X101608174Y-92986816D01*
X101608179Y-92986821D01*
X101612003Y-92991646D01*
X101616696Y-92995640D01*
X101616697Y-92995641D01*
X101713669Y-93078170D01*
X101770683Y-93126693D01*
X101776061Y-93129699D01*
X101776063Y-93129700D01*
X101861627Y-93177520D01*
X101952571Y-93228346D01*
X102150740Y-93292735D01*
X102357641Y-93317407D01*
X102363776Y-93316935D01*
X102363778Y-93316935D01*
X102559252Y-93301894D01*
X102559256Y-93301893D01*
X102565394Y-93301421D01*
X102766085Y-93245387D01*
X102771589Y-93242607D01*
X102771591Y-93242606D01*
X102946570Y-93154218D01*
X102946572Y-93154217D01*
X102952071Y-93151439D01*
X103116266Y-93023156D01*
X103252417Y-92865423D01*
X103324087Y-92739262D01*
X103375125Y-92689912D01*
X103433642Y-92675500D01*
X104398594Y-92675500D01*
X104418305Y-92677051D01*
X104432206Y-92679253D01*
X104432207Y-92679253D01*
X104442000Y-92680804D01*
X104453410Y-92678997D01*
X104480180Y-92677644D01*
X104592069Y-92683928D01*
X104723192Y-92691291D01*
X104737224Y-92692872D01*
X104864515Y-92714500D01*
X105007904Y-92738863D01*
X105021679Y-92742007D01*
X105104936Y-92765993D01*
X105285514Y-92818016D01*
X105298833Y-92822677D01*
X105552501Y-92927750D01*
X105565227Y-92933879D01*
X105805520Y-93066684D01*
X105817477Y-93074196D01*
X106041413Y-93233087D01*
X106052445Y-93241885D01*
X106215250Y-93387377D01*
X106257170Y-93424839D01*
X106267160Y-93434829D01*
X106450115Y-93639555D01*
X106458913Y-93650587D01*
X106617804Y-93874523D01*
X106625316Y-93886480D01*
X106758121Y-94126773D01*
X106764250Y-94139499D01*
X106869323Y-94393167D01*
X106873984Y-94406486D01*
X106890446Y-94463627D01*
X106949993Y-94670321D01*
X106953137Y-94684096D01*
X106967596Y-94769196D01*
X106997410Y-94944664D01*
X106999127Y-94954771D01*
X107000709Y-94968808D01*
X107004279Y-95032382D01*
X107014356Y-95211820D01*
X107013003Y-95238590D01*
X107011196Y-95250000D01*
X107012747Y-95259793D01*
X107012747Y-95259794D01*
X107014949Y-95273695D01*
X107016500Y-95293406D01*
X107016500Y-96666270D01*
X106996498Y-96734391D01*
X106973329Y-96761219D01*
X106917604Y-96809831D01*
X106887379Y-96852837D01*
X106837735Y-96923474D01*
X106820113Y-96948547D01*
X106758524Y-97106513D01*
X106757532Y-97114046D01*
X106757532Y-97114047D01*
X106755195Y-97131803D01*
X106736394Y-97274611D01*
X106754999Y-97443135D01*
X106813266Y-97602356D01*
X106817502Y-97608659D01*
X106817502Y-97608660D01*
X106832617Y-97631153D01*
X106907830Y-97743083D01*
X106913442Y-97748190D01*
X106913445Y-97748193D01*
X107027612Y-97852077D01*
X107027616Y-97852080D01*
X107033233Y-97857191D01*
X107039906Y-97860814D01*
X107039910Y-97860817D01*
X107175558Y-97934467D01*
X107175560Y-97934468D01*
X107182235Y-97938092D01*
X107189584Y-97940020D01*
X107338883Y-97979188D01*
X107338885Y-97979188D01*
X107346233Y-97981116D01*
X107432238Y-97982467D01*
X107508161Y-97983660D01*
X107508164Y-97983660D01*
X107515760Y-97983779D01*
X107523165Y-97982083D01*
X107523166Y-97982083D01*
X107584027Y-97968144D01*
X107681029Y-97945928D01*
X107832498Y-97869747D01*
X107961423Y-97759634D01*
X108031099Y-97662669D01*
X108087093Y-97619022D01*
X108157796Y-97612576D01*
X108220760Y-97645378D01*
X108226780Y-97651579D01*
X108264465Y-97693157D01*
X108265138Y-97693900D01*
X108273716Y-97704458D01*
X108274548Y-97705603D01*
X108274550Y-97705605D01*
X108280376Y-97713624D01*
X108288396Y-97719451D01*
X108299783Y-97727724D01*
X108314817Y-97740565D01*
X108842208Y-98267956D01*
X108855043Y-98282983D01*
X108869148Y-98302397D01*
X108877172Y-98308227D01*
X108877175Y-98308230D01*
X108878497Y-98309191D01*
X108898383Y-98327165D01*
X109042583Y-98488529D01*
X109051392Y-98499576D01*
X109194655Y-98701491D01*
X109202173Y-98713454D01*
X109321935Y-98930151D01*
X109328065Y-98942882D01*
X109422803Y-99171605D01*
X109427470Y-99184941D01*
X109479416Y-99365253D01*
X109479053Y-99436249D01*
X109456636Y-99476151D01*
X109457604Y-99476831D01*
X109372378Y-99598096D01*
X109360113Y-99615547D01*
X109298524Y-99773513D01*
X109297532Y-99781046D01*
X109297532Y-99781047D01*
X109278167Y-99928147D01*
X109276394Y-99941611D01*
X109294999Y-100110135D01*
X109353266Y-100269356D01*
X109357502Y-100275659D01*
X109357502Y-100275660D01*
X109370574Y-100295113D01*
X109447830Y-100410083D01*
X109453442Y-100415190D01*
X109453445Y-100415193D01*
X109567612Y-100519077D01*
X109567616Y-100519080D01*
X109573233Y-100524191D01*
X109579906Y-100527814D01*
X109579910Y-100527817D01*
X109715558Y-100601467D01*
X109715560Y-100601468D01*
X109722235Y-100605092D01*
X109729584Y-100607020D01*
X109878883Y-100646188D01*
X109878885Y-100646188D01*
X109886233Y-100648116D01*
X109972609Y-100649473D01*
X110048161Y-100650660D01*
X110048164Y-100650660D01*
X110055760Y-100650779D01*
X110063165Y-100649083D01*
X110063166Y-100649083D01*
X110123586Y-100635245D01*
X110221029Y-100612928D01*
X110372498Y-100536747D01*
X110475997Y-100448350D01*
X110495651Y-100431564D01*
X110495652Y-100431563D01*
X110501423Y-100426634D01*
X110600361Y-100288947D01*
X110610782Y-100263025D01*
X110660766Y-100138687D01*
X110660767Y-100138685D01*
X110663601Y-100131634D01*
X110687490Y-99963778D01*
X110687645Y-99949000D01*
X110685840Y-99934080D01*
X110678085Y-99870000D01*
X110676281Y-99855093D01*
X116552463Y-99855093D01*
X116552979Y-99861237D01*
X116563060Y-99981283D01*
X116569899Y-100062730D01*
X116627333Y-100263025D01*
X116630151Y-100268507D01*
X116630152Y-100268511D01*
X116719756Y-100442862D01*
X116719757Y-100442863D01*
X116722577Y-100448350D01*
X116747714Y-100480065D01*
X116848174Y-100606816D01*
X116848179Y-100606821D01*
X116852003Y-100611646D01*
X116856696Y-100615640D01*
X116856697Y-100615641D01*
X116938334Y-100685119D01*
X117010683Y-100746693D01*
X117016061Y-100749699D01*
X117016063Y-100749700D01*
X117098629Y-100795844D01*
X117192571Y-100848346D01*
X117390740Y-100912735D01*
X117597641Y-100937407D01*
X117603776Y-100936935D01*
X117603778Y-100936935D01*
X117799252Y-100921894D01*
X117799256Y-100921893D01*
X117805394Y-100921421D01*
X118006085Y-100865387D01*
X118011589Y-100862607D01*
X118011591Y-100862606D01*
X118186570Y-100774218D01*
X118186572Y-100774217D01*
X118192071Y-100771439D01*
X118346509Y-100650779D01*
X118351405Y-100646954D01*
X118351406Y-100646953D01*
X118356266Y-100643156D01*
X118492417Y-100485423D01*
X118521693Y-100433888D01*
X118592294Y-100309610D01*
X118592296Y-100309606D01*
X118595339Y-100304249D01*
X118640654Y-100168026D01*
X118659164Y-100112382D01*
X118659165Y-100112379D01*
X118661109Y-100106534D01*
X118676635Y-99983636D01*
X118686783Y-99903312D01*
X118686784Y-99903305D01*
X118687225Y-99899810D01*
X118687641Y-99870000D01*
X118667308Y-99662627D01*
X118607083Y-99463154D01*
X118509261Y-99279176D01*
X118503590Y-99272222D01*
X118390520Y-99133586D01*
X118377567Y-99117704D01*
X118217017Y-98984885D01*
X118033728Y-98885781D01*
X117834679Y-98824165D01*
X117828554Y-98823521D01*
X117828553Y-98823521D01*
X117633582Y-98803029D01*
X117633580Y-98803029D01*
X117627453Y-98802385D01*
X117521287Y-98812047D01*
X117426085Y-98820711D01*
X117426084Y-98820711D01*
X117419944Y-98821270D01*
X117414030Y-98823011D01*
X117414028Y-98823011D01*
X117403917Y-98825987D01*
X117220055Y-98880101D01*
X117035399Y-98976636D01*
X116873011Y-99107200D01*
X116739075Y-99266818D01*
X116638693Y-99449411D01*
X116575690Y-99648025D01*
X116575004Y-99654142D01*
X116575003Y-99654146D01*
X116555819Y-99825170D01*
X116552463Y-99855093D01*
X110676281Y-99855093D01*
X110667276Y-99780680D01*
X110616062Y-99645146D01*
X110610694Y-99574352D01*
X110644452Y-99511895D01*
X110706618Y-99477603D01*
X110777454Y-99482365D01*
X110818728Y-99507415D01*
X110865612Y-99550077D01*
X110865616Y-99550080D01*
X110871233Y-99555191D01*
X110877906Y-99558814D01*
X110877910Y-99558817D01*
X111013558Y-99632467D01*
X111013560Y-99632468D01*
X111020235Y-99636092D01*
X111027584Y-99638020D01*
X111176883Y-99677188D01*
X111176885Y-99677188D01*
X111184233Y-99679116D01*
X111270609Y-99680473D01*
X111346161Y-99681660D01*
X111346164Y-99681660D01*
X111353760Y-99681779D01*
X111361165Y-99680083D01*
X111361166Y-99680083D01*
X111463153Y-99656725D01*
X111519029Y-99643928D01*
X111670498Y-99567747D01*
X111799423Y-99457634D01*
X111803854Y-99451467D01*
X111808684Y-99446215D01*
X111869516Y-99409609D01*
X111901433Y-99405500D01*
X112705463Y-99405500D01*
X112773584Y-99425502D01*
X112806288Y-99455933D01*
X112867454Y-99537546D01*
X112874635Y-99542928D01*
X112974994Y-99618144D01*
X112974997Y-99618146D01*
X112982176Y-99623526D01*
X113041121Y-99645623D01*
X113109025Y-99671079D01*
X113109027Y-99671079D01*
X113116420Y-99673851D01*
X113124270Y-99674704D01*
X113124271Y-99674704D01*
X113174217Y-99680130D01*
X113177623Y-99680500D01*
X113499952Y-99680500D01*
X113822376Y-99680499D01*
X113825770Y-99680130D01*
X113825776Y-99680130D01*
X113875722Y-99674705D01*
X113875726Y-99674704D01*
X113883580Y-99673851D01*
X114017824Y-99623526D01*
X114025003Y-99618146D01*
X114025006Y-99618144D01*
X114125365Y-99542928D01*
X114132546Y-99537546D01*
X114137928Y-99530365D01*
X114213144Y-99430006D01*
X114213146Y-99430003D01*
X114218526Y-99422824D01*
X114262748Y-99304860D01*
X114266079Y-99295975D01*
X114266079Y-99295973D01*
X114268851Y-99288580D01*
X114269728Y-99280512D01*
X114275131Y-99230774D01*
X114275131Y-99230773D01*
X114275500Y-99227377D01*
X114275499Y-98732624D01*
X114273417Y-98713454D01*
X114269705Y-98679278D01*
X114269704Y-98679274D01*
X114268851Y-98671420D01*
X114218526Y-98537176D01*
X114213146Y-98529997D01*
X114213144Y-98529994D01*
X114137928Y-98429635D01*
X114132546Y-98422454D01*
X114110074Y-98405612D01*
X114025006Y-98341856D01*
X114025003Y-98341854D01*
X114017824Y-98336474D01*
X113905526Y-98294376D01*
X113890975Y-98288921D01*
X113890973Y-98288921D01*
X113883580Y-98286149D01*
X113875731Y-98285296D01*
X113875730Y-98285296D01*
X113829394Y-98280262D01*
X113763832Y-98253019D01*
X113723406Y-98194656D01*
X113720952Y-98123701D01*
X113757248Y-98062684D01*
X113820770Y-98030976D01*
X113829390Y-98029737D01*
X113849396Y-98027564D01*
X113875721Y-98024705D01*
X113875724Y-98024704D01*
X113883580Y-98023851D01*
X114017824Y-97973526D01*
X114025003Y-97968146D01*
X114025006Y-97968144D01*
X114125365Y-97892928D01*
X114132546Y-97887546D01*
X114193712Y-97805934D01*
X114250571Y-97763420D01*
X114294537Y-97755500D01*
X116567112Y-97755500D01*
X116635233Y-97775502D01*
X116679179Y-97823906D01*
X116719757Y-97902862D01*
X116722577Y-97908350D01*
X116726402Y-97913176D01*
X116726404Y-97913179D01*
X116848174Y-98066816D01*
X116848179Y-98066821D01*
X116852003Y-98071646D01*
X116856696Y-98075640D01*
X116856697Y-98075641D01*
X116996540Y-98194656D01*
X117010683Y-98206693D01*
X117016061Y-98209699D01*
X117016063Y-98209700D01*
X117083370Y-98247316D01*
X117192571Y-98308346D01*
X117390740Y-98372735D01*
X117597641Y-98397407D01*
X117603776Y-98396935D01*
X117603778Y-98396935D01*
X117799252Y-98381894D01*
X117799256Y-98381893D01*
X117805394Y-98381421D01*
X118006085Y-98325387D01*
X118011589Y-98322607D01*
X118011591Y-98322606D01*
X118186570Y-98234218D01*
X118186572Y-98234217D01*
X118192071Y-98231439D01*
X118356266Y-98103156D01*
X118492417Y-97945423D01*
X118495461Y-97940065D01*
X118592294Y-97769610D01*
X118592296Y-97769606D01*
X118595339Y-97764249D01*
X118661109Y-97566534D01*
X118667419Y-97516588D01*
X118686783Y-97363312D01*
X118686784Y-97363305D01*
X118687225Y-97359810D01*
X118687641Y-97330000D01*
X118667308Y-97122627D01*
X118607083Y-96923154D01*
X118509261Y-96739176D01*
X118505359Y-96734391D01*
X118427497Y-96638924D01*
X118377567Y-96577704D01*
X118217017Y-96444885D01*
X118033728Y-96345781D01*
X117834679Y-96284165D01*
X117828554Y-96283521D01*
X117828553Y-96283521D01*
X117633582Y-96263029D01*
X117633580Y-96263029D01*
X117627453Y-96262385D01*
X117496739Y-96274281D01*
X117426085Y-96280711D01*
X117426084Y-96280711D01*
X117419944Y-96281270D01*
X117414030Y-96283011D01*
X117414028Y-96283011D01*
X117403917Y-96285987D01*
X117220055Y-96340101D01*
X117035399Y-96436636D01*
X116873011Y-96567200D01*
X116739075Y-96726818D01*
X116736107Y-96732216D01*
X116736104Y-96732221D01*
X116716945Y-96767072D01*
X116696184Y-96804837D01*
X116677292Y-96839201D01*
X116626946Y-96889260D01*
X116566877Y-96904500D01*
X114294537Y-96904500D01*
X114226416Y-96884498D01*
X114193711Y-96854066D01*
X114182570Y-96839201D01*
X114132546Y-96772454D01*
X114110074Y-96755612D01*
X114025006Y-96691856D01*
X114025003Y-96691854D01*
X114017824Y-96686474D01*
X113928439Y-96652966D01*
X113890975Y-96638921D01*
X113890973Y-96638921D01*
X113883580Y-96636149D01*
X113875730Y-96635296D01*
X113875729Y-96635296D01*
X113825774Y-96629869D01*
X113825773Y-96629869D01*
X113822377Y-96629500D01*
X113500048Y-96629500D01*
X113177624Y-96629501D01*
X113174230Y-96629870D01*
X113174224Y-96629870D01*
X113124278Y-96635295D01*
X113124274Y-96635296D01*
X113116420Y-96636149D01*
X112982176Y-96686474D01*
X112974997Y-96691854D01*
X112974994Y-96691856D01*
X112889926Y-96755612D01*
X112867454Y-96772454D01*
X112817430Y-96839201D01*
X112806289Y-96854066D01*
X112749429Y-96896580D01*
X112705463Y-96904500D01*
X111021266Y-96904500D01*
X110953145Y-96884498D01*
X110930445Y-96864998D01*
X110929312Y-96863349D01*
X110902209Y-96839201D01*
X110808392Y-96755612D01*
X110808388Y-96755610D01*
X110802721Y-96750560D01*
X110781221Y-96739176D01*
X110718962Y-96706212D01*
X110652881Y-96671224D01*
X110488441Y-96629919D01*
X110480843Y-96629879D01*
X110480841Y-96629879D01*
X110403668Y-96629475D01*
X110318895Y-96629031D01*
X110311508Y-96630805D01*
X110311504Y-96630805D01*
X110168162Y-96665220D01*
X110154032Y-96668612D01*
X110147288Y-96672093D01*
X110147285Y-96672094D01*
X110026570Y-96734400D01*
X110003369Y-96746375D01*
X109997647Y-96751367D01*
X109997645Y-96751368D01*
X109936352Y-96804837D01*
X109875604Y-96857831D01*
X109778113Y-96996547D01*
X109716524Y-97154513D01*
X109715532Y-97162046D01*
X109715532Y-97162047D01*
X109701705Y-97267080D01*
X109694394Y-97322611D01*
X109712999Y-97491135D01*
X109738352Y-97560415D01*
X109760870Y-97621947D01*
X109771266Y-97650356D01*
X109773235Y-97653286D01*
X109786019Y-97721360D01*
X109759318Y-97787144D01*
X109701291Y-97828050D01*
X109630359Y-97831090D01*
X109567287Y-97793400D01*
X109513044Y-97733551D01*
X109490947Y-97709170D01*
X109485402Y-97702345D01*
X109484231Y-97701174D01*
X109478406Y-97693157D01*
X109470389Y-97687332D01*
X109470387Y-97687330D01*
X109458991Y-97679050D01*
X109443958Y-97666210D01*
X108916565Y-97138817D01*
X108903724Y-97123783D01*
X108895451Y-97112396D01*
X108889624Y-97104376D01*
X108881605Y-97098550D01*
X108881409Y-97098354D01*
X108861021Y-97079755D01*
X108723966Y-96923474D01*
X108713933Y-96910399D01*
X108713273Y-96909411D01*
X108582080Y-96713069D01*
X108573849Y-96698812D01*
X108468880Y-96485962D01*
X108462573Y-96470736D01*
X108439583Y-96403013D01*
X108386285Y-96246005D01*
X108382021Y-96230095D01*
X108335716Y-95997320D01*
X108333566Y-95980990D01*
X108329871Y-95924620D01*
X108319974Y-95773675D01*
X108321253Y-95745774D01*
X108321253Y-95745736D01*
X108322804Y-95735942D01*
X108319052Y-95712255D01*
X108317500Y-95692543D01*
X108317500Y-94782611D01*
X109694394Y-94782611D01*
X109712999Y-94951135D01*
X109771266Y-95110356D01*
X109865830Y-95251083D01*
X109871442Y-95256190D01*
X109871445Y-95256193D01*
X109985612Y-95360077D01*
X109985616Y-95360080D01*
X109991233Y-95365191D01*
X109997906Y-95368814D01*
X109997910Y-95368817D01*
X110133558Y-95442467D01*
X110133560Y-95442468D01*
X110140235Y-95446092D01*
X110147584Y-95448020D01*
X110296883Y-95487188D01*
X110296885Y-95487188D01*
X110304233Y-95489116D01*
X110390609Y-95490473D01*
X110466161Y-95491660D01*
X110466164Y-95491660D01*
X110473760Y-95491779D01*
X110481165Y-95490083D01*
X110481166Y-95490083D01*
X110541586Y-95476245D01*
X110639029Y-95453928D01*
X110790498Y-95377747D01*
X110919423Y-95267634D01*
X110923854Y-95261467D01*
X110928684Y-95256215D01*
X110989516Y-95219609D01*
X111021433Y-95215500D01*
X112705463Y-95215500D01*
X112773584Y-95235502D01*
X112806288Y-95265933D01*
X112867454Y-95347546D01*
X112874635Y-95352928D01*
X112974994Y-95428144D01*
X112974997Y-95428146D01*
X112982176Y-95433526D01*
X113038600Y-95454678D01*
X113109025Y-95481079D01*
X113109027Y-95481079D01*
X113116420Y-95483851D01*
X113124270Y-95484704D01*
X113124271Y-95484704D01*
X113174217Y-95490130D01*
X113177623Y-95490500D01*
X113499952Y-95490500D01*
X113822376Y-95490499D01*
X113825770Y-95490130D01*
X113825776Y-95490130D01*
X113875722Y-95484705D01*
X113875726Y-95484704D01*
X113883580Y-95483851D01*
X114017824Y-95433526D01*
X114025003Y-95428146D01*
X114025006Y-95428144D01*
X114125365Y-95352928D01*
X114132546Y-95347546D01*
X114193712Y-95265934D01*
X114250571Y-95223420D01*
X114294537Y-95215500D01*
X116567112Y-95215500D01*
X116635233Y-95235502D01*
X116679179Y-95283906D01*
X116719757Y-95362862D01*
X116722577Y-95368350D01*
X116726402Y-95373176D01*
X116726404Y-95373179D01*
X116848174Y-95526816D01*
X116848179Y-95526821D01*
X116852003Y-95531646D01*
X116856696Y-95535640D01*
X116856697Y-95535641D01*
X116927020Y-95595490D01*
X117010683Y-95666693D01*
X117016061Y-95669699D01*
X117016063Y-95669700D01*
X117074677Y-95702458D01*
X117192571Y-95768346D01*
X117390740Y-95832735D01*
X117597641Y-95857407D01*
X117603776Y-95856935D01*
X117603778Y-95856935D01*
X117799252Y-95841894D01*
X117799256Y-95841893D01*
X117805394Y-95841421D01*
X118006085Y-95785387D01*
X118011589Y-95782607D01*
X118011591Y-95782606D01*
X118186570Y-95694218D01*
X118186572Y-95694217D01*
X118192071Y-95691439D01*
X118356266Y-95563156D01*
X118492417Y-95405423D01*
X118506201Y-95381159D01*
X118592294Y-95229610D01*
X118592296Y-95229606D01*
X118595339Y-95224249D01*
X118661109Y-95026534D01*
X118669294Y-94961747D01*
X118686783Y-94823312D01*
X118686784Y-94823305D01*
X118687225Y-94819810D01*
X118687641Y-94790000D01*
X118667308Y-94582627D01*
X118607083Y-94383154D01*
X118509261Y-94199176D01*
X118503590Y-94192222D01*
X118427497Y-94098924D01*
X118377567Y-94037704D01*
X118217017Y-93904885D01*
X118033728Y-93805781D01*
X117834679Y-93744165D01*
X117828554Y-93743521D01*
X117828553Y-93743521D01*
X117633582Y-93723029D01*
X117633580Y-93723029D01*
X117627453Y-93722385D01*
X117496739Y-93734281D01*
X117426085Y-93740711D01*
X117426084Y-93740711D01*
X117419944Y-93741270D01*
X117414030Y-93743011D01*
X117414028Y-93743011D01*
X117403917Y-93745987D01*
X117220055Y-93800101D01*
X117214590Y-93802958D01*
X117066680Y-93880283D01*
X117035399Y-93896636D01*
X116873011Y-94027200D01*
X116869047Y-94031924D01*
X116853999Y-94049857D01*
X116739075Y-94186818D01*
X116736107Y-94192216D01*
X116736104Y-94192221D01*
X116677292Y-94299201D01*
X116626946Y-94349260D01*
X116566877Y-94364500D01*
X114294537Y-94364500D01*
X114226416Y-94344498D01*
X114193711Y-94314066D01*
X114181410Y-94297653D01*
X114132546Y-94232454D01*
X114110074Y-94215612D01*
X114025006Y-94151856D01*
X114025003Y-94151854D01*
X114017824Y-94146474D01*
X113928439Y-94112966D01*
X113890975Y-94098921D01*
X113890973Y-94098921D01*
X113883580Y-94096149D01*
X113875731Y-94095296D01*
X113875730Y-94095296D01*
X113829394Y-94090262D01*
X113763832Y-94063019D01*
X113723406Y-94004656D01*
X113720952Y-93933701D01*
X113757248Y-93872684D01*
X113820770Y-93840976D01*
X113829390Y-93839737D01*
X113849396Y-93837564D01*
X113875721Y-93834705D01*
X113875724Y-93834704D01*
X113883580Y-93833851D01*
X114017824Y-93783526D01*
X114025003Y-93778146D01*
X114025006Y-93778144D01*
X114125365Y-93702928D01*
X114132546Y-93697546D01*
X114172058Y-93644826D01*
X114213144Y-93590006D01*
X114213146Y-93590003D01*
X114218526Y-93582824D01*
X114262073Y-93466660D01*
X114266079Y-93455975D01*
X114266079Y-93455973D01*
X114268851Y-93448580D01*
X114275500Y-93387377D01*
X114275499Y-92892624D01*
X114273051Y-92870085D01*
X114269705Y-92839278D01*
X114269704Y-92839274D01*
X114268851Y-92831420D01*
X114218526Y-92697176D01*
X114213146Y-92689997D01*
X114213144Y-92689994D01*
X114137928Y-92589635D01*
X114132546Y-92582454D01*
X114110074Y-92565612D01*
X114025006Y-92501856D01*
X114025003Y-92501854D01*
X114017824Y-92496474D01*
X113928439Y-92462966D01*
X113890975Y-92448921D01*
X113890973Y-92448921D01*
X113883580Y-92446149D01*
X113875730Y-92445296D01*
X113875729Y-92445296D01*
X113825774Y-92439869D01*
X113825773Y-92439869D01*
X113822377Y-92439500D01*
X113500048Y-92439500D01*
X113177624Y-92439501D01*
X113174230Y-92439870D01*
X113174224Y-92439870D01*
X113124278Y-92445295D01*
X113124274Y-92445296D01*
X113116420Y-92446149D01*
X112982176Y-92496474D01*
X112974997Y-92501854D01*
X112974994Y-92501856D01*
X112889926Y-92565612D01*
X112867454Y-92582454D01*
X112817947Y-92648511D01*
X112806289Y-92664066D01*
X112749429Y-92706580D01*
X112705463Y-92714500D01*
X111901266Y-92714500D01*
X111833145Y-92694498D01*
X111810445Y-92674998D01*
X111809312Y-92673349D01*
X111781435Y-92648511D01*
X111688392Y-92565612D01*
X111688388Y-92565610D01*
X111682721Y-92560560D01*
X111532881Y-92481224D01*
X111368441Y-92439919D01*
X111360843Y-92439879D01*
X111360841Y-92439879D01*
X111283668Y-92439475D01*
X111198895Y-92439031D01*
X111191508Y-92440805D01*
X111191504Y-92440805D01*
X111048162Y-92475220D01*
X111034032Y-92478612D01*
X111027288Y-92482093D01*
X111027285Y-92482094D01*
X110890117Y-92552892D01*
X110883369Y-92556375D01*
X110877647Y-92561367D01*
X110877645Y-92561368D01*
X110845242Y-92589635D01*
X110755604Y-92667831D01*
X110658113Y-92806547D01*
X110596524Y-92964513D01*
X110595532Y-92972046D01*
X110595532Y-92972047D01*
X110575616Y-93123331D01*
X110574394Y-93132611D01*
X110592999Y-93301135D01*
X110595609Y-93308266D01*
X110646957Y-93448580D01*
X110651266Y-93460356D01*
X110745830Y-93601083D01*
X110751442Y-93606190D01*
X110751445Y-93606193D01*
X110865612Y-93710077D01*
X110865616Y-93710080D01*
X110871233Y-93715191D01*
X110877906Y-93718814D01*
X110877910Y-93718817D01*
X111013558Y-93792467D01*
X111013560Y-93792468D01*
X111020235Y-93796092D01*
X111027584Y-93798020D01*
X111176883Y-93837188D01*
X111176885Y-93837188D01*
X111184233Y-93839116D01*
X111270609Y-93840473D01*
X111346161Y-93841660D01*
X111346164Y-93841660D01*
X111353760Y-93841779D01*
X111361165Y-93840083D01*
X111361166Y-93840083D01*
X111421586Y-93826245D01*
X111519029Y-93803928D01*
X111670498Y-93727747D01*
X111799423Y-93617634D01*
X111803854Y-93611467D01*
X111808684Y-93606215D01*
X111869516Y-93569609D01*
X111901433Y-93565500D01*
X112705463Y-93565500D01*
X112773584Y-93585502D01*
X112806288Y-93615933D01*
X112867454Y-93697546D01*
X112874635Y-93702928D01*
X112974994Y-93778144D01*
X112974997Y-93778146D01*
X112982176Y-93783526D01*
X113049358Y-93808711D01*
X113109025Y-93831079D01*
X113109027Y-93831079D01*
X113116420Y-93833851D01*
X113124269Y-93834704D01*
X113124270Y-93834704D01*
X113170606Y-93839738D01*
X113236168Y-93866981D01*
X113276594Y-93925344D01*
X113279048Y-93996299D01*
X113242752Y-94057316D01*
X113179230Y-94089024D01*
X113170610Y-94090263D01*
X113156735Y-94091770D01*
X113124279Y-94095295D01*
X113124276Y-94095296D01*
X113116420Y-94096149D01*
X112982176Y-94146474D01*
X112974997Y-94151854D01*
X112974994Y-94151856D01*
X112889926Y-94215612D01*
X112867454Y-94232454D01*
X112818590Y-94297653D01*
X112806289Y-94314066D01*
X112749429Y-94356580D01*
X112705463Y-94364500D01*
X111021266Y-94364500D01*
X110953145Y-94344498D01*
X110930445Y-94324998D01*
X110929312Y-94323349D01*
X110835351Y-94239632D01*
X110808392Y-94215612D01*
X110808388Y-94215610D01*
X110802721Y-94210560D01*
X110791499Y-94204618D01*
X110668517Y-94139503D01*
X110652881Y-94131224D01*
X110488441Y-94089919D01*
X110480843Y-94089879D01*
X110480841Y-94089879D01*
X110403668Y-94089475D01*
X110318895Y-94089031D01*
X110311508Y-94090805D01*
X110311504Y-94090805D01*
X110168162Y-94125220D01*
X110154032Y-94128612D01*
X110147288Y-94132093D01*
X110147285Y-94132094D01*
X110041260Y-94186818D01*
X110003369Y-94206375D01*
X109997647Y-94211367D01*
X109997645Y-94211368D01*
X109926069Y-94273808D01*
X109875604Y-94317831D01*
X109778113Y-94456547D01*
X109716524Y-94614513D01*
X109715532Y-94622046D01*
X109715532Y-94622047D01*
X109695891Y-94771242D01*
X109694394Y-94782611D01*
X108317500Y-94782611D01*
X108317500Y-94081406D01*
X108319051Y-94061695D01*
X108321253Y-94047794D01*
X108321253Y-94047793D01*
X108322804Y-94038000D01*
X108321734Y-94031245D01*
X108309172Y-93743521D01*
X108304044Y-93626070D01*
X108304043Y-93626059D01*
X108303923Y-93623310D01*
X108252176Y-93230250D01*
X108250103Y-93214502D01*
X108250102Y-93214496D01*
X108249744Y-93211777D01*
X108159903Y-92806531D01*
X108138694Y-92739263D01*
X108035914Y-92413286D01*
X108035911Y-92413278D01*
X108035085Y-92410658D01*
X107962364Y-92235093D01*
X116552463Y-92235093D01*
X116552979Y-92241237D01*
X116566174Y-92398366D01*
X116569899Y-92442730D01*
X116627333Y-92643025D01*
X116630151Y-92648507D01*
X116630152Y-92648511D01*
X116719756Y-92822862D01*
X116719759Y-92822866D01*
X116722577Y-92828350D01*
X116747714Y-92860065D01*
X116848174Y-92986816D01*
X116848179Y-92986821D01*
X116852003Y-92991646D01*
X116856696Y-92995640D01*
X116856697Y-92995641D01*
X116953669Y-93078170D01*
X117010683Y-93126693D01*
X117016061Y-93129699D01*
X117016063Y-93129700D01*
X117101627Y-93177520D01*
X117192571Y-93228346D01*
X117390740Y-93292735D01*
X117597641Y-93317407D01*
X117603776Y-93316935D01*
X117603778Y-93316935D01*
X117799252Y-93301894D01*
X117799256Y-93301893D01*
X117805394Y-93301421D01*
X118006085Y-93245387D01*
X118011589Y-93242607D01*
X118011591Y-93242606D01*
X118186570Y-93154218D01*
X118186572Y-93154217D01*
X118192071Y-93151439D01*
X118356266Y-93023156D01*
X118492417Y-92865423D01*
X118519350Y-92818013D01*
X118592294Y-92689610D01*
X118592296Y-92689606D01*
X118595339Y-92684249D01*
X118629201Y-92582454D01*
X118659164Y-92492382D01*
X118659165Y-92492379D01*
X118661109Y-92486534D01*
X118672448Y-92396777D01*
X118686783Y-92283312D01*
X118686784Y-92283305D01*
X118687225Y-92279810D01*
X118687641Y-92250000D01*
X118667308Y-92042627D01*
X118607083Y-91843154D01*
X118509261Y-91659176D01*
X118503590Y-91652222D01*
X118467427Y-91607882D01*
X118377567Y-91497704D01*
X118217017Y-91364885D01*
X118033728Y-91265781D01*
X117834679Y-91204165D01*
X117828554Y-91203521D01*
X117828553Y-91203521D01*
X117633582Y-91183029D01*
X117633580Y-91183029D01*
X117627453Y-91182385D01*
X117496739Y-91194281D01*
X117426085Y-91200711D01*
X117426084Y-91200711D01*
X117419944Y-91201270D01*
X117414030Y-91203011D01*
X117414028Y-91203011D01*
X117403917Y-91205987D01*
X117220055Y-91260101D01*
X117035399Y-91356636D01*
X116873011Y-91487200D01*
X116739075Y-91646818D01*
X116736105Y-91652221D01*
X116736104Y-91652222D01*
X116732281Y-91659176D01*
X116638693Y-91829411D01*
X116575690Y-92028025D01*
X116575004Y-92034142D01*
X116575003Y-92034146D01*
X116569699Y-92081434D01*
X116552463Y-92235093D01*
X107962364Y-92235093D01*
X107876239Y-92027170D01*
X107684574Y-91658986D01*
X107461549Y-91308907D01*
X107380292Y-91203011D01*
X107210526Y-90981766D01*
X107210521Y-90981760D01*
X107208862Y-90979598D01*
X106928435Y-90673565D01*
X106622402Y-90393138D01*
X106620240Y-90391479D01*
X106620234Y-90391474D01*
X106295268Y-90142120D01*
X106293093Y-90140451D01*
X105943015Y-89917426D01*
X105574830Y-89725761D01*
X105500791Y-89695093D01*
X116552463Y-89695093D01*
X116569899Y-89902730D01*
X116627333Y-90103025D01*
X116630151Y-90108507D01*
X116630152Y-90108511D01*
X116719756Y-90282862D01*
X116719759Y-90282866D01*
X116722577Y-90288350D01*
X116726408Y-90293183D01*
X116848174Y-90446816D01*
X116848179Y-90446821D01*
X116852003Y-90451646D01*
X116856696Y-90455640D01*
X116856697Y-90455641D01*
X116964587Y-90547462D01*
X117010683Y-90586693D01*
X117016061Y-90589699D01*
X117016063Y-90589700D01*
X117101627Y-90637519D01*
X117192571Y-90688346D01*
X117390740Y-90752735D01*
X117597641Y-90777407D01*
X117603776Y-90776935D01*
X117603778Y-90776935D01*
X117799252Y-90761894D01*
X117799256Y-90761893D01*
X117805394Y-90761421D01*
X118006085Y-90705387D01*
X118011589Y-90702607D01*
X118011591Y-90702606D01*
X118186570Y-90614218D01*
X118186572Y-90614217D01*
X118192071Y-90611439D01*
X118356266Y-90483156D01*
X118492417Y-90325423D01*
X118513478Y-90288350D01*
X118592294Y-90149610D01*
X118592296Y-90149606D01*
X118595339Y-90144249D01*
X118661109Y-89946534D01*
X118687225Y-89739810D01*
X118687641Y-89710000D01*
X118667308Y-89502627D01*
X118607083Y-89303154D01*
X118509261Y-89119176D01*
X118503590Y-89112222D01*
X118467427Y-89067882D01*
X118377567Y-88957704D01*
X118217017Y-88824885D01*
X118033728Y-88725781D01*
X117834679Y-88664165D01*
X117828554Y-88663521D01*
X117828553Y-88663521D01*
X117633582Y-88643029D01*
X117633580Y-88643029D01*
X117627453Y-88642385D01*
X117496739Y-88654281D01*
X117426085Y-88660711D01*
X117426084Y-88660711D01*
X117419944Y-88661270D01*
X117414030Y-88663011D01*
X117414028Y-88663011D01*
X117403917Y-88665987D01*
X117220055Y-88720101D01*
X117035399Y-88816636D01*
X116873011Y-88947200D01*
X116739075Y-89106818D01*
X116638693Y-89289411D01*
X116575690Y-89488025D01*
X116575004Y-89494142D01*
X116575003Y-89494146D01*
X116553150Y-89688968D01*
X116552463Y-89695093D01*
X105500791Y-89695093D01*
X105191342Y-89566915D01*
X105188722Y-89566089D01*
X105188714Y-89566086D01*
X104798099Y-89442926D01*
X104798094Y-89442925D01*
X104795469Y-89442097D01*
X104390223Y-89352256D01*
X104387504Y-89351898D01*
X104387498Y-89351897D01*
X103981428Y-89298437D01*
X103981418Y-89298436D01*
X103978690Y-89298077D01*
X103935921Y-89296210D01*
X103913389Y-89295226D01*
X103899174Y-89293795D01*
X103878705Y-89290553D01*
X103840488Y-89284500D01*
X103670477Y-89284500D01*
X103664981Y-89284380D01*
X103656529Y-89284011D01*
X103570755Y-89280266D01*
X103564000Y-89279196D01*
X103554207Y-89280747D01*
X103554206Y-89280747D01*
X103540305Y-89282949D01*
X103520594Y-89284500D01*
X103432873Y-89284500D01*
X103364752Y-89264498D01*
X103321622Y-89217653D01*
X103272155Y-89124618D01*
X103272153Y-89124615D01*
X103269261Y-89119176D01*
X103265371Y-89114406D01*
X103265368Y-89114402D01*
X103199099Y-89033149D01*
X103137567Y-88957704D01*
X102977017Y-88824885D01*
X102793728Y-88725781D01*
X102594679Y-88664165D01*
X102588554Y-88663521D01*
X102588553Y-88663521D01*
X102393582Y-88643029D01*
X102393580Y-88643029D01*
X102387453Y-88642385D01*
X102256739Y-88654281D01*
X102186085Y-88660711D01*
X102186084Y-88660711D01*
X102179944Y-88661270D01*
X102174030Y-88663011D01*
X102174028Y-88663011D01*
X102163917Y-88665987D01*
X101980055Y-88720101D01*
X101795399Y-88816636D01*
X101633011Y-88947200D01*
X101499075Y-89106818D01*
X101398693Y-89289411D01*
X101335690Y-89488025D01*
X101335004Y-89494142D01*
X101335003Y-89494146D01*
X101313150Y-89688968D01*
X101312463Y-89695093D01*
X101329899Y-89902730D01*
X101387333Y-90103025D01*
X101390151Y-90108507D01*
X101390152Y-90108511D01*
X101479756Y-90282862D01*
X101479759Y-90282866D01*
X101482577Y-90288350D01*
X101486408Y-90293183D01*
X101608174Y-90446816D01*
X101608179Y-90446821D01*
X101612003Y-90451646D01*
X101616696Y-90455640D01*
X101616697Y-90455641D01*
X101724587Y-90547462D01*
X101770683Y-90586693D01*
X101776061Y-90589699D01*
X101776063Y-90589700D01*
X101861627Y-90637519D01*
X101952571Y-90688346D01*
X102150740Y-90752735D01*
X102357641Y-90777407D01*
X102363776Y-90776935D01*
X102363778Y-90776935D01*
X102559252Y-90761894D01*
X102559256Y-90761893D01*
X102565394Y-90761421D01*
X102766085Y-90705387D01*
X102771589Y-90702607D01*
X102771591Y-90702606D01*
X102946570Y-90614218D01*
X102946572Y-90614217D01*
X102952071Y-90611439D01*
X103116266Y-90483156D01*
X103252417Y-90325423D01*
X103324087Y-90199262D01*
X103375125Y-90149912D01*
X103433642Y-90135500D01*
X103520594Y-90135500D01*
X103540305Y-90137051D01*
X103554206Y-90139253D01*
X103554207Y-90139253D01*
X103564000Y-90140804D01*
X103577229Y-90138708D01*
X103602752Y-90137291D01*
X103918259Y-90151878D01*
X103929848Y-90152952D01*
X104275318Y-90201143D01*
X104286758Y-90203282D01*
X104626309Y-90283143D01*
X104637485Y-90286323D01*
X104802858Y-90341751D01*
X104968222Y-90397176D01*
X104979074Y-90401380D01*
X105298169Y-90542274D01*
X105308587Y-90547462D01*
X105379020Y-90586693D01*
X105592117Y-90705387D01*
X105613307Y-90717190D01*
X105623202Y-90723316D01*
X105910976Y-90920446D01*
X105920264Y-90927460D01*
X106188622Y-91150302D01*
X106197222Y-91158143D01*
X106443857Y-91404778D01*
X106451698Y-91413378D01*
X106674540Y-91681736D01*
X106681554Y-91691024D01*
X106878684Y-91978798D01*
X106884809Y-91988691D01*
X106906718Y-92028025D01*
X107054538Y-92293413D01*
X107059726Y-92303831D01*
X107200620Y-92622926D01*
X107204824Y-92633778D01*
X107313941Y-92959338D01*
X107316624Y-93030284D01*
X107280525Y-93091418D01*
X107217105Y-93123331D01*
X107146500Y-93115890D01*
X107098117Y-93078170D01*
X107096941Y-93079135D01*
X107094986Y-93076752D01*
X107093141Y-93074265D01*
X106867115Y-92824885D01*
X106617735Y-92598859D01*
X106595616Y-92582454D01*
X106349886Y-92400209D01*
X106347401Y-92398366D01*
X106344760Y-92396783D01*
X106344751Y-92396777D01*
X106061358Y-92226918D01*
X106061359Y-92226918D01*
X106058717Y-92225335D01*
X105754463Y-92081434D01*
X105583545Y-92020279D01*
X105440474Y-91969087D01*
X105440466Y-91969085D01*
X105437569Y-91968048D01*
X105275775Y-91927520D01*
X105114091Y-91887020D01*
X105114087Y-91887019D01*
X105111088Y-91886268D01*
X105108026Y-91885814D01*
X105108022Y-91885813D01*
X104781224Y-91837338D01*
X104781223Y-91837338D01*
X104778163Y-91836884D01*
X104775077Y-91836732D01*
X104775073Y-91836732D01*
X104516140Y-91824011D01*
X104459532Y-91821230D01*
X104454864Y-91820747D01*
X104451795Y-91820747D01*
X104442000Y-91819196D01*
X104431267Y-91820896D01*
X104418305Y-91822949D01*
X104398594Y-91824500D01*
X103432873Y-91824500D01*
X103364752Y-91804498D01*
X103321622Y-91757653D01*
X103272155Y-91664618D01*
X103272153Y-91664615D01*
X103269261Y-91659176D01*
X103265371Y-91654406D01*
X103265368Y-91654402D01*
X103199099Y-91573149D01*
X103137567Y-91497704D01*
X102977017Y-91364885D01*
X102793728Y-91265781D01*
X102594679Y-91204165D01*
X102588554Y-91203521D01*
X102588553Y-91203521D01*
X102393582Y-91183029D01*
X102393580Y-91183029D01*
X102387453Y-91182385D01*
X102256739Y-91194281D01*
X102186085Y-91200711D01*
X102186084Y-91200711D01*
X102179944Y-91201270D01*
X102174030Y-91203011D01*
X102174028Y-91203011D01*
X102163917Y-91205987D01*
X101980055Y-91260101D01*
X101795399Y-91356636D01*
X101633011Y-91487200D01*
X101499075Y-91646818D01*
X101496105Y-91652221D01*
X101496104Y-91652222D01*
X101492281Y-91659176D01*
X101398693Y-91829411D01*
X101335690Y-92028025D01*
X101335004Y-92034142D01*
X101335003Y-92034146D01*
X101329699Y-92081434D01*
X101312463Y-92235093D01*
X100900500Y-92235093D01*
X100900500Y-87155093D01*
X101312463Y-87155093D01*
X101329899Y-87362730D01*
X101387333Y-87563025D01*
X101390151Y-87568507D01*
X101390152Y-87568511D01*
X101479756Y-87742862D01*
X101479759Y-87742866D01*
X101482577Y-87748350D01*
X101486408Y-87753183D01*
X101608174Y-87906816D01*
X101608179Y-87906821D01*
X101612003Y-87911646D01*
X101770683Y-88046693D01*
X101776061Y-88049699D01*
X101776063Y-88049700D01*
X101830009Y-88079849D01*
X101952571Y-88148346D01*
X102150740Y-88212735D01*
X102357641Y-88237407D01*
X102363776Y-88236935D01*
X102363778Y-88236935D01*
X102559252Y-88221894D01*
X102559256Y-88221893D01*
X102565394Y-88221421D01*
X102766085Y-88165387D01*
X102771589Y-88162607D01*
X102771591Y-88162606D01*
X102912720Y-88091317D01*
X116915965Y-88091317D01*
X116925847Y-88103806D01*
X117058362Y-88192350D01*
X117068472Y-88197840D01*
X117254077Y-88277582D01*
X117265020Y-88281137D01*
X117462042Y-88325719D01*
X117473452Y-88327221D01*
X117675307Y-88335152D01*
X117686789Y-88334550D01*
X117886712Y-88305563D01*
X117897894Y-88302878D01*
X118089185Y-88237943D01*
X118099688Y-88233267D01*
X118275950Y-88134556D01*
X118285422Y-88128046D01*
X118315435Y-88103084D01*
X118323889Y-88090496D01*
X118317717Y-88079849D01*
X117632812Y-87394944D01*
X117618868Y-87387330D01*
X117617035Y-87387461D01*
X117610420Y-87391712D01*
X116922161Y-88079971D01*
X116915965Y-88091317D01*
X102912720Y-88091317D01*
X102946570Y-88074218D01*
X102946572Y-88074217D01*
X102952071Y-88071439D01*
X103116266Y-87943156D01*
X103252417Y-87785423D01*
X103329526Y-87649688D01*
X103352294Y-87609610D01*
X103352296Y-87609606D01*
X103355339Y-87604249D01*
X103407351Y-87447894D01*
X103419164Y-87412382D01*
X103419165Y-87412379D01*
X103421109Y-87406534D01*
X103447225Y-87199810D01*
X103447641Y-87170000D01*
X103445211Y-87145218D01*
X116453800Y-87145218D01*
X116467011Y-87346789D01*
X116468811Y-87358156D01*
X116518537Y-87553950D01*
X116522375Y-87564788D01*
X116606949Y-87748244D01*
X116612700Y-87758205D01*
X116687944Y-87864673D01*
X116698534Y-87873062D01*
X116711834Y-87866034D01*
X117395056Y-87182812D01*
X117401434Y-87171132D01*
X117837330Y-87171132D01*
X117837461Y-87172965D01*
X117841712Y-87179580D01*
X118528686Y-87866554D01*
X118541994Y-87873821D01*
X118552033Y-87866699D01*
X118578046Y-87835422D01*
X118584556Y-87825950D01*
X118683267Y-87649688D01*
X118687943Y-87639185D01*
X118752878Y-87447894D01*
X118755563Y-87436712D01*
X118784846Y-87234749D01*
X118785476Y-87227366D01*
X118786881Y-87173704D01*
X118786638Y-87166305D01*
X118767966Y-86963092D01*
X118765868Y-86951771D01*
X118711038Y-86757357D01*
X118706913Y-86746610D01*
X118617566Y-86565435D01*
X118611556Y-86555628D01*
X118551835Y-86475651D01*
X118540577Y-86467202D01*
X118528158Y-86473974D01*
X117844944Y-87157188D01*
X117837330Y-87171132D01*
X117401434Y-87171132D01*
X117402670Y-87168868D01*
X117402539Y-87167035D01*
X117398288Y-87160420D01*
X116711848Y-86473980D01*
X116699007Y-86466968D01*
X116688318Y-86474763D01*
X116644868Y-86529880D01*
X116638597Y-86539536D01*
X116544546Y-86718298D01*
X116540138Y-86728941D01*
X116480235Y-86921857D01*
X116477845Y-86933101D01*
X116454101Y-87133717D01*
X116453800Y-87145218D01*
X103445211Y-87145218D01*
X103427308Y-86962627D01*
X103367083Y-86763154D01*
X103269261Y-86579176D01*
X103263590Y-86572222D01*
X103227427Y-86527882D01*
X103137567Y-86417704D01*
X102977017Y-86284885D01*
X102910092Y-86248699D01*
X116914763Y-86248699D01*
X116920596Y-86258464D01*
X117607188Y-86945056D01*
X117621132Y-86952670D01*
X117622965Y-86952539D01*
X117629580Y-86948288D01*
X118319305Y-86258563D01*
X118326919Y-86244619D01*
X118326882Y-86244102D01*
X118324377Y-86240367D01*
X118154680Y-86133296D01*
X118144436Y-86128076D01*
X117956808Y-86053220D01*
X117945770Y-86049950D01*
X117813121Y-86023565D01*
X117750211Y-85990658D01*
X117715079Y-85928963D01*
X117718879Y-85858068D01*
X117760404Y-85800482D01*
X117819622Y-85775290D01*
X117886712Y-85765563D01*
X117897894Y-85762878D01*
X118089185Y-85697943D01*
X118099688Y-85693267D01*
X118275950Y-85594556D01*
X118285422Y-85588046D01*
X118315435Y-85563084D01*
X118323889Y-85550496D01*
X118317717Y-85539849D01*
X117632812Y-84854944D01*
X117618868Y-84847330D01*
X117617035Y-84847461D01*
X117610420Y-84851712D01*
X116922161Y-85539971D01*
X116915965Y-85551317D01*
X116925847Y-85563806D01*
X117058362Y-85652350D01*
X117068472Y-85657840D01*
X117254077Y-85737582D01*
X117265022Y-85741138D01*
X117427751Y-85777959D01*
X117489778Y-85812501D01*
X117523283Y-85875095D01*
X117517629Y-85945866D01*
X117474611Y-86002345D01*
X117421283Y-86025032D01*
X117323660Y-86041807D01*
X117312541Y-86044787D01*
X117123019Y-86114705D01*
X117112641Y-86119655D01*
X116939034Y-86222940D01*
X116929725Y-86229704D01*
X116923159Y-86235463D01*
X116914763Y-86248699D01*
X102910092Y-86248699D01*
X102793728Y-86185781D01*
X102594679Y-86124165D01*
X102588554Y-86123521D01*
X102588553Y-86123521D01*
X102393582Y-86103029D01*
X102393580Y-86103029D01*
X102387453Y-86102385D01*
X102256739Y-86114281D01*
X102186085Y-86120711D01*
X102186084Y-86120711D01*
X102179944Y-86121270D01*
X102174030Y-86123011D01*
X102174028Y-86123011D01*
X102163917Y-86125987D01*
X101980055Y-86180101D01*
X101795399Y-86276636D01*
X101633011Y-86407200D01*
X101499075Y-86566818D01*
X101398693Y-86749411D01*
X101335690Y-86948025D01*
X101312463Y-87155093D01*
X100900500Y-87155093D01*
X100900500Y-84615093D01*
X101312463Y-84615093D01*
X101329899Y-84822730D01*
X101387333Y-85023025D01*
X101390151Y-85028507D01*
X101390152Y-85028511D01*
X101479756Y-85202862D01*
X101479759Y-85202866D01*
X101482577Y-85208350D01*
X101507714Y-85240065D01*
X101608174Y-85366816D01*
X101608179Y-85366821D01*
X101612003Y-85371646D01*
X101770683Y-85506693D01*
X101776061Y-85509699D01*
X101776063Y-85509700D01*
X101830009Y-85539849D01*
X101952571Y-85608346D01*
X102150740Y-85672735D01*
X102357641Y-85697407D01*
X102363776Y-85696935D01*
X102363778Y-85696935D01*
X102559252Y-85681894D01*
X102559256Y-85681893D01*
X102565394Y-85681421D01*
X102766085Y-85625387D01*
X102771589Y-85622607D01*
X102771591Y-85622606D01*
X102946570Y-85534218D01*
X102946572Y-85534217D01*
X102952071Y-85531439D01*
X103116266Y-85403156D01*
X103252417Y-85245423D01*
X103324087Y-85119262D01*
X103375125Y-85069912D01*
X103433642Y-85055500D01*
X110170634Y-85055500D01*
X110238755Y-85075502D01*
X110257331Y-85091631D01*
X110257830Y-85091083D01*
X110377612Y-85200077D01*
X110377616Y-85200080D01*
X110383233Y-85205191D01*
X110389906Y-85208814D01*
X110389910Y-85208817D01*
X110525558Y-85282467D01*
X110525560Y-85282468D01*
X110532235Y-85286092D01*
X110539584Y-85288020D01*
X110688883Y-85327188D01*
X110688885Y-85327188D01*
X110696233Y-85329116D01*
X110782609Y-85330473D01*
X110858161Y-85331660D01*
X110858164Y-85331660D01*
X110865760Y-85331779D01*
X110873165Y-85330083D01*
X110873166Y-85330083D01*
X110933586Y-85316245D01*
X111031029Y-85293928D01*
X111182498Y-85217747D01*
X111311423Y-85107634D01*
X111410361Y-84969947D01*
X111413194Y-84962900D01*
X111470766Y-84819687D01*
X111470767Y-84819685D01*
X111473601Y-84812634D01*
X111497490Y-84644778D01*
X111497645Y-84630000D01*
X111494646Y-84605218D01*
X116453800Y-84605218D01*
X116467011Y-84806789D01*
X116468811Y-84818156D01*
X116518537Y-85013950D01*
X116522375Y-85024788D01*
X116606949Y-85208244D01*
X116612700Y-85218205D01*
X116687944Y-85324673D01*
X116698534Y-85333062D01*
X116711834Y-85326034D01*
X117395056Y-84642812D01*
X117401434Y-84631132D01*
X117837330Y-84631132D01*
X117837461Y-84632965D01*
X117841712Y-84639580D01*
X118528686Y-85326554D01*
X118541994Y-85333821D01*
X118552033Y-85326699D01*
X118578046Y-85295422D01*
X118584556Y-85285950D01*
X118683267Y-85109688D01*
X118687943Y-85099185D01*
X118752878Y-84907894D01*
X118755563Y-84896712D01*
X118784846Y-84694749D01*
X118785476Y-84687366D01*
X118786881Y-84633704D01*
X118786638Y-84626305D01*
X118767966Y-84423092D01*
X118765868Y-84411771D01*
X118711038Y-84217357D01*
X118706913Y-84206610D01*
X118617566Y-84025435D01*
X118611556Y-84015628D01*
X118551835Y-83935651D01*
X118540577Y-83927202D01*
X118528158Y-83933974D01*
X117844944Y-84617188D01*
X117837330Y-84631132D01*
X117401434Y-84631132D01*
X117402670Y-84628868D01*
X117402539Y-84627035D01*
X117398288Y-84620420D01*
X116711848Y-83933980D01*
X116699007Y-83926968D01*
X116688318Y-83934763D01*
X116644868Y-83989880D01*
X116638597Y-83999536D01*
X116544546Y-84178298D01*
X116540138Y-84188941D01*
X116480235Y-84381857D01*
X116477845Y-84393101D01*
X116454101Y-84593717D01*
X116453800Y-84605218D01*
X111494646Y-84605218D01*
X111477276Y-84461680D01*
X111417345Y-84303077D01*
X111351045Y-84206610D01*
X111325614Y-84169608D01*
X111325613Y-84169607D01*
X111321312Y-84163349D01*
X111315119Y-84157831D01*
X111200392Y-84055612D01*
X111200388Y-84055610D01*
X111194721Y-84050560D01*
X111183499Y-84044618D01*
X111080116Y-83989880D01*
X111044881Y-83971224D01*
X110880441Y-83929919D01*
X110872843Y-83929879D01*
X110872841Y-83929879D01*
X110795668Y-83929475D01*
X110710895Y-83929031D01*
X110703508Y-83930805D01*
X110703504Y-83930805D01*
X110560162Y-83965220D01*
X110546032Y-83968612D01*
X110539288Y-83972093D01*
X110539285Y-83972094D01*
X110435939Y-84025435D01*
X110395369Y-84046375D01*
X110389647Y-84051367D01*
X110389645Y-84051368D01*
X110273332Y-84152834D01*
X110267604Y-84157831D01*
X110263918Y-84163076D01*
X110203905Y-84200049D01*
X110170713Y-84204500D01*
X103432873Y-84204500D01*
X103364752Y-84184498D01*
X103321622Y-84137653D01*
X103272155Y-84044618D01*
X103272153Y-84044615D01*
X103269261Y-84039176D01*
X103265371Y-84034406D01*
X103265368Y-84034402D01*
X103177746Y-83926968D01*
X103137567Y-83877704D01*
X102977017Y-83744885D01*
X102910092Y-83708699D01*
X116914763Y-83708699D01*
X116920596Y-83718464D01*
X117607188Y-84405056D01*
X117621132Y-84412670D01*
X117622965Y-84412539D01*
X117629580Y-84408288D01*
X118319305Y-83718563D01*
X118326919Y-83704619D01*
X118326882Y-83704102D01*
X118324377Y-83700367D01*
X118154680Y-83593296D01*
X118144436Y-83588076D01*
X117956808Y-83513220D01*
X117945770Y-83509950D01*
X117747650Y-83470542D01*
X117736203Y-83469339D01*
X117534222Y-83466695D01*
X117522742Y-83467598D01*
X117323661Y-83501807D01*
X117312541Y-83504787D01*
X117123019Y-83574705D01*
X117112641Y-83579655D01*
X116939034Y-83682940D01*
X116929725Y-83689704D01*
X116923159Y-83695463D01*
X116914763Y-83708699D01*
X102910092Y-83708699D01*
X102793728Y-83645781D01*
X102594679Y-83584165D01*
X102588554Y-83583521D01*
X102588553Y-83583521D01*
X102393582Y-83563029D01*
X102393580Y-83563029D01*
X102387453Y-83562385D01*
X102256739Y-83574281D01*
X102186085Y-83580711D01*
X102186084Y-83580711D01*
X102179944Y-83581270D01*
X102174030Y-83583011D01*
X102174028Y-83583011D01*
X102163917Y-83585987D01*
X101980055Y-83640101D01*
X101795399Y-83736636D01*
X101633011Y-83867200D01*
X101499075Y-84026818D01*
X101398693Y-84209411D01*
X101335690Y-84408025D01*
X101335004Y-84414142D01*
X101335003Y-84414146D01*
X101314861Y-84593717D01*
X101312463Y-84615093D01*
X100900500Y-84615093D01*
X100900500Y-83011317D01*
X101675965Y-83011317D01*
X101685847Y-83023806D01*
X101818362Y-83112350D01*
X101828472Y-83117840D01*
X102014077Y-83197582D01*
X102025020Y-83201137D01*
X102222042Y-83245719D01*
X102233452Y-83247221D01*
X102435307Y-83255152D01*
X102446789Y-83254550D01*
X102646712Y-83225563D01*
X102657894Y-83222878D01*
X102849185Y-83157943D01*
X102859688Y-83153267D01*
X103035950Y-83054556D01*
X103045422Y-83048046D01*
X103075435Y-83023084D01*
X103083889Y-83010496D01*
X103077717Y-82999849D01*
X102392812Y-82314944D01*
X102378868Y-82307330D01*
X102377035Y-82307461D01*
X102370420Y-82311712D01*
X101682161Y-82999971D01*
X101675965Y-83011317D01*
X100900500Y-83011317D01*
X100900500Y-82065218D01*
X101213800Y-82065218D01*
X101227011Y-82266789D01*
X101228811Y-82278156D01*
X101278537Y-82473950D01*
X101282375Y-82484788D01*
X101366949Y-82668244D01*
X101372700Y-82678205D01*
X101447944Y-82784673D01*
X101458534Y-82793062D01*
X101471834Y-82786034D01*
X102155056Y-82102812D01*
X102161434Y-82091132D01*
X102597330Y-82091132D01*
X102597461Y-82092965D01*
X102601712Y-82099580D01*
X103288686Y-82786554D01*
X103301994Y-82793821D01*
X103312033Y-82786699D01*
X103338046Y-82755422D01*
X103344556Y-82745950D01*
X103443267Y-82569688D01*
X103447943Y-82559185D01*
X103512878Y-82367894D01*
X103515563Y-82356712D01*
X103544846Y-82154749D01*
X103545476Y-82147366D01*
X103546881Y-82093704D01*
X103546638Y-82086305D01*
X103527966Y-81883092D01*
X103525868Y-81871771D01*
X103471038Y-81677357D01*
X103466913Y-81666610D01*
X103377566Y-81485435D01*
X103371556Y-81475628D01*
X103311835Y-81395651D01*
X103300577Y-81387202D01*
X103288158Y-81393974D01*
X102604944Y-82077188D01*
X102597330Y-82091132D01*
X102161434Y-82091132D01*
X102162670Y-82088868D01*
X102162539Y-82087035D01*
X102158288Y-82080420D01*
X101471848Y-81393980D01*
X101459007Y-81386968D01*
X101448318Y-81394763D01*
X101404868Y-81449880D01*
X101398597Y-81459536D01*
X101304546Y-81638298D01*
X101300138Y-81648941D01*
X101240235Y-81841857D01*
X101237845Y-81853101D01*
X101214101Y-82053717D01*
X101213800Y-82065218D01*
X100900500Y-82065218D01*
X100900500Y-81168699D01*
X101674763Y-81168699D01*
X101680596Y-81178464D01*
X102367188Y-81865056D01*
X102381132Y-81872670D01*
X102382965Y-81872539D01*
X102389580Y-81868288D01*
X103079305Y-81178563D01*
X103086919Y-81164619D01*
X103086882Y-81164102D01*
X103084377Y-81160367D01*
X102914680Y-81053296D01*
X102904436Y-81048076D01*
X102716808Y-80973220D01*
X102705770Y-80969950D01*
X102507650Y-80930542D01*
X102496203Y-80929339D01*
X102294222Y-80926695D01*
X102282742Y-80927598D01*
X102083661Y-80961807D01*
X102072541Y-80964787D01*
X101883019Y-81034705D01*
X101872641Y-81039655D01*
X101699034Y-81142940D01*
X101689725Y-81149704D01*
X101683159Y-81155463D01*
X101674763Y-81168699D01*
X100900500Y-81168699D01*
X100900500Y-79882253D01*
X100902051Y-79862543D01*
X100903941Y-79850609D01*
X100905492Y-79840816D01*
X100903915Y-79830857D01*
X100902563Y-79804090D01*
X100913018Y-79617871D01*
X100914600Y-79603829D01*
X100924339Y-79546512D01*
X100926279Y-79535093D01*
X101312463Y-79535093D01*
X101329899Y-79742730D01*
X101387333Y-79943025D01*
X101390151Y-79948507D01*
X101390152Y-79948511D01*
X101479756Y-80122862D01*
X101479759Y-80122866D01*
X101482577Y-80128350D01*
X101486408Y-80133183D01*
X101608174Y-80286816D01*
X101608179Y-80286821D01*
X101612003Y-80291646D01*
X101770683Y-80426693D01*
X101776061Y-80429699D01*
X101776063Y-80429700D01*
X101861627Y-80477520D01*
X101952571Y-80528346D01*
X102150740Y-80592735D01*
X102357641Y-80617407D01*
X102363776Y-80616935D01*
X102363778Y-80616935D01*
X102559252Y-80601894D01*
X102559256Y-80601893D01*
X102565394Y-80601421D01*
X102766085Y-80545387D01*
X102771589Y-80542607D01*
X102771591Y-80542606D01*
X102946570Y-80454218D01*
X102946572Y-80454217D01*
X102952071Y-80451439D01*
X103116266Y-80323156D01*
X103252417Y-80165423D01*
X103355339Y-79984249D01*
X103395825Y-79862543D01*
X103419164Y-79792382D01*
X103419165Y-79792379D01*
X103421109Y-79786534D01*
X103442417Y-79617871D01*
X103446783Y-79583312D01*
X103446784Y-79583305D01*
X103447225Y-79579810D01*
X103447641Y-79550000D01*
X103427308Y-79342627D01*
X103367083Y-79143154D01*
X103269261Y-78959176D01*
X103263590Y-78952222D01*
X103227427Y-78907882D01*
X103137567Y-78797704D01*
X102977017Y-78664885D01*
X102793728Y-78565781D01*
X102594679Y-78504165D01*
X102588554Y-78503521D01*
X102588553Y-78503521D01*
X102393582Y-78483029D01*
X102393580Y-78483029D01*
X102387453Y-78482385D01*
X102256739Y-78494281D01*
X102186085Y-78500711D01*
X102186084Y-78500711D01*
X102179944Y-78501270D01*
X102174030Y-78503011D01*
X102174028Y-78503011D01*
X102163917Y-78505987D01*
X101980055Y-78560101D01*
X101795399Y-78656636D01*
X101633011Y-78787200D01*
X101499075Y-78946818D01*
X101496105Y-78952221D01*
X101496104Y-78952222D01*
X101492281Y-78959176D01*
X101398693Y-79129411D01*
X101335690Y-79328025D01*
X101312463Y-79535093D01*
X100926279Y-79535093D01*
X100950818Y-79390662D01*
X100953962Y-79376887D01*
X101013818Y-79169117D01*
X101018485Y-79155779D01*
X101101231Y-78956012D01*
X101107355Y-78943295D01*
X101211956Y-78754031D01*
X101219462Y-78742086D01*
X101344588Y-78565737D01*
X101353399Y-78554689D01*
X101477657Y-78415646D01*
X101497543Y-78397672D01*
X101497703Y-78397556D01*
X101497706Y-78397553D01*
X101505726Y-78391726D01*
X101518655Y-78373931D01*
X101531495Y-78358898D01*
X101786768Y-78103625D01*
X101849080Y-78069599D01*
X101887390Y-78067249D01*
X101944533Y-78072500D01*
X101947431Y-78072500D01*
X102381129Y-78072499D01*
X102815466Y-78072499D01*
X102818325Y-78072236D01*
X102818332Y-78072236D01*
X102847031Y-78069599D01*
X102886106Y-78066009D01*
X103001890Y-78029725D01*
X103036258Y-78018955D01*
X103036260Y-78018954D01*
X103043507Y-78016683D01*
X103184598Y-77931235D01*
X103301235Y-77814598D01*
X103386683Y-77673507D01*
X103400291Y-77630085D01*
X103434008Y-77522492D01*
X103434008Y-77522490D01*
X103436009Y-77516106D01*
X103442500Y-77445467D01*
X103442500Y-77010000D01*
X103442499Y-76577417D01*
X103442499Y-76574534D01*
X103442234Y-76571643D01*
X103436620Y-76510549D01*
X103436009Y-76503894D01*
X103386683Y-76346493D01*
X103301235Y-76205402D01*
X103184598Y-76088765D01*
X103043507Y-76003317D01*
X103036260Y-76001046D01*
X103036258Y-76001045D01*
X102994394Y-75987926D01*
X102935372Y-75948469D01*
X102907052Y-75883365D01*
X102918425Y-75813285D01*
X102965880Y-75760479D01*
X103007492Y-75744113D01*
X103092516Y-75727201D01*
X103100468Y-75725070D01*
X103378154Y-75630808D01*
X103385758Y-75627658D01*
X103648764Y-75497959D01*
X103655901Y-75493838D01*
X103899724Y-75330921D01*
X103906261Y-75325905D01*
X104003196Y-75240895D01*
X104011593Y-75227656D01*
X104005760Y-75217892D01*
X102512812Y-73724944D01*
X102498868Y-73717330D01*
X102497035Y-73717461D01*
X102490420Y-73721712D01*
X100995995Y-75216137D01*
X100988481Y-75229898D01*
X100994939Y-75239259D01*
X101093739Y-75325905D01*
X101100276Y-75330921D01*
X101344099Y-75493838D01*
X101351236Y-75497959D01*
X101614242Y-75627658D01*
X101621842Y-75630806D01*
X101872304Y-75715827D01*
X101930380Y-75756664D01*
X101957158Y-75822417D01*
X101944137Y-75892209D01*
X101895450Y-75943883D01*
X101869481Y-75955374D01*
X101723742Y-76001045D01*
X101723740Y-76001046D01*
X101716493Y-76003317D01*
X101575402Y-76088765D01*
X101458765Y-76205402D01*
X101373317Y-76346493D01*
X101371046Y-76353740D01*
X101371045Y-76353742D01*
X101325992Y-76497508D01*
X101323991Y-76503894D01*
X101317500Y-76574533D01*
X101317501Y-77006512D01*
X101317501Y-77387916D01*
X101297499Y-77456037D01*
X101280596Y-77477011D01*
X100965102Y-77792505D01*
X100950069Y-77805345D01*
X100932274Y-77818274D01*
X100926448Y-77826293D01*
X100925539Y-77827202D01*
X100919308Y-77834871D01*
X100744960Y-78027235D01*
X100743116Y-78029721D01*
X100743113Y-78029725D01*
X100708100Y-78076935D01*
X100577839Y-78252572D01*
X100576248Y-78255227D01*
X100576245Y-78255231D01*
X100534574Y-78324755D01*
X100482397Y-78372902D01*
X100412473Y-78385196D01*
X100347002Y-78357734D01*
X100306772Y-78299236D01*
X100300500Y-78259979D01*
X100300500Y-74763472D01*
X100320502Y-74695351D01*
X100374158Y-74648858D01*
X100444432Y-74638754D01*
X100509012Y-74668248D01*
X100531265Y-74693470D01*
X100669079Y-74899724D01*
X100674095Y-74906261D01*
X100759105Y-75003196D01*
X100772344Y-75011593D01*
X100782108Y-75005760D01*
X102410905Y-73376963D01*
X102473217Y-73342937D01*
X102544032Y-73348002D01*
X102589095Y-73376963D01*
X104216137Y-75004005D01*
X104229898Y-75011519D01*
X104239259Y-75005061D01*
X104325905Y-74906261D01*
X104330921Y-74899724D01*
X104468735Y-74693470D01*
X104523212Y-74647942D01*
X104593655Y-74639094D01*
X104657699Y-74669735D01*
X104695010Y-74730137D01*
X104699500Y-74763472D01*
X104699500Y-81962683D01*
X104697586Y-81984563D01*
X104694864Y-82000000D01*
X104695975Y-82006300D01*
X104696756Y-82016227D01*
X104696756Y-82016228D01*
X104702288Y-82086512D01*
X104711540Y-82204072D01*
X104712694Y-82208879D01*
X104712695Y-82208885D01*
X104740941Y-82326534D01*
X104759327Y-82403119D01*
X104761220Y-82407690D01*
X104761221Y-82407692D01*
X104828322Y-82569688D01*
X104837663Y-82592240D01*
X104944620Y-82766778D01*
X105077564Y-82922436D01*
X105233222Y-83055380D01*
X105407760Y-83162337D01*
X105412330Y-83164230D01*
X105412334Y-83164232D01*
X105592308Y-83238779D01*
X105596881Y-83240673D01*
X105654683Y-83254550D01*
X105791115Y-83287305D01*
X105791121Y-83287306D01*
X105795928Y-83288460D01*
X105938144Y-83299653D01*
X105940605Y-83300054D01*
X105940622Y-83299883D01*
X105943851Y-83300200D01*
X105943859Y-83300200D01*
X105946915Y-83300500D01*
X105948880Y-83300500D01*
X105948990Y-83300507D01*
X105983732Y-83303242D01*
X105983738Y-83303241D01*
X105993700Y-83304025D01*
X106000000Y-83305136D01*
X106010855Y-83303222D01*
X106010856Y-83303222D01*
X106015437Y-83302414D01*
X106037317Y-83300500D01*
X113962683Y-83300500D01*
X113984563Y-83302414D01*
X113989144Y-83303222D01*
X113989145Y-83303222D01*
X114000000Y-83305136D01*
X114006300Y-83304025D01*
X114016227Y-83303244D01*
X114016228Y-83303244D01*
X114112698Y-83295651D01*
X114204072Y-83288460D01*
X114208879Y-83287306D01*
X114208885Y-83287305D01*
X114345317Y-83254550D01*
X114403119Y-83240673D01*
X114407692Y-83238779D01*
X114587666Y-83164232D01*
X114587670Y-83164230D01*
X114592240Y-83162337D01*
X114766778Y-83055380D01*
X114922436Y-82922436D01*
X115055380Y-82766778D01*
X115162337Y-82592240D01*
X115171679Y-82569688D01*
X115238779Y-82407692D01*
X115238780Y-82407690D01*
X115240673Y-82403119D01*
X115259059Y-82326534D01*
X115287305Y-82208885D01*
X115287306Y-82208879D01*
X115288460Y-82204072D01*
X115298611Y-82075093D01*
X116552463Y-82075093D01*
X116569899Y-82282730D01*
X116627333Y-82483025D01*
X116630151Y-82488507D01*
X116630152Y-82488511D01*
X116719756Y-82662862D01*
X116719759Y-82662866D01*
X116722577Y-82668350D01*
X116726408Y-82673183D01*
X116848174Y-82826816D01*
X116848179Y-82826821D01*
X116852003Y-82831646D01*
X117010683Y-82966693D01*
X117016061Y-82969699D01*
X117016063Y-82969700D01*
X117070009Y-82999849D01*
X117192571Y-83068346D01*
X117390740Y-83132735D01*
X117597641Y-83157407D01*
X117603776Y-83156935D01*
X117603778Y-83156935D01*
X117799252Y-83141894D01*
X117799256Y-83141893D01*
X117805394Y-83141421D01*
X118006085Y-83085387D01*
X118011589Y-83082607D01*
X118011591Y-83082606D01*
X118186570Y-82994218D01*
X118186572Y-82994217D01*
X118192071Y-82991439D01*
X118356266Y-82863156D01*
X118492417Y-82705423D01*
X118496726Y-82697838D01*
X118592294Y-82529610D01*
X118592296Y-82529606D01*
X118595339Y-82524249D01*
X118647351Y-82367894D01*
X118659164Y-82332382D01*
X118659165Y-82332379D01*
X118661109Y-82326534D01*
X118676580Y-82204072D01*
X118686783Y-82123312D01*
X118686784Y-82123305D01*
X118687225Y-82119810D01*
X118687641Y-82090000D01*
X118667308Y-81882627D01*
X118607083Y-81683154D01*
X118509261Y-81499176D01*
X118503590Y-81492222D01*
X118467427Y-81447882D01*
X118377567Y-81337704D01*
X118217017Y-81204885D01*
X118033728Y-81105781D01*
X117834679Y-81044165D01*
X117828554Y-81043521D01*
X117828553Y-81043521D01*
X117633582Y-81023029D01*
X117633580Y-81023029D01*
X117627453Y-81022385D01*
X117496739Y-81034281D01*
X117426085Y-81040711D01*
X117426084Y-81040711D01*
X117419944Y-81041270D01*
X117414030Y-81043011D01*
X117414028Y-81043011D01*
X117403917Y-81045987D01*
X117220055Y-81100101D01*
X117035399Y-81196636D01*
X116873011Y-81327200D01*
X116739075Y-81486818D01*
X116638693Y-81669411D01*
X116575690Y-81868025D01*
X116575004Y-81874142D01*
X116575003Y-81874146D01*
X116554932Y-82053085D01*
X116552463Y-82075093D01*
X115298611Y-82075093D01*
X115299653Y-82061856D01*
X115300054Y-82059395D01*
X115299883Y-82059378D01*
X115300200Y-82056149D01*
X115300200Y-82056141D01*
X115300500Y-82053085D01*
X115300500Y-82051120D01*
X115300507Y-82051010D01*
X115303242Y-82016268D01*
X115303241Y-82016262D01*
X115304025Y-82006300D01*
X115305136Y-82000000D01*
X115302414Y-81984563D01*
X115300500Y-81962683D01*
X115300500Y-79535093D01*
X116552463Y-79535093D01*
X116569899Y-79742730D01*
X116627333Y-79943025D01*
X116630151Y-79948507D01*
X116630152Y-79948511D01*
X116719756Y-80122862D01*
X116719759Y-80122866D01*
X116722577Y-80128350D01*
X116726408Y-80133183D01*
X116848174Y-80286816D01*
X116848179Y-80286821D01*
X116852003Y-80291646D01*
X117010683Y-80426693D01*
X117016061Y-80429699D01*
X117016063Y-80429700D01*
X117101627Y-80477520D01*
X117192571Y-80528346D01*
X117390740Y-80592735D01*
X117597641Y-80617407D01*
X117603776Y-80616935D01*
X117603778Y-80616935D01*
X117799252Y-80601894D01*
X117799256Y-80601893D01*
X117805394Y-80601421D01*
X118006085Y-80545387D01*
X118011589Y-80542607D01*
X118011591Y-80542606D01*
X118186570Y-80454218D01*
X118186572Y-80454217D01*
X118192071Y-80451439D01*
X118356266Y-80323156D01*
X118492417Y-80165423D01*
X118595339Y-79984249D01*
X118635825Y-79862543D01*
X118659164Y-79792382D01*
X118659165Y-79792379D01*
X118661109Y-79786534D01*
X118682417Y-79617871D01*
X118686783Y-79583312D01*
X118686784Y-79583305D01*
X118687225Y-79579810D01*
X118687641Y-79550000D01*
X118667308Y-79342627D01*
X118607083Y-79143154D01*
X118509261Y-78959176D01*
X118503590Y-78952222D01*
X118467427Y-78907882D01*
X118377567Y-78797704D01*
X118217017Y-78664885D01*
X118033728Y-78565781D01*
X117834679Y-78504165D01*
X117828554Y-78503521D01*
X117828553Y-78503521D01*
X117633582Y-78483029D01*
X117633580Y-78483029D01*
X117627453Y-78482385D01*
X117496739Y-78494281D01*
X117426085Y-78500711D01*
X117426084Y-78500711D01*
X117419944Y-78501270D01*
X117414030Y-78503011D01*
X117414028Y-78503011D01*
X117403917Y-78505987D01*
X117220055Y-78560101D01*
X117035399Y-78656636D01*
X116873011Y-78787200D01*
X116739075Y-78946818D01*
X116736105Y-78952221D01*
X116736104Y-78952222D01*
X116732281Y-78959176D01*
X116638693Y-79129411D01*
X116575690Y-79328025D01*
X116552463Y-79535093D01*
X115300500Y-79535093D01*
X115300500Y-75229898D01*
X115988481Y-75229898D01*
X115994939Y-75239259D01*
X116093739Y-75325905D01*
X116100276Y-75330921D01*
X116344099Y-75493838D01*
X116351236Y-75497959D01*
X116614242Y-75627658D01*
X116621846Y-75630808D01*
X116899532Y-75725070D01*
X116907484Y-75727201D01*
X117189922Y-75783381D01*
X117252832Y-75816288D01*
X117287964Y-75877983D01*
X117284164Y-75948878D01*
X117242638Y-76006464D01*
X117219798Y-76019609D01*
X117220055Y-76020101D01*
X117035399Y-76116636D01*
X116873011Y-76247200D01*
X116739075Y-76406818D01*
X116638693Y-76589411D01*
X116575690Y-76788025D01*
X116552463Y-76995093D01*
X116569899Y-77202730D01*
X116627333Y-77403025D01*
X116630151Y-77408507D01*
X116630152Y-77408511D01*
X116719756Y-77582862D01*
X116719759Y-77582866D01*
X116722577Y-77588350D01*
X116726408Y-77593183D01*
X116848174Y-77746816D01*
X116848179Y-77746821D01*
X116852003Y-77751646D01*
X117010683Y-77886693D01*
X117016061Y-77889699D01*
X117016063Y-77889700D01*
X117080768Y-77925862D01*
X117192571Y-77988346D01*
X117390740Y-78052735D01*
X117597641Y-78077407D01*
X117603776Y-78076935D01*
X117603778Y-78076935D01*
X117799252Y-78061894D01*
X117799256Y-78061893D01*
X117805394Y-78061421D01*
X118006085Y-78005387D01*
X118011589Y-78002607D01*
X118011591Y-78002606D01*
X118186570Y-77914218D01*
X118186572Y-77914217D01*
X118192071Y-77911439D01*
X118356266Y-77783156D01*
X118492417Y-77625423D01*
X118516595Y-77582862D01*
X118592294Y-77449610D01*
X118592296Y-77449606D01*
X118595339Y-77444249D01*
X118661109Y-77246534D01*
X118687225Y-77039810D01*
X118687641Y-77010000D01*
X118667308Y-76802627D01*
X118607083Y-76603154D01*
X118509261Y-76419176D01*
X118503590Y-76412222D01*
X118444684Y-76339997D01*
X118377567Y-76257704D01*
X118217017Y-76124885D01*
X118033728Y-76025781D01*
X117944312Y-75998102D01*
X117885153Y-75958850D01*
X117856606Y-75893846D01*
X117867735Y-75823727D01*
X117915006Y-75770756D01*
X117956991Y-75754158D01*
X118092516Y-75727201D01*
X118100468Y-75725070D01*
X118378154Y-75630808D01*
X118385758Y-75627658D01*
X118648764Y-75497959D01*
X118655901Y-75493838D01*
X118899724Y-75330921D01*
X118906261Y-75325905D01*
X119003196Y-75240895D01*
X119011593Y-75227656D01*
X119005760Y-75217892D01*
X117512812Y-73724944D01*
X117498868Y-73717330D01*
X117497035Y-73717461D01*
X117490420Y-73721712D01*
X115995995Y-75216137D01*
X115988481Y-75229898D01*
X115300500Y-75229898D01*
X115300500Y-74763472D01*
X115320502Y-74695351D01*
X115374158Y-74648858D01*
X115444432Y-74638754D01*
X115509012Y-74668248D01*
X115531265Y-74693470D01*
X115669079Y-74899724D01*
X115674095Y-74906261D01*
X115759105Y-75003196D01*
X115772344Y-75011593D01*
X115782108Y-75005760D01*
X117410905Y-73376963D01*
X117473217Y-73342937D01*
X117544032Y-73348002D01*
G37*
%TD.AperFunction*%
%TD*%
M02*
