  0
SECTION
  2
HEADER
  9
$ANGBASE
  50
0.0
  9
$ANGDIR
  70
1
  9
$MEASUREMENT
  70
0
  0
ENDSEC
  0
SECTION
  2
TABLES
  0
TABLE
  2
LTYPE
  70
4
  0
LTYPE
  5
40F
  2
CONTINUOUS
  70
0
  3
Solid line
  72
65
  73
0
  40
0.0
  0
LTYPE
  5
410
  2
DASHDOT
 70
0
  3
Dash Dot ____ _ ____ _
 72
65
 73
4
 40
2.0
 49
1.25
 49
-0.25
 49
0.25
 49
-0.25
  0
LTYPE
  5
411
  2
DASHED
 70
0
  3
Dashed __ __ __ __ __
 72
65
 73
2
 40
0.75
 49
0.5
 49
-0.25
  0
LTYPE
  5
43B
  2
DOTTED
 70
0
  3
Dotted .  .  .  .
 72
65
 73
2
 40
0.2
 49
0.0
 49
-0.2
  0
ENDTAB
  0
TABLE
  2
STYLE
  70
4
  0
STYLE
  2
KICAD
  70
0
  40
0
  41
1
  42
1
  50
0
  71
0
  3
isocp.shx
  0
STYLE
  2
KICADB
  70
0
  40
0
  41
1
  42
1
  50
0
  71
0
  3
isocp.shx
  0
STYLE
  2
KICADI
  70
0
  40
0
  41
1
  42
1
  50
15
  71
0
  3
isocp.shx
  0
STYLE
  2
KICADBI
  70
0
  40
0
  41
1
  42
1
  50
15
  71
0
  3
isocp.shx
  0
ENDTAB
  0
TABLE
  2
LAYER
  70
1
  0
LAYER
  2
BLACK
  70
0
  62
7
  6
CONTINUOUS
  0
ENDTAB
  0
ENDSEC
  0
SECTION
  2
ENTITIES
0
LINE
8
BLACK
6
CONTINUOUS
10
4.49471
20
-3.26532
11
4.50103
21
-3.26363
0
LINE
8
BLACK
6
CONTINUOUS
10
4.50103
20
-3.26363
11
4.50696
21
-3.26086
0
LINE
8
BLACK
6
CONTINUOUS
10
4.50696
20
-3.26086
11
4.51232
21
-3.25711
0
LINE
8
BLACK
6
CONTINUOUS
10
4.51232
20
-3.25711
11
4.51695
21
-3.25248
0
LINE
8
BLACK
6
CONTINUOUS
10
4.51695
20
-3.25248
11
4.5207
21
-3.24712
0
LINE
8
BLACK
6
CONTINUOUS
10
4.5207
20
-3.24712
11
4.52347
21
-3.24119
0
LINE
8
BLACK
6
CONTINUOUS
10
4.52347
20
-3.24119
11
4.52516
21
-3.23487
0
LINE
8
BLACK
6
CONTINUOUS
10
4.52516
20
-3.23487
11
4.52571
21
-3.22863
0
LINE
8
BLACK
6
CONTINUOUS
10
4.52571
20
-3.22863
11
4.52559
21
-3.22835
0
LINE
8
BLACK
6
CONTINUOUS
10
4.52559
20
-3.22835
11
4.52559
21
-2.87402
0
LINE
8
BLACK
6
CONTINUOUS
10
4.52559
20
-2.87402
11
4.52628
21
-2.86348
0
LINE
8
BLACK
6
CONTINUOUS
10
4.52628
20
-2.86348
11
4.52834
21
-2.85313
0
LINE
8
BLACK
6
CONTINUOUS
10
4.52834
20
-2.85313
11
4.53173
21
-2.84313
0
LINE
8
BLACK
6
CONTINUOUS
10
4.53173
20
-2.84313
11
4.5364
21
-2.83366
0
LINE
8
BLACK
6
CONTINUOUS
10
4.5364
20
-2.83366
11
4.54227
21
-2.82488
0
LINE
8
BLACK
6
CONTINUOUS
10
4.54227
20
-2.82488
11
4.54923
21
-2.81695
0
LINE
8
BLACK
6
CONTINUOUS
10
4.54923
20
-2.81695
11
4.55717
21
-2.80999
0
LINE
8
BLACK
6
CONTINUOUS
10
4.55717
20
-2.80999
11
4.56594
21
-2.80412
0
LINE
8
BLACK
6
CONTINUOUS
10
4.56594
20
-2.80412
11
4.57541
21
-2.79945
0
LINE
8
BLACK
6
CONTINUOUS
10
4.57541
20
-2.79945
11
4.58541
21
-2.79606
0
LINE
8
BLACK
6
CONTINUOUS
10
4.58541
20
-2.79606
11
4.59576
21
-2.794
0
LINE
8
BLACK
6
CONTINUOUS
10
4.59576
20
-2.794
11
4.6063
21
-2.79331
0
LINE
8
BLACK
6
CONTINUOUS
10
4.6063
20
-2.79331
11
4.64567
21
-2.79331
0
LINE
8
BLACK
6
CONTINUOUS
10
4.64567
20
-2.79331
11
4.6562
21
-2.794
0
LINE
8
BLACK
6
CONTINUOUS
10
4.6562
20
-2.794
11
4.66656
21
-2.79606
0
LINE
8
BLACK
6
CONTINUOUS
10
4.66656
20
-2.79606
11
4.67656
21
-2.79945
0
LINE
8
BLACK
6
CONTINUOUS
10
4.67656
20
-2.79945
11
4.68602
21
-2.80412
0
LINE
8
BLACK
6
CONTINUOUS
10
4.68602
20
-2.80412
11
4.6948
21
-2.80999
0
LINE
8
BLACK
6
CONTINUOUS
10
4.6948
20
-2.80999
11
4.70274
21
-2.81695
0
LINE
8
BLACK
6
CONTINUOUS
10
4.70274
20
-2.81695
11
4.7097
21
-2.82488
0
LINE
8
BLACK
6
CONTINUOUS
10
4.7097
20
-2.82488
11
4.71557
21
-2.83366
0
LINE
8
BLACK
6
CONTINUOUS
10
4.71557
20
-2.83366
11
4.72023
21
-2.84313
0
LINE
8
BLACK
6
CONTINUOUS
10
4.72023
20
-2.84313
11
4.72363
21
-2.85313
0
LINE
8
BLACK
6
CONTINUOUS
10
4.72363
20
-2.85313
11
4.72569
21
-2.86348
0
LINE
8
BLACK
6
CONTINUOUS
10
4.72569
20
-2.86348
11
4.72638
21
-2.87402
0
LINE
8
BLACK
6
CONTINUOUS
10
4.72638
20
-2.87402
11
4.72638
21
-5.47244
0
LINE
8
BLACK
6
CONTINUOUS
10
4.72638
20
-5.47244
11
4.72569
21
-5.48298
0
LINE
8
BLACK
6
CONTINUOUS
10
4.72569
20
-5.48298
11
4.72363
21
-5.49333
0
LINE
8
BLACK
6
CONTINUOUS
10
4.72363
20
-5.49333
11
4.72023
21
-5.50333
0
LINE
8
BLACK
6
CONTINUOUS
10
4.72023
20
-5.50333
11
4.71557
21
-5.5128
0
LINE
8
BLACK
6
CONTINUOUS
10
4.71557
20
-5.5128
11
4.7097
21
-5.52157
0
LINE
8
BLACK
6
CONTINUOUS
10
4.7097
20
-5.52157
11
4.70274
21
-5.52951
0
LINE
8
BLACK
6
CONTINUOUS
10
4.70274
20
-5.52951
11
4.6948
21
-5.53647
0
LINE
8
BLACK
6
CONTINUOUS
10
4.6948
20
-5.53647
11
4.68602
21
-5.54234
0
LINE
8
BLACK
6
CONTINUOUS
10
4.68602
20
-5.54234
11
4.67656
21
-5.54701
0
LINE
8
BLACK
6
CONTINUOUS
10
4.67656
20
-5.54701
11
4.66656
21
-5.5504
0
LINE
8
BLACK
6
CONTINUOUS
10
4.66656
20
-5.5504
11
4.6562
21
-5.55246
0
LINE
8
BLACK
6
CONTINUOUS
10
4.6562
20
-5.55246
11
4.64567
21
-5.55315
0
LINE
8
BLACK
6
CONTINUOUS
10
4.64567
20
-5.55315
11
4.01575
21
-5.55315
0
LINE
8
BLACK
6
CONTINUOUS
10
4.01575
20
-5.55315
11
4.00521
21
-5.55246
0
LINE
8
BLACK
6
CONTINUOUS
10
4.00521
20
-5.55246
11
3.99486
21
-5.5504
0
LINE
8
BLACK
6
CONTINUOUS
10
3.99486
20
-5.5504
11
3.98486
21
-5.54701
0
LINE
8
BLACK
6
CONTINUOUS
10
3.98486
20
-5.54701
11
3.97539
21
-5.54234
0
LINE
8
BLACK
6
CONTINUOUS
10
3.97539
20
-5.54234
11
3.96662
21
-5.53647
0
LINE
8
BLACK
6
CONTINUOUS
10
3.96662
20
-5.53647
11
3.95868
21
-5.52951
0
LINE
8
BLACK
6
CONTINUOUS
10
3.95868
20
-5.52951
11
3.95172
21
-5.52157
0
LINE
8
BLACK
6
CONTINUOUS
10
3.95172
20
-5.52157
11
3.94585
21
-5.5128
0
LINE
8
BLACK
6
CONTINUOUS
10
3.94585
20
-5.5128
11
3.94118
21
-5.50333
0
LINE
8
BLACK
6
CONTINUOUS
10
3.94118
20
-5.50333
11
3.93779
21
-5.49333
0
LINE
8
BLACK
6
CONTINUOUS
10
3.93779
20
-5.49333
11
3.93573
21
-5.48298
0
LINE
8
BLACK
6
CONTINUOUS
10
3.93573
20
-5.48298
11
3.93504
21
-5.47244
0
LINE
8
BLACK
6
CONTINUOUS
10
3.93504
20
-5.47244
11
3.93504
21
-2.87402
0
LINE
8
BLACK
6
CONTINUOUS
10
3.93504
20
-2.87402
11
3.93573
21
-2.86348
0
LINE
8
BLACK
6
CONTINUOUS
10
3.93573
20
-2.86348
11
3.93779
21
-2.85313
0
LINE
8
BLACK
6
CONTINUOUS
10
3.93779
20
-2.85313
11
3.94118
21
-2.84313
0
LINE
8
BLACK
6
CONTINUOUS
10
3.94118
20
-2.84313
11
3.94585
21
-2.83366
0
LINE
8
BLACK
6
CONTINUOUS
10
3.94585
20
-2.83366
11
3.95172
21
-2.82488
0
LINE
8
BLACK
6
CONTINUOUS
10
3.95172
20
-2.82488
11
3.95868
21
-2.81695
0
LINE
8
BLACK
6
CONTINUOUS
10
3.95868
20
-2.81695
11
3.96662
21
-2.80999
0
LINE
8
BLACK
6
CONTINUOUS
10
3.96662
20
-2.80999
11
3.97539
21
-2.80412
0
LINE
8
BLACK
6
CONTINUOUS
10
3.97539
20
-2.80412
11
3.98486
21
-2.79945
0
LINE
8
BLACK
6
CONTINUOUS
10
3.98486
20
-2.79945
11
3.99486
21
-2.79606
0
LINE
8
BLACK
6
CONTINUOUS
10
3.99486
20
-2.79606
11
4.00521
21
-2.794
0
LINE
8
BLACK
6
CONTINUOUS
10
4.00521
20
-2.794
11
4.01575
21
-2.79331
0
LINE
8
BLACK
6
CONTINUOUS
10
4.01575
20
-2.79331
11
4.05512
21
-2.79331
0
LINE
8
BLACK
6
CONTINUOUS
10
4.05512
20
-2.79331
11
4.06565
21
-2.794
0
LINE
8
BLACK
6
CONTINUOUS
10
4.06565
20
-2.794
11
4.07601
21
-2.79606
0
LINE
8
BLACK
6
CONTINUOUS
10
4.07601
20
-2.79606
11
4.086
21
-2.79945
0
LINE
8
BLACK
6
CONTINUOUS
10
4.086
20
-2.79945
11
4.09547
21
-2.80412
0
LINE
8
BLACK
6
CONTINUOUS
10
4.09547
20
-2.80412
11
4.10425
21
-2.80999
0
LINE
8
BLACK
6
CONTINUOUS
10
4.10425
20
-2.80999
11
4.11219
21
-2.81695
0
LINE
8
BLACK
6
CONTINUOUS
10
4.11219
20
-2.81695
11
4.11915
21
-2.82488
0
LINE
8
BLACK
6
CONTINUOUS
10
4.11915
20
-2.82488
11
4.12501
21
-2.83366
0
LINE
8
BLACK
6
CONTINUOUS
10
4.12501
20
-2.83366
11
4.12968
21
-2.84313
0
LINE
8
BLACK
6
CONTINUOUS
10
4.12968
20
-2.84313
11
4.13308
21
-2.85313
0
LINE
8
BLACK
6
CONTINUOUS
10
4.13308
20
-2.85313
11
4.13514
21
-2.86348
0
LINE
8
BLACK
6
CONTINUOUS
10
4.13514
20
-2.86348
11
4.13583
21
-2.87402
0
LINE
8
BLACK
6
CONTINUOUS
10
4.13583
20
-2.87402
11
4.13583
21
-3.22835
0
LINE
8
BLACK
6
CONTINUOUS
10
4.13583
20
-3.22835
11
4.13571
21
-3.22863
0
LINE
8
BLACK
6
CONTINUOUS
10
4.13571
20
-3.22863
11
4.13625
21
-3.23487
0
LINE
8
BLACK
6
CONTINUOUS
10
4.13625
20
-3.23487
11
4.13795
21
-3.24119
0
LINE
8
BLACK
6
CONTINUOUS
10
4.13795
20
-3.24119
11
4.14071
21
-3.24712
0
LINE
8
BLACK
6
CONTINUOUS
10
4.14071
20
-3.24712
11
4.14447
21
-3.25248
0
LINE
8
BLACK
6
CONTINUOUS
10
4.14447
20
-3.25248
11
4.1491
21
-3.25711
0
LINE
8
BLACK
6
CONTINUOUS
10
4.1491
20
-3.25711
11
4.15446
21
-3.26086
0
LINE
8
BLACK
6
CONTINUOUS
10
4.15446
20
-3.26086
11
4.16039
21
-3.26363
0
LINE
8
BLACK
6
CONTINUOUS
10
4.16039
20
-3.26363
11
4.16671
21
-3.26532
0
LINE
8
BLACK
6
CONTINUOUS
10
4.16671
20
-3.26532
11
4.17294
21
-3.26587
0
LINE
8
BLACK
6
CONTINUOUS
10
4.17294
20
-3.26587
11
4.17323
21
-3.26575
0
LINE
8
BLACK
6
CONTINUOUS
10
4.17323
20
-3.26575
11
4.48819
21
-3.26575
0
LINE
8
BLACK
6
CONTINUOUS
10
4.48819
20
-3.26575
11
4.48847
21
-3.26587
0
LINE
8
BLACK
6
CONTINUOUS
10
4.48847
20
-3.26587
11
4.49471
21
-3.26532
0
LINE
8
BLACK
6
CONTINUOUS
10
4.60596
20
-2.7971
11
4.59626
21
-2.79774
0
LINE
8
BLACK
6
CONTINUOUS
10
4.59626
20
-2.79774
11
4.58639
21
-2.7997
0
LINE
8
BLACK
6
CONTINUOUS
10
4.58639
20
-2.7997
11
4.57686
21
-2.80294
0
LINE
8
BLACK
6
CONTINUOUS
10
4.57686
20
-2.80294
11
4.56783
21
-2.80739
0
LINE
8
BLACK
6
CONTINUOUS
10
4.56783
20
-2.80739
11
4.55946
21
-2.81298
0
LINE
8
BLACK
6
CONTINUOUS
10
4.55946
20
-2.81298
11
4.5519
21
-2.81961
0
LINE
8
BLACK
6
CONTINUOUS
10
4.5519
20
-2.81961
11
4.54526
21
-2.82718
0
LINE
8
BLACK
6
CONTINUOUS
10
4.54526
20
-2.82718
11
4.53967
21
-2.83555
0
LINE
8
BLACK
6
CONTINUOUS
10
4.53967
20
-2.83555
11
4.53522
21
-2.84457
0
LINE
8
BLACK
6
CONTINUOUS
10
4.53522
20
-2.84457
11
4.53198
21
-2.8541
0
LINE
8
BLACK
6
CONTINUOUS
10
4.53198
20
-2.8541
11
4.53002
21
-2.86397
0
LINE
8
BLACK
6
CONTINUOUS
10
4.53002
20
-2.86397
11
4.52939
21
-2.87367
0
LINE
8
BLACK
6
CONTINUOUS
10
4.52939
20
-2.87367
11
4.52953
21
-2.87402
0
LINE
8
BLACK
6
CONTINUOUS
10
4.52953
20
-2.87402
11
4.52953
21
-3.22835
0
LINE
8
BLACK
6
CONTINUOUS
10
4.52953
20
-3.22835
11
4.5289
21
-3.23552
0
LINE
8
BLACK
6
CONTINUOUS
10
4.5289
20
-3.23552
11
4.52703
21
-3.24249
0
LINE
8
BLACK
6
CONTINUOUS
10
4.52703
20
-3.24249
11
4.52399
21
-3.24902
0
LINE
8
BLACK
6
CONTINUOUS
10
4.52399
20
-3.24902
11
4.51986
21
-3.25492
0
LINE
8
BLACK
6
CONTINUOUS
10
4.51986
20
-3.25492
11
4.51476
21
-3.26001
0
LINE
8
BLACK
6
CONTINUOUS
10
4.51476
20
-3.26001
11
4.50886
21
-3.26415
0
LINE
8
BLACK
6
CONTINUOUS
10
4.50886
20
-3.26415
11
4.50233
21
-3.26719
0
LINE
8
BLACK
6
CONTINUOUS
10
4.50233
20
-3.26719
11
4.49537
21
-3.26906
0
LINE
8
BLACK
6
CONTINUOUS
10
4.49537
20
-3.26906
11
4.48819
21
-3.26969
0
LINE
8
BLACK
6
CONTINUOUS
10
4.48819
20
-3.26969
11
4.17323
21
-3.26969
0
LINE
8
BLACK
6
CONTINUOUS
10
4.17323
20
-3.26969
11
4.16605
21
-3.26906
0
LINE
8
BLACK
6
CONTINUOUS
10
4.16605
20
-3.26906
11
4.15909
21
-3.26719
0
LINE
8
BLACK
6
CONTINUOUS
10
4.15909
20
-3.26719
11
4.15256
21
-3.26415
0
LINE
8
BLACK
6
CONTINUOUS
10
4.15256
20
-3.26415
11
4.14666
21
-3.26001
0
LINE
8
BLACK
6
CONTINUOUS
10
4.14666
20
-3.26001
11
4.14156
21
-3.25492
0
LINE
8
BLACK
6
CONTINUOUS
10
4.14156
20
-3.25492
11
4.13743
21
-3.24902
0
LINE
8
BLACK
6
CONTINUOUS
10
4.13743
20
-3.24902
11
4.13438
21
-3.24249
0
LINE
8
BLACK
6
CONTINUOUS
10
4.13438
20
-3.24249
11
4.13252
21
-3.23552
0
LINE
8
BLACK
6
CONTINUOUS
10
4.13252
20
-3.23552
11
4.13189
21
-3.22835
0
LINE
8
BLACK
6
CONTINUOUS
10
4.13189
20
-3.22835
11
4.13189
21
-2.87402
0
LINE
8
BLACK
6
CONTINUOUS
10
4.13189
20
-2.87402
11
4.13203
21
-2.87367
0
LINE
8
BLACK
6
CONTINUOUS
10
4.13203
20
-2.87367
11
4.1314
21
-2.86397
0
LINE
8
BLACK
6
CONTINUOUS
10
4.1314
20
-2.86397
11
4.12943
21
-2.8541
0
LINE
8
BLACK
6
CONTINUOUS
10
4.12943
20
-2.8541
11
4.1262
21
-2.84457
0
LINE
8
BLACK
6
CONTINUOUS
10
4.1262
20
-2.84457
11
4.12175
21
-2.83555
0
LINE
8
BLACK
6
CONTINUOUS
10
4.12175
20
-2.83555
11
4.11616
21
-2.82718
0
LINE
8
BLACK
6
CONTINUOUS
10
4.11616
20
-2.82718
11
4.10952
21
-2.81961
0
LINE
8
BLACK
6
CONTINUOUS
10
4.10952
20
-2.81961
11
4.10195
21
-2.81298
0
LINE
8
BLACK
6
CONTINUOUS
10
4.10195
20
-2.81298
11
4.09359
21
-2.80739
0
LINE
8
BLACK
6
CONTINUOUS
10
4.09359
20
-2.80739
11
4.08456
21
-2.80294
0
LINE
8
BLACK
6
CONTINUOUS
10
4.08456
20
-2.80294
11
4.07503
21
-2.7997
0
LINE
8
BLACK
6
CONTINUOUS
10
4.07503
20
-2.7997
11
4.06516
21
-2.79774
0
LINE
8
BLACK
6
CONTINUOUS
10
4.06516
20
-2.79774
11
4.05546
21
-2.7971
0
LINE
8
BLACK
6
CONTINUOUS
10
4.05546
20
-2.7971
11
4.05512
21
-2.79724
0
LINE
8
BLACK
6
CONTINUOUS
10
4.05512
20
-2.79724
11
4.01575
21
-2.79724
0
LINE
8
BLACK
6
CONTINUOUS
10
4.01575
20
-2.79724
11
4.0154
21
-2.7971
0
LINE
8
BLACK
6
CONTINUOUS
10
4.0154
20
-2.7971
11
4.00571
21
-2.79774
0
LINE
8
BLACK
6
CONTINUOUS
10
4.00571
20
-2.79774
11
3.99584
21
-2.7997
0
LINE
8
BLACK
6
CONTINUOUS
10
3.99584
20
-2.7997
11
3.98631
21
-2.80294
0
LINE
8
BLACK
6
CONTINUOUS
10
3.98631
20
-2.80294
11
3.97728
21
-2.80739
0
LINE
8
BLACK
6
CONTINUOUS
10
3.97728
20
-2.80739
11
3.96891
21
-2.81298
0
LINE
8
BLACK
6
CONTINUOUS
10
3.96891
20
-2.81298
11
3.96135
21
-2.81961
0
LINE
8
BLACK
6
CONTINUOUS
10
3.96135
20
-2.81961
11
3.95471
21
-2.82718
0
LINE
8
BLACK
6
CONTINUOUS
10
3.95471
20
-2.82718
11
3.94912
21
-2.83555
0
LINE
8
BLACK
6
CONTINUOUS
10
3.94912
20
-2.83555
11
3.94467
21
-2.84457
0
LINE
8
BLACK
6
CONTINUOUS
10
3.94467
20
-2.84457
11
3.94143
21
-2.8541
0
LINE
8
BLACK
6
CONTINUOUS
10
3.94143
20
-2.8541
11
3.93947
21
-2.86397
0
LINE
8
BLACK
6
CONTINUOUS
10
3.93947
20
-2.86397
11
3.93883
21
-2.87367
0
LINE
8
BLACK
6
CONTINUOUS
10
3.93883
20
-2.87367
11
3.93898
21
-2.87402
0
LINE
8
BLACK
6
CONTINUOUS
10
3.93898
20
-2.87402
11
3.93898
21
-5.47244
0
LINE
8
BLACK
6
CONTINUOUS
10
3.93898
20
-5.47244
11
3.93883
21
-5.47278
0
LINE
8
BLACK
6
CONTINUOUS
10
3.93883
20
-5.47278
11
3.93947
21
-5.48248
0
LINE
8
BLACK
6
CONTINUOUS
10
3.93947
20
-5.48248
11
3.94143
21
-5.49235
0
LINE
8
BLACK
6
CONTINUOUS
10
3.94143
20
-5.49235
11
3.94467
21
-5.50188
0
LINE
8
BLACK
6
CONTINUOUS
10
3.94467
20
-5.50188
11
3.94912
21
-5.51091
0
LINE
8
BLACK
6
CONTINUOUS
10
3.94912
20
-5.51091
11
3.95471
21
-5.51928
0
LINE
8
BLACK
6
CONTINUOUS
10
3.95471
20
-5.51928
11
3.96135
21
-5.52684
0
LINE
8
BLACK
6
CONTINUOUS
10
3.96135
20
-5.52684
11
3.96891
21
-5.53348
0
LINE
8
BLACK
6
CONTINUOUS
10
3.96891
20
-5.53348
11
3.97728
21
-5.53907
0
LINE
8
BLACK
6
CONTINUOUS
10
3.97728
20
-5.53907
11
3.98631
21
-5.54352
0
LINE
8
BLACK
6
CONTINUOUS
10
3.98631
20
-5.54352
11
3.99584
21
-5.54676
0
LINE
8
BLACK
6
CONTINUOUS
10
3.99584
20
-5.54676
11
4.00571
21
-5.54872
0
LINE
8
BLACK
6
CONTINUOUS
10
4.00571
20
-5.54872
11
4.0154
21
-5.54935
0
LINE
8
BLACK
6
CONTINUOUS
10
4.0154
20
-5.54935
11
4.01575
21
-5.54921
0
LINE
8
BLACK
6
CONTINUOUS
10
4.01575
20
-5.54921
11
4.64567
21
-5.54921
0
LINE
8
BLACK
6
CONTINUOUS
10
4.64567
20
-5.54921
11
4.64601
21
-5.54935
0
LINE
8
BLACK
6
CONTINUOUS
10
4.64601
20
-5.54935
11
4.65571
21
-5.54872
0
LINE
8
BLACK
6
CONTINUOUS
10
4.65571
20
-5.54872
11
4.66558
21
-5.54676
0
LINE
8
BLACK
6
CONTINUOUS
10
4.66558
20
-5.54676
11
4.67511
21
-5.54352
0
LINE
8
BLACK
6
CONTINUOUS
10
4.67511
20
-5.54352
11
4.68414
21
-5.53907
0
LINE
8
BLACK
6
CONTINUOUS
10
4.68414
20
-5.53907
11
4.69251
21
-5.53348
0
LINE
8
BLACK
6
CONTINUOUS
10
4.69251
20
-5.53348
11
4.70007
21
-5.52684
0
LINE
8
BLACK
6
CONTINUOUS
10
4.70007
20
-5.52684
11
4.70671
21
-5.51928
0
LINE
8
BLACK
6
CONTINUOUS
10
4.70671
20
-5.51928
11
4.7123
21
-5.51091
0
LINE
8
BLACK
6
CONTINUOUS
10
4.7123
20
-5.51091
11
4.71675
21
-5.50188
0
LINE
8
BLACK
6
CONTINUOUS
10
4.71675
20
-5.50188
11
4.71998
21
-5.49235
0
LINE
8
BLACK
6
CONTINUOUS
10
4.71998
20
-5.49235
11
4.72195
21
-5.48248
0
LINE
8
BLACK
6
CONTINUOUS
10
4.72195
20
-5.48248
11
4.72258
21
-5.47278
0
LINE
8
BLACK
6
CONTINUOUS
10
4.72258
20
-5.47278
11
4.72244
21
-5.47244
0
LINE
8
BLACK
6
CONTINUOUS
10
4.72244
20
-5.47244
11
4.72244
21
-2.87402
0
LINE
8
BLACK
6
CONTINUOUS
10
4.72244
20
-2.87402
11
4.72258
21
-2.87367
0
LINE
8
BLACK
6
CONTINUOUS
10
4.72258
20
-2.87367
11
4.72195
21
-2.86397
0
LINE
8
BLACK
6
CONTINUOUS
10
4.72195
20
-2.86397
11
4.71998
21
-2.8541
0
LINE
8
BLACK
6
CONTINUOUS
10
4.71998
20
-2.8541
11
4.71675
21
-2.84457
0
LINE
8
BLACK
6
CONTINUOUS
10
4.71675
20
-2.84457
11
4.7123
21
-2.83555
0
LINE
8
BLACK
6
CONTINUOUS
10
4.7123
20
-2.83555
11
4.70671
21
-2.82718
0
LINE
8
BLACK
6
CONTINUOUS
10
4.70671
20
-2.82718
11
4.70007
21
-2.81961
0
LINE
8
BLACK
6
CONTINUOUS
10
4.70007
20
-2.81961
11
4.69251
21
-2.81298
0
LINE
8
BLACK
6
CONTINUOUS
10
4.69251
20
-2.81298
11
4.68414
21
-2.80739
0
LINE
8
BLACK
6
CONTINUOUS
10
4.68414
20
-2.80739
11
4.67511
21
-2.80294
0
LINE
8
BLACK
6
CONTINUOUS
10
4.67511
20
-2.80294
11
4.66558
21
-2.7997
0
LINE
8
BLACK
6
CONTINUOUS
10
4.66558
20
-2.7997
11
4.65571
21
-2.79774
0
LINE
8
BLACK
6
CONTINUOUS
10
4.65571
20
-2.79774
11
4.64601
21
-2.7971
0
LINE
8
BLACK
6
CONTINUOUS
10
4.64601
20
-2.7971
11
4.64567
21
-2.79724
0
LINE
8
BLACK
6
CONTINUOUS
10
4.64567
20
-2.79724
11
4.6063
21
-2.79724
0
LINE
8
BLACK
6
CONTINUOUS
10
4.6063
20
-2.79724
11
4.60596
21
-2.7971
0
LINE
8
BLACK
6
CONTINUOUS
10
4.06664
20
-4.68621
11
4.06995
21
-4.6829
0
LINE
8
BLACK
6
CONTINUOUS
10
4.06995
20
-4.6829
11
4.07412
21
-4.68077
0
LINE
8
BLACK
6
CONTINUOUS
10
4.07412
20
-4.68077
11
4.07874
21
-4.68004
0
LINE
8
BLACK
6
CONTINUOUS
10
4.07874
20
-4.68004
11
4.08336
21
-4.68077
0
LINE
8
BLACK
6
CONTINUOUS
10
4.08336
20
-4.68077
11
4.08753
21
-4.6829
0
LINE
8
BLACK
6
CONTINUOUS
10
4.08753
20
-4.6829
11
4.09084
21
-4.68621
0
LINE
8
BLACK
6
CONTINUOUS
10
4.09084
20
-4.68621
11
4.09297
21
-4.69038
0
LINE
8
BLACK
6
CONTINUOUS
10
4.09297
20
-4.69038
11
4.0937
21
-4.695
0
LINE
8
BLACK
6
CONTINUOUS
10
4.0937
20
-4.695
11
4.09297
21
-4.69962
0
LINE
8
BLACK
6
CONTINUOUS
10
4.09297
20
-4.69962
11
4.09084
21
-4.70379
0
LINE
8
BLACK
6
CONTINUOUS
10
4.09084
20
-4.70379
11
4.08753
21
-4.7071
0
LINE
8
BLACK
6
CONTINUOUS
10
4.08753
20
-4.7071
11
4.08336
21
-4.70923
0
LINE
8
BLACK
6
CONTINUOUS
10
4.08336
20
-4.70923
11
4.07874
21
-4.70996
0
LINE
8
BLACK
6
CONTINUOUS
10
4.07874
20
-4.70996
11
4.07412
21
-4.70923
0
LINE
8
BLACK
6
CONTINUOUS
10
4.07412
20
-4.70923
11
4.06995
21
-4.7071
0
LINE
8
BLACK
6
CONTINUOUS
10
4.06995
20
-4.7071
11
4.06664
21
-4.70379
0
LINE
8
BLACK
6
CONTINUOUS
10
4.06664
20
-4.70379
11
4.06451
21
-4.69962
0
LINE
8
BLACK
6
CONTINUOUS
10
4.06451
20
-4.69962
11
4.06378
21
-4.695
0
LINE
8
BLACK
6
CONTINUOUS
10
4.06378
20
-4.695
11
4.06451
21
-4.69038
0
LINE
8
BLACK
6
CONTINUOUS
10
4.06451
20
-4.69038
11
4.06664
21
-4.68621
0
LINE
8
BLACK
6
CONTINUOUS
10
4.06681
20
-4.70367
11
4.07007
21
-4.70693
0
LINE
8
BLACK
6
CONTINUOUS
10
4.07007
20
-4.70693
11
4.07418
21
-4.70903
0
LINE
8
BLACK
6
CONTINUOUS
10
4.07418
20
-4.70903
11
4.07874
21
-4.70975
0
LINE
8
BLACK
6
CONTINUOUS
10
4.07874
20
-4.70975
11
4.0833
21
-4.70903
0
LINE
8
BLACK
6
CONTINUOUS
10
4.0833
20
-4.70903
11
4.08741
21
-4.70693
0
LINE
8
BLACK
6
CONTINUOUS
10
4.08741
20
-4.70693
11
4.09067
21
-4.70367
0
LINE
8
BLACK
6
CONTINUOUS
10
4.09067
20
-4.70367
11
4.09277
21
-4.69956
0
LINE
8
BLACK
6
CONTINUOUS
10
4.09277
20
-4.69956
11
4.09349
21
-4.695
0
LINE
8
BLACK
6
CONTINUOUS
10
4.09349
20
-4.695
11
4.09277
21
-4.69044
0
LINE
8
BLACK
6
CONTINUOUS
10
4.09277
20
-4.69044
11
4.09067
21
-4.68633
0
LINE
8
BLACK
6
CONTINUOUS
10
4.09067
20
-4.68633
11
4.08741
21
-4.68307
0
LINE
8
BLACK
6
CONTINUOUS
10
4.08741
20
-4.68307
11
4.0833
21
-4.68097
0
LINE
8
BLACK
6
CONTINUOUS
10
4.0833
20
-4.68097
11
4.07874
21
-4.68025
0
LINE
8
BLACK
6
CONTINUOUS
10
4.07874
20
-4.68025
11
4.07418
21
-4.68097
0
LINE
8
BLACK
6
CONTINUOUS
10
4.07418
20
-4.68097
11
4.07007
21
-4.68307
0
LINE
8
BLACK
6
CONTINUOUS
10
4.07007
20
-4.68307
11
4.06681
21
-4.68633
0
LINE
8
BLACK
6
CONTINUOUS
10
4.06681
20
-4.68633
11
4.06471
21
-4.69044
0
LINE
8
BLACK
6
CONTINUOUS
10
4.06471
20
-4.69044
11
4.06399
21
-4.695
0
LINE
8
BLACK
6
CONTINUOUS
10
4.06399
20
-4.695
11
4.06471
21
-4.69956
0
LINE
8
BLACK
6
CONTINUOUS
10
4.06471
20
-4.69956
11
4.06681
21
-4.70367
0
LINE
8
BLACK
6
CONTINUOUS
10
3.96034
20
-4.68621
11
3.96365
21
-4.6829
0
LINE
8
BLACK
6
CONTINUOUS
10
3.96365
20
-4.6829
11
3.96782
21
-4.68077
0
LINE
8
BLACK
6
CONTINUOUS
10
3.96782
20
-4.68077
11
3.97244
21
-4.68004
0
LINE
8
BLACK
6
CONTINUOUS
10
3.97244
20
-4.68004
11
3.97706
21
-4.68077
0
LINE
8
BLACK
6
CONTINUOUS
10
3.97706
20
-4.68077
11
3.98123
21
-4.6829
0
LINE
8
BLACK
6
CONTINUOUS
10
3.98123
20
-4.6829
11
3.98454
21
-4.68621
0
LINE
8
BLACK
6
CONTINUOUS
10
3.98454
20
-4.68621
11
3.98667
21
-4.69038
0
LINE
8
BLACK
6
CONTINUOUS
10
3.98667
20
-4.69038
11
3.9874
21
-4.695
0
LINE
8
BLACK
6
CONTINUOUS
10
3.9874
20
-4.695
11
3.98667
21
-4.69962
0
LINE
8
BLACK
6
CONTINUOUS
10
3.98667
20
-4.69962
11
3.98454
21
-4.70379
0
LINE
8
BLACK
6
CONTINUOUS
10
3.98454
20
-4.70379
11
3.98123
21
-4.7071
0
LINE
8
BLACK
6
CONTINUOUS
10
3.98123
20
-4.7071
11
3.97706
21
-4.70923
0
LINE
8
BLACK
6
CONTINUOUS
10
3.97706
20
-4.70923
11
3.97244
21
-4.70996
0
LINE
8
BLACK
6
CONTINUOUS
10
3.97244
20
-4.70996
11
3.96782
21
-4.70923
0
LINE
8
BLACK
6
CONTINUOUS
10
3.96782
20
-4.70923
11
3.96365
21
-4.7071
0
LINE
8
BLACK
6
CONTINUOUS
10
3.96365
20
-4.7071
11
3.96034
21
-4.70379
0
LINE
8
BLACK
6
CONTINUOUS
10
3.96034
20
-4.70379
11
3.95821
21
-4.69962
0
LINE
8
BLACK
6
CONTINUOUS
10
3.95821
20
-4.69962
11
3.95748
21
-4.695
0
LINE
8
BLACK
6
CONTINUOUS
10
3.95748
20
-4.695
11
3.95821
21
-4.69038
0
LINE
8
BLACK
6
CONTINUOUS
10
3.95821
20
-4.69038
11
3.96034
21
-4.68621
0
LINE
8
BLACK
6
CONTINUOUS
10
3.96051
20
-4.70367
11
3.96377
21
-4.70693
0
LINE
8
BLACK
6
CONTINUOUS
10
3.96377
20
-4.70693
11
3.96788
21
-4.70903
0
LINE
8
BLACK
6
CONTINUOUS
10
3.96788
20
-4.70903
11
3.97244
21
-4.70975
0
LINE
8
BLACK
6
CONTINUOUS
10
3.97244
20
-4.70975
11
3.977
21
-4.70903
0
LINE
8
BLACK
6
CONTINUOUS
10
3.977
20
-4.70903
11
3.98111
21
-4.70693
0
LINE
8
BLACK
6
CONTINUOUS
10
3.98111
20
-4.70693
11
3.98437
21
-4.70367
0
LINE
8
BLACK
6
CONTINUOUS
10
3.98437
20
-4.70367
11
3.98647
21
-4.69956
0
LINE
8
BLACK
6
CONTINUOUS
10
3.98647
20
-4.69956
11
3.98719
21
-4.695
0
LINE
8
BLACK
6
CONTINUOUS
10
3.98719
20
-4.695
11
3.98647
21
-4.69044
0
LINE
8
BLACK
6
CONTINUOUS
10
3.98647
20
-4.69044
11
3.98437
21
-4.68633
0
LINE
8
BLACK
6
CONTINUOUS
10
3.98437
20
-4.68633
11
3.98111
21
-4.68307
0
LINE
8
BLACK
6
CONTINUOUS
10
3.98111
20
-4.68307
11
3.977
21
-4.68097
0
LINE
8
BLACK
6
CONTINUOUS
10
3.977
20
-4.68097
11
3.97244
21
-4.68025
0
LINE
8
BLACK
6
CONTINUOUS
10
3.97244
20
-4.68025
11
3.96788
21
-4.68097
0
LINE
8
BLACK
6
CONTINUOUS
10
3.96788
20
-4.68097
11
3.96377
21
-4.68307
0
LINE
8
BLACK
6
CONTINUOUS
10
3.96377
20
-4.68307
11
3.96051
21
-4.68633
0
LINE
8
BLACK
6
CONTINUOUS
10
3.96051
20
-4.68633
11
3.95841
21
-4.69044
0
LINE
8
BLACK
6
CONTINUOUS
10
3.95841
20
-4.69044
11
3.95769
21
-4.695
0
LINE
8
BLACK
6
CONTINUOUS
10
3.95769
20
-4.695
11
3.95841
21
-4.69956
0
LINE
8
BLACK
6
CONTINUOUS
10
3.95841
20
-4.69956
11
3.96051
21
-4.70367
0
LINE
8
BLACK
6
CONTINUOUS
10
4.67687
20
-4.68621
11
4.68018
21
-4.6829
0
LINE
8
BLACK
6
CONTINUOUS
10
4.68018
20
-4.6829
11
4.68435
21
-4.68077
0
LINE
8
BLACK
6
CONTINUOUS
10
4.68435
20
-4.68077
11
4.68898
21
-4.68004
0
LINE
8
BLACK
6
CONTINUOUS
10
4.68898
20
-4.68004
11
4.6936
21
-4.68077
0
LINE
8
BLACK
6
CONTINUOUS
10
4.6936
20
-4.68077
11
4.69777
21
-4.6829
0
LINE
8
BLACK
6
CONTINUOUS
10
4.69777
20
-4.6829
11
4.70108
21
-4.68621
0
LINE
8
BLACK
6
CONTINUOUS
10
4.70108
20
-4.68621
11
4.7032
21
-4.69038
0
LINE
8
BLACK
6
CONTINUOUS
10
4.7032
20
-4.69038
11
4.70394
21
-4.695
0
LINE
8
BLACK
6
CONTINUOUS
10
4.70394
20
-4.695
11
4.7032
21
-4.69962
0
LINE
8
BLACK
6
CONTINUOUS
10
4.7032
20
-4.69962
11
4.70108
21
-4.70379
0
LINE
8
BLACK
6
CONTINUOUS
10
4.70108
20
-4.70379
11
4.69777
21
-4.7071
0
LINE
8
BLACK
6
CONTINUOUS
10
4.69777
20
-4.7071
11
4.6936
21
-4.70923
0
LINE
8
BLACK
6
CONTINUOUS
10
4.6936
20
-4.70923
11
4.68898
21
-4.70996
0
LINE
8
BLACK
6
CONTINUOUS
10
4.68898
20
-4.70996
11
4.68435
21
-4.70923
0
LINE
8
BLACK
6
CONTINUOUS
10
4.68435
20
-4.70923
11
4.68018
21
-4.7071
0
LINE
8
BLACK
6
CONTINUOUS
10
4.68018
20
-4.7071
11
4.67687
21
-4.70379
0
LINE
8
BLACK
6
CONTINUOUS
10
4.67687
20
-4.70379
11
4.67475
21
-4.69962
0
LINE
8
BLACK
6
CONTINUOUS
10
4.67475
20
-4.69962
11
4.67402
21
-4.695
0
LINE
8
BLACK
6
CONTINUOUS
10
4.67402
20
-4.695
11
4.67475
21
-4.69038
0
LINE
8
BLACK
6
CONTINUOUS
10
4.67475
20
-4.69038
11
4.67687
21
-4.68621
0
LINE
8
BLACK
6
CONTINUOUS
10
4.67704
20
-4.70367
11
4.68031
21
-4.70693
0
LINE
8
BLACK
6
CONTINUOUS
10
4.68031
20
-4.70693
11
4.68442
21
-4.70903
0
LINE
8
BLACK
6
CONTINUOUS
10
4.68442
20
-4.70903
11
4.68898
21
-4.70975
0
LINE
8
BLACK
6
CONTINUOUS
10
4.68898
20
-4.70975
11
4.69353
21
-4.70903
0
LINE
8
BLACK
6
CONTINUOUS
10
4.69353
20
-4.70903
11
4.69765
21
-4.70693
0
LINE
8
BLACK
6
CONTINUOUS
10
4.69765
20
-4.70693
11
4.70091
21
-4.70367
0
LINE
8
BLACK
6
CONTINUOUS
10
4.70091
20
-4.70367
11
4.703
21
-4.69956
0
LINE
8
BLACK
6
CONTINUOUS
10
4.703
20
-4.69956
11
4.70372
21
-4.695
0
LINE
8
BLACK
6
CONTINUOUS
10
4.70372
20
-4.695
11
4.703
21
-4.69044
0
LINE
8
BLACK
6
CONTINUOUS
10
4.703
20
-4.69044
11
4.70091
21
-4.68633
0
LINE
8
BLACK
6
CONTINUOUS
10
4.70091
20
-4.68633
11
4.69765
21
-4.68307
0
LINE
8
BLACK
6
CONTINUOUS
10
4.69765
20
-4.68307
11
4.69353
21
-4.68097
0
LINE
8
BLACK
6
CONTINUOUS
10
4.69353
20
-4.68097
11
4.68898
21
-4.68025
0
LINE
8
BLACK
6
CONTINUOUS
10
4.68898
20
-4.68025
11
4.68442
21
-4.68097
0
LINE
8
BLACK
6
CONTINUOUS
10
4.68442
20
-4.68097
11
4.68031
21
-4.68307
0
LINE
8
BLACK
6
CONTINUOUS
10
4.68031
20
-4.68307
11
4.67704
21
-4.68633
0
LINE
8
BLACK
6
CONTINUOUS
10
4.67704
20
-4.68633
11
4.67495
21
-4.69044
0
LINE
8
BLACK
6
CONTINUOUS
10
4.67495
20
-4.69044
11
4.67423
21
-4.695
0
LINE
8
BLACK
6
CONTINUOUS
10
4.67423
20
-4.695
11
4.67495
21
-4.69956
0
LINE
8
BLACK
6
CONTINUOUS
10
4.67495
20
-4.69956
11
4.67704
21
-4.70367
0
LINE
8
BLACK
6
CONTINUOUS
10
4.57057
20
-4.68621
11
4.57388
21
-4.6829
0
LINE
8
BLACK
6
CONTINUOUS
10
4.57388
20
-4.6829
11
4.57805
21
-4.68077
0
LINE
8
BLACK
6
CONTINUOUS
10
4.57805
20
-4.68077
11
4.58268
21
-4.68004
0
LINE
8
BLACK
6
CONTINUOUS
10
4.58268
20
-4.68004
11
4.5873
21
-4.68077
0
LINE
8
BLACK
6
CONTINUOUS
10
4.5873
20
-4.68077
11
4.59147
21
-4.6829
0
LINE
8
BLACK
6
CONTINUOUS
10
4.59147
20
-4.6829
11
4.59478
21
-4.68621
0
LINE
8
BLACK
6
CONTINUOUS
10
4.59478
20
-4.68621
11
4.59691
21
-4.69038
0
LINE
8
BLACK
6
CONTINUOUS
10
4.59691
20
-4.69038
11
4.59764
21
-4.695
0
LINE
8
BLACK
6
CONTINUOUS
10
4.59764
20
-4.695
11
4.59691
21
-4.69962
0
LINE
8
BLACK
6
CONTINUOUS
10
4.59691
20
-4.69962
11
4.59478
21
-4.70379
0
LINE
8
BLACK
6
CONTINUOUS
10
4.59478
20
-4.70379
11
4.59147
21
-4.7071
0
LINE
8
BLACK
6
CONTINUOUS
10
4.59147
20
-4.7071
11
4.5873
21
-4.70923
0
LINE
8
BLACK
6
CONTINUOUS
10
4.5873
20
-4.70923
11
4.58268
21
-4.70996
0
LINE
8
BLACK
6
CONTINUOUS
10
4.58268
20
-4.70996
11
4.57805
21
-4.70923
0
LINE
8
BLACK
6
CONTINUOUS
10
4.57805
20
-4.70923
11
4.57388
21
-4.7071
0
LINE
8
BLACK
6
CONTINUOUS
10
4.57388
20
-4.7071
11
4.57057
21
-4.70379
0
LINE
8
BLACK
6
CONTINUOUS
10
4.57057
20
-4.70379
11
4.56845
21
-4.69962
0
LINE
8
BLACK
6
CONTINUOUS
10
4.56845
20
-4.69962
11
4.56772
21
-4.695
0
LINE
8
BLACK
6
CONTINUOUS
10
4.56772
20
-4.695
11
4.56845
21
-4.69038
0
LINE
8
BLACK
6
CONTINUOUS
10
4.56845
20
-4.69038
11
4.57057
21
-4.68621
0
LINE
8
BLACK
6
CONTINUOUS
10
4.57075
20
-4.70367
11
4.57401
21
-4.70693
0
LINE
8
BLACK
6
CONTINUOUS
10
4.57401
20
-4.70693
11
4.57812
21
-4.70903
0
LINE
8
BLACK
6
CONTINUOUS
10
4.57812
20
-4.70903
11
4.58268
21
-4.70975
0
LINE
8
BLACK
6
CONTINUOUS
10
4.58268
20
-4.70975
11
4.58723
21
-4.70903
0
LINE
8
BLACK
6
CONTINUOUS
10
4.58723
20
-4.70903
11
4.59135
21
-4.70693
0
LINE
8
BLACK
6
CONTINUOUS
10
4.59135
20
-4.70693
11
4.59461
21
-4.70367
0
LINE
8
BLACK
6
CONTINUOUS
10
4.59461
20
-4.70367
11
4.5967
21
-4.69956
0
LINE
8
BLACK
6
CONTINUOUS
10
4.5967
20
-4.69956
11
4.59743
21
-4.695
0
LINE
8
BLACK
6
CONTINUOUS
10
4.59743
20
-4.695
11
4.5967
21
-4.69044
0
LINE
8
BLACK
6
CONTINUOUS
10
4.5967
20
-4.69044
11
4.59461
21
-4.68633
0
LINE
8
BLACK
6
CONTINUOUS
10
4.59461
20
-4.68633
11
4.59135
21
-4.68307
0
LINE
8
BLACK
6
CONTINUOUS
10
4.59135
20
-4.68307
11
4.58723
21
-4.68097
0
LINE
8
BLACK
6
CONTINUOUS
10
4.58723
20
-4.68097
11
4.58268
21
-4.68025
0
LINE
8
BLACK
6
CONTINUOUS
10
4.58268
20
-4.68025
11
4.57812
21
-4.68097
0
LINE
8
BLACK
6
CONTINUOUS
10
4.57812
20
-4.68097
11
4.57401
21
-4.68307
0
LINE
8
BLACK
6
CONTINUOUS
10
4.57401
20
-4.68307
11
4.57075
21
-4.68633
0
LINE
8
BLACK
6
CONTINUOUS
10
4.57075
20
-4.68633
11
4.56865
21
-4.69044
0
LINE
8
BLACK
6
CONTINUOUS
10
4.56865
20
-4.69044
11
4.56793
21
-4.695
0
LINE
8
BLACK
6
CONTINUOUS
10
4.56793
20
-4.695
11
4.56865
21
-4.69956
0
LINE
8
BLACK
6
CONTINUOUS
10
4.56865
20
-4.69956
11
4.57075
21
-4.70367
  0
ENDSEC
  0
EOF
