M48
; DRILL file {KiCad 6.0.11-2627ca5db0~126~ubuntu22.04.1} date 2023年02月19日 20時28分19秒
; FORMAT={-:-/ absolute / inch / decimal}
; #@! TF.CreationDate,2023-02-19T20:28:19+09:00
; #@! TF.GenerationSoftware,Kicad,Pcbnew,6.0.11-2627ca5db0~126~ubuntu22.04.1
; #@! TF.FileFunction,Plated,1,2,PTH
FMAT,2
INCH
; #@! TA.AperFunction,Plated,PTH,ViaDrill
T1C0.0157
; #@! TA.AperFunction,Plated,PTH,ComponentDrill
T2C0.0335
; #@! TA.AperFunction,Plated,PTH,ComponentDrill
T3C0.0374
; #@! TA.AperFunction,Plated,PTH,ComponentDrill
T4C0.0394
; #@! TA.AperFunction,Plated,PTH,ComponentDrill
T5C0.0472
; #@! TA.AperFunction,Plated,PTH,ComponentDrill
T6C0.0866
%
G90
G05
T1
X4.0157Y-5.2756
X4.0157Y-5.4921
X4.0354Y-4.311
X4.1142Y-3.8976
X4.1142Y-4.9803
X4.12Y-4.0
X4.1339Y-3.7008
X4.15Y-3.4319
X4.1555Y-4.5571
X4.1929Y-5.1772
X4.1988Y-4.4016
X4.23Y-3.83
X4.23Y-5.0
X4.252Y-3.5039
X4.2717Y-4.4488
X4.2913Y-3.622
X4.311Y-4.6654
X4.33Y-3.935
X4.3307Y-5.4921
X4.3465Y-3.7319
X4.3465Y-3.8319
X4.3619Y-3.3319
X4.3811Y-3.6669
X4.3811Y-3.8969
X4.42Y-4.84
X4.43Y-4.5
X4.475Y-4.05
X4.4882Y-4.5276
X4.5079Y-3.3465
X4.5276Y-3.5827
X4.5276Y-3.7795
X4.5276Y-3.9567
X4.5276Y-4.7835
X4.5276Y-4.9803
X4.5472Y-4.1732
X4.5472Y-5.1772
X4.575Y-4.28
X4.5866Y-4.3307
X4.6457Y-5.4921
X4.6654Y-5.2756
T2
X4.0307Y-3.0319
X4.0307Y-3.1319
X4.0307Y-3.2319
X4.0307Y-3.3319
X4.0307Y-3.4319
X4.0307Y-3.5319
X4.0307Y-3.6319
X4.0307Y-3.7319
X4.0307Y-3.8319
X4.0307Y-3.9319
X4.0307Y-4.0319
X4.0307Y-4.1319
X4.0307Y-4.2319
X4.6307Y-3.0319
X4.6307Y-3.1319
X4.6307Y-3.2319
X4.6307Y-3.3319
X4.6307Y-3.4319
X4.6307Y-3.5319
X4.6307Y-3.6319
X4.6307Y-3.7319
X4.6307Y-3.8319
X4.6307Y-3.9319
X4.6307Y-4.0319
X4.6307Y-4.1319
X4.6307Y-4.2319
T3
X4.1929Y-5.2992
X4.2913Y-5.2992
X4.3701Y-5.2992
X4.4685Y-5.2992
T4
X4.0551Y-4.8819
X4.0551Y-5.0787
X4.1807Y-4.3307
X4.2807Y-4.3307
X4.3807Y-4.3307
X4.4807Y-4.3307
X4.626Y-4.8819
X4.626Y-4.9803
X4.626Y-5.0787
T6
X4.0236Y-4.4685
X4.0354Y-2.8937
X4.3307Y-4.7598
X4.3307Y-5.2008
X4.626Y-2.8937
X4.6378Y-4.4685
T5
G00X4.1004Y-5.4193
M15
G01X4.1004Y-5.3681
M16
G05
G00X4.561Y-5.4193
M15
G01X4.561Y-5.3681
M16
G05
T0
M30
